SplineFontDB: 3.0
FontName: LinBiolinumO
FullName: Linux Biolinum O
FamilyName: Linux Biolinum O
Weight: Book
Copyright: Linux Libertine by Philipp H. Poll,\nOpen Font under Terms of following Free Software Licenses:\nGPL (General Public License) with font-exception and OFL (Open Font License).\nCreated with FontForge (http://fontforge.sf.net)\nSept 2003, 2004, 2005, 2006, 2007, 2008, 2009, 2010, 2011,2012
Version: 1.1.8
ItalicAngle: 0
UnderlinePosition: -100.352
UnderlineWidth: 40.96
Ascent: 819
Descent: 205
InvalidEm: 0
sfntRevision: 0x00011999
LayerCount: 2
Layer: 0 0 "Back" 1
Layer: 1 0 "Fore" 0
XUID: [1021 942 -930112085 5873322]
StyleMap: 0x0040
FSType: 0
OS2Version: 3
OS2_WeightWidthSlopeOnly: 0
OS2_UseTypoMetrics: 0
CreationTime: 1156455862
ModificationTime: 1532819794
PfmFamily: 17
TTFWeight: 400
TTFWidth: 5
LineGap: 0
VLineGap: 0
Panose: 2 0 5 3 0 0 0 0 0 0
OS2TypoAscent: 915
OS2TypoAOffset: 0
OS2TypoDescent: -252
OS2TypoDOffset: 0
OS2TypoLinegap: 0
OS2WinAscent: 915
OS2WinAOffset: 0
OS2WinDescent: 252
OS2WinDOffset: 0
HheadAscent: 915
HheadAOffset: 0
HheadDescent: -252
HheadDOffset: 0
OS2SubXSize: 666
OS2SubYSize: 717
OS2SubXOff: 0
OS2SubYOff: 143
OS2SupXSize: 666
OS2SupYSize: 717
OS2SupXOff: 0
OS2SupYOff: 492
OS2StrikeYSize: 50
OS2StrikeYPos: 264
OS2CapHeight: 658
OS2XHeight: 460
OS2FamilyClass: 2050
OS2Vendor: 'PfEd'
OS2CodePages: 600001bf.00000000
OS2UnicodeRanges: e0000aff.5000e5fb.00000020.00000000
Lookup: 1 0 0 "Single Substitution lookup 0" { "Single Substitution lookup 0 subtable"  } []
Lookup: 1 0 0 "Single Substitution lookup 1" { "Single Substitution lookup 1 subtable"  } []
Lookup: 1 0 0 "Single Substitution lookup 2" { "Single Substitution lookup 2 subtable"  } []
Lookup: 1 0 0 "'sups' Superscript lookup 3" { "'sups' Superscript lookup 3 subtable" ("superior") } ['sups' ('DFLT' <'dflt' > 'cyrl' <'dflt' > 'grek' <'dflt' > 'latn' <'AZE ' 'CRT ' 'DEU ' 'MOL ' 'ROM ' 'TRK ' 'dflt' > ) ]

StartChar: .notdef
Encoding: 65536 -1 0
Width: 512
Flags: W
HStem: 0 51<82 430> 663 52<82 430>
VStem: 0 51<97 617> 461 51<97 617>
LayerCount: 2
Fore
SplineSet
51 617 m 1
 51 97 l 1
 225 357 l 1
 51 617 l 1
82 51 m 1
 430 51 l 1
 256 311 l 1
 82 51 l 1
287 357 m 1
 461 97 l 1
 461 617 l 1
 287 357 l 1
256 403 m 1
 430 663 l 1
 82 663 l 1
 256 403 l 1
0 0 m 1
 0 715 l 1
 512 715 l 1
 512 0 l 1
 0 0 l 1
EndSplineSet
EndChar

StartChar: exclam
Encoding: 33 33 2
Width: 233
GlyphClass: 2
Flags: W
HStem: -10 114<77.75 155.009> 654 20G<104.5 130>
VStem: 60 113<6.14716 85.3669 436.015 659.271>
LayerCount: 2
Fore
SplineSet
116 674 m 0
 144 674 173 650 173 599 c 0
 173 532 156 489 146 401 c 0
 133 290 132 229 130 215 c 0
 129 204 126 195 116 195 c 0
 105 195 102 202 101 208 c 0
 99 230 94 321 86 401 c 0
 77 491 60 527 60 599 c 0
 60 654 93 674 116 674 c 0
58 45 m 1
 58 49 l 1
 67 76 83 92 114 104 c 1
 118 104 l 1
 148 93 164 78 173 49 c 1
 173 45 l 1
 163 12 147 -3 118 -10 c 1
 114 -10 l 1
 82 -3 67 11 58 45 c 1
EndSplineSet
EndChar

StartChar: quotedbl
Encoding: 34 34 3
Width: 344
GlyphClass: 2
Flags: W
HStem: 437 223
VStem: 65 88<499.23 648.928> 194 88<500.23 649.928>
LayerCount: 2
Fore
SplineSet
220 437 m 1
 220 437 194 600 194 609 c 0
 194 632 215 660 246 660 c 0
 273 660 282 643 282 627 c 0
 282 611 248 441 248 441 c 1
 220 437 l 1
91 436 m 1
 91 436 65 599 65 608 c 0
 65 631 86 659 117 659 c 0
 144 659 153 642 153 626 c 0
 153 610 119 440 119 440 c 1
 91 436 l 1
EndSplineSet
EndChar

StartChar: numbersign
Encoding: 35 35 4
Width: 481
GlyphClass: 2
Flags: W
HStem: 200 53<35 126 171 283 327 418> 373 54<63 154 198 310 354 445>
LayerCount: 2
Fore
SplineSet
292 253 m 1
 310 373 l 1
 190 373 l 1
 171 253 l 1
 292 253 l 1
347 373 m 1
 327 253 l 1
 426 253 l 1
 418 200 l 1
 321 200 l 1
 290 14 l 1
 254 14 l 1
 283 200 l 1
 163 200 l 1
 132 14 l 1
 96 14 l 1
 126 200 l 1
 28 200 l 1
 35 253 l 1
 134 253 l 1
 154 373 l 1
 54 373 l 1
 63 427 l 1
 162 427 l 1
 191 612 l 1
 228 612 l 1
 198 427 l 1
 319 427 l 1
 348 612 l 1
 384 612 l 1
 354 427 l 1
 454 427 l 1
 445 373 l 1
 347 373 l 1
EndSplineSet
EndChar

StartChar: dollar
Encoding: 36 36 5
Width: 476
GlyphClass: 2
Flags: W
HStem: -10 43<141.276 198 238 304.02> 586 39<167.826 231 270 301.412> 691 20G<268.5 273.851>
VStem: 58 70<423.31 538.143> 237 38<625 707.048> 351 81<89.4172 216.645>
LayerCount: 2
Fore
SplineSet
219 374 m 1
 231 586 l 1
 229 586 l 2
 167 586 128 542 128 485 c 0
 128 426 178 393 219 374 c 1
251 270 m 1
 238 32 l 1
 297 37 351 73 351 143 c 0
 351 222 304 248 251 270 c 1
236 -9 m 1
 231 -95 l 1
 224 -99 203 -101 193 -101 c 1
 198 -10 l 1
 94 -6 44 34 44 34 c 1
 42 37 l 1
 49 66 57 96 61 130 c 1
 71 131 l 1
 95 79 142 41 200 33 c 1
 214 285 l 1
 136 318 58 365 58 461 c 0
 58 559 151 622 233 625 c 1
 237 706 l 1
 246 710 262 711 275 711 c 1
 270 624 l 1
 361 617 393 582 393 582 c 1
 395 579 l 1
 386 550 380 522 377 488 c 1
 367 487 l 1
 346 533 314 569 268 581 c 1
 256 359 l 1
 336 330 432 286 432 177 c 0
 432 128 412 77 371 42 c 0
 335 11 285 -5 236 -9 c 1
EndSplineSet
EndChar

StartChar: percent
Encoding: 37 37 6
Width: 696
GlyphClass: 2
Flags: W
HStem: -13 31<490.755 561.127> 246 34<534.149 606.836> 332 32<138.361 209.289> 529 41<305.353 501.869> 591 34<182.426 254.035>
VStem: 65 56<374.447 521.34> 269 34<443.804 550.953> 416 57<29.7132 177.019> 622 32<101.849 229.649>
LayerCount: 2
Fore
SplineSet
473 91 m 0
 473 34 502 18 522 18 c 0
 582 18 622 118 622 179 c 0
 622 236 587 246 572 246 c 0
 519 246 473 154 473 91 c 0
416 108 m 0
 416 190 479 280 560 280 c 0
 604 280 654 260 654 180 c 0
 654 106 606 -13 515 -13 c 0
 448 -13 416 50 416 108 c 0
398 570 m 0
 444 570 528 583 562 629 c 1
 597 611 l 1
 148 -13 l 1
 112 3 l 1
 504 550 l 1
 462 534 420 529 387 529 c 0
 361 529 320 540 300 552 c 1
 302 545 303 535 303 525 c 0
 303 455 255 332 163 332 c 0
 95 332 65 396 65 451 c 0
 65 535 129 625 208 625 c 0
 239 625 271 610 282 597 c 1
 341 569 379 570 398 570 c 0
121 435 m 0
 121 378 151 364 170 364 c 0
 230 364 269 461 269 524 c 0
 269 578 239 591 220 591 c 0
 167 591 121 498 121 435 c 0
EndSplineSet
EndChar

StartChar: ampersand
Encoding: 38 38 7
Width: 727
GlyphClass: 2
Flags: W
HStem: -10 55<548.638 636.738> -10 41<181.533 332.552> 422 20G<550 559 618 633> 634 40<294.895 385.903>
VStem: 45 91<77.9704 244.009> 183 78<453.151 602.745> 406 68<500.605 616.473>
LayerCount: 2
Fore
SplineSet
261 346 m 1x7e
 156 288 136 233 136 160 c 0
 136 60 193 31 258 31 c 0
 331 31 357 67 407 136 c 1
 349 213 272 324 261 346 c 1x7e
300 421 m 1
 366 464 406 520 406 557 c 0
 406 603 381 634 339 634 c 0
 312 634 261 605 261 537 c 0
 261 513 271 468 300 421 c 1
447 197 m 1
 520 305 546 374 554 442 c 1
 564 439 584 439 594 439 c 0
 604 439 628 439 638 442 c 1
 598 373 499 192 476 157 c 1
 511 110 l 2
 543 65 574 45 590 45 c 0
 624 45 648 60 668 100 c 1
 684 92 l 1
 660 20 620 -10 584 -10 c 0xbe
 552 -10 514 -9 466 58 c 2
 436 96 l 1
 389 31 338 -10 251 -10 c 0
 141 -10 45 39 45 170 c 0
 45 244 104 308 239 384 c 1
 200 444 183 496 183 535 c 0
 183 595 242 674 344 674 c 0
 416 674 474 622 474 557 c 0
 474 501 408 429 323 380 c 1
 327 372 l 2
 345 340 400 260 447 197 c 1
EndSplineSet
Substitution2: "'salt' Stylistic Alternatives lookup 24 subtable" ampersand.alt
Substitution2: "'c2sc' Capitals to Small Capitals lookup 15 subtable" ampersand.alt
Substitution2: "'smcp' Lowercase to Small Capitals lookup 8 subtable" ampersand.alt
AlternateSubs2: "'aalt' Access All Alternates lookup 5 subtable" ampersand.alt
EndChar

StartChar: quotesingle
Encoding: 39 39 8
Width: 194
GlyphClass: 2
Flags: W
HStem: 436 223<81 109>
VStem: 54 88<498.508 648.928>
LayerCount: 2
Fore
SplineSet
81 436 m 1
 81 436 54 599 54 608 c 0
 54 631 75 659 106 659 c 0
 133 659 142 642 142 626 c 0
 142 610 109 440 109 440 c 1
 81 436 l 1
EndSplineSet
EndChar

StartChar: parenleft
Encoding: 40 40 9
Width: 307
GlyphClass: 2
Flags: W
VStem: 45 85<100.046 414.729>
LayerCount: 2
Fore
SplineSet
45 258 m 0
 45 448 140 620 262 724 c 1
 286 706 l 1
 253 669 130 527 130 258 c 0
 130 -11 252 -152 286 -191 c 1
 262 -209 l 1
 49 -25 45 212 45 258 c 0
EndSplineSet
Substitution2: "'case' Case-Sensitive Forms lookup 30 subtable" parenleft.sc
Substitution2: "'c2sc' Capitals to Small Capitals lookup 15 subtable" parenleft.sc
Substitution2: "'sinf' Scientific Inferiors lookup 14 subtable" parenleft.inferior
Substitution2: "'sups' Superscript lookup 13 subtable" parenleft.superior
AlternateSubs2: "'aalt' Access All Alternates lookup 5 subtable" parenleft.sc
Substitution2: "'sinf' Scientific Inferiors lookup 4 subtable" parenleft.inferior
Substitution2: "'sups' Superscript lookup 3 subtable" parenleft.superior
EndChar

StartChar: parenright
Encoding: 41 41 10
Width: 307
GlyphClass: 2
Flags: W
VStem: 177 85<101.332 416.015>
LayerCount: 2
Fore
SplineSet
262 258 m 0
 262 68 167 -104 45 -208 c 1
 22 -189 l 1
 55 -152 177 -11 177 258 c 0
 177 527 56 669 22 708 c 1
 45 725 l 1
 258 541 262 304 262 258 c 0
EndSplineSet
Substitution2: "'case' Case-Sensitive Forms lookup 30 subtable" parenright.sc
Substitution2: "'c2sc' Capitals to Small Capitals lookup 15 subtable" parenright.sc
Substitution2: "'sinf' Scientific Inferiors lookup 14 subtable" parenright.inferior
Substitution2: "'sups' Superscript lookup 13 subtable" parenright.superior
AlternateSubs2: "'aalt' Access All Alternates lookup 5 subtable" parenright.sc
Substitution2: "'sinf' Scientific Inferiors lookup 4 subtable" parenright.inferior
Substitution2: "'sups' Superscript lookup 3 subtable" parenright.superior
EndChar

StartChar: asterisk
Encoding: 42 42 11
Width: 443
GlyphClass: 2
Flags: W
HStem: 585 68<80.9506 160.366 279.784 357.957>
VStem: 185 65<612.006 733.149>
LayerCount: 2
Fore
SplineSet
203 581 m 1
 190 584 175 585 160 585 c 0
 110 585 77 592 77 623 c 0
 77 637 86 653 111 653 c 0
 146 653 164 619 209 601 c 1
 205 641 185 668 185 695 c 0
 185 717 198 735 216 735 c 0
 234 735 250 724 250 699 c 0
 250 671 232 631 230 600 c 1
 277 620 294 653 328 653 c 0
 356 653 362 633 362 623 c 0
 362 592 327 585 292 585 c 0
 273 585 254 584 236 581 c 1
 271 543 321 533 321 492 c 0
 321 474 305 462 291 462 c 0
 251 462 244 528 218 568 c 1
 192 522 185 462 146 462 c 0
 129 462 117 475 117 490 c 0
 117 534 169 543 203 581 c 1
EndSplineSet
EndChar

StartChar: plus
Encoding: 43 43 12
Width: 539
GlyphClass: 2
Flags: W
HStem: 213 50<68 244 296 472> 421 20G<244 296>
VStem: 244 52<35 213 263 441>
LayerCount: 2
Fore
SplineSet
296 263 m 1
 472 263 l 1
 472 213 l 1
 296 213 l 1
 296 35 l 1
 244 35 l 1
 244 213 l 1
 68 213 l 1
 68 263 l 1
 244 263 l 1
 244 441 l 1
 296 441 l 1
 296 263 l 1
EndSplineSet
Substitution2: "'sinf' Scientific Inferiors lookup 14 subtable" plus.inferior
Substitution2: "'sups' Superscript lookup 13 subtable" plus.superior
AlternateSubs2: "'aalt' Access All Alternates lookup 5 subtable" plus.superior plus.inferior uni2098
Substitution2: "'sinf' Scientific Inferiors lookup 4 subtable" plus.inferior
Substitution2: "'sups' Superscript lookup 3 subtable" plus.superior
EndChar

StartChar: comma
Encoding: 44 44 13
Width: 225
GlyphClass: 2
Flags: W
HStem: -3 107<68.25 133.288>
VStem: 134 40<-75.5984 30>
LayerCount: 2
Fore
SplineSet
49 45 m 1
 49 49 l 1
 58 76 73 92 104 104 c 1
 109 104 l 1
 146 91 174 63 174 -3 c 0
 174 -87 123 -115 68 -147 c 1
 61 -141 54 -136 54 -126 c 1
 104 -92 134 -64 134 -30 c 0
 134 -5 117 -3 104 -3 c 0
 72 4 58 11 49 45 c 1
EndSplineSet
EndChar

StartChar: hyphen
Encoding: 45 45 14
Width: 340
GlyphClass: 2
Flags: W
HStem: 242 55<37.4167 303.646>
VStem: 34 274<243.139 296.611>
LayerCount: 2
Fore
SplineSet
281 242 m 2
 49 242 l 2
 40 242 34 250 34 259 c 0
 34 275 47 297 59 297 c 2
 294 297 l 2
 304 297 308 288 308 279 c 0
 308 268 294 242 281 242 c 2
EndSplineSet
Substitution2: "'case' Case-Sensitive Forms lookup 30 subtable" hyphen.cap
Substitution2: "'c2sc' Capitals to Small Capitals lookup 15 subtable" hyphen.sc
Substitution2: "'smcp' Lowercase to Small Capitals lookup 8 subtable" hyphen.sc
AlternateSubs2: "'aalt' Access All Alternates lookup 5 subtable" hyphen.sc
Substitution2: "'sinf' Scientific Inferiors lookup 4 subtable" minus.inferior
Substitution2: "'sups' Superscript lookup 3 subtable" minus.superior
EndChar

StartChar: period
Encoding: 46 46 15
Width: 225
GlyphClass: 2
Flags: W
HStem: -10 114<74.75 152.009>
VStem: 55 115<6.14716 84.0638>
LayerCount: 2
Fore
SplineSet
55 45 m 1
 55 49 l 1
 64 76 80 92 111 104 c 1
 115 104 l 1
 145 93 161 78 170 49 c 1
 170 45 l 1
 160 12 144 -3 115 -10 c 1
 111 -10 l 1
 79 -3 64 11 55 45 c 1
EndSplineSet
EndChar

StartChar: slash
Encoding: 47 47 16
Width: 330
GlyphClass: 3
Flags: W
HStem: 642 20G<251.269 300>
VStem: 15 285
LayerCount: 2
Fore
SplineSet
300 662 m 1
 57 -60 l 1
 15 -60 l 1
 258 662 l 1
 300 662 l 1
EndSplineSet
Ligature2: "'frac' Diagonal Fractions lookup 12 subtable" uni2215
AlternateSubs2: "'aalt' Access All Alternates lookup 5 subtable" uni2215
Substitution2: "'sups' Superscript lookup 3 subtable" fraction
EndChar

StartChar: zero
Encoding: 48 48 17
Width: 476
GlyphClass: 2
Flags: W
HStem: -10 40<187.07 281.885> 585 40<191.005 286.647>
VStem: 40 88<144.672 446.843> 343 88<156.663 468.22>
LayerCount: 2
Fore
SplineSet
239 585 m 0
 192 585 128 547 128 294 c 0
 128 205 139 30 234 30 c 0
 252 30 303 40 326 125 c 0
 340 177 343 231 343 325 c 0
 343 462 316 541 284 568 c 0
 273 578 256 585 239 585 c 0
233 -10 m 0
 106 -10 40 130 40 296 c 0
 40 498 137 625 239 625 c 0
 276 625 308 615 336 589 c 0
 373 555 431 476 431 316 c 0
 431 76 312 -10 233 -10 c 0
EndSplineSet
Substitution2: "'zero' Slashed Zero lookup 23 subtable" zero.slash
Substitution2: "'onum' Oldstyle Figures lookup 22 subtable" zero.taboldstyle
Substitution2: "'pnum' Proportional Numbers lookup 21 subtable" zero.fitted
Substitution2: "'sinf' Scientific Inferiors lookup 14 subtable" zero.inferior
Substitution2: "'sups' Superscript lookup 13 subtable" zero.superior
AlternateSubs2: "'aalt' Access All Alternates lookup 5 subtable" zero.oldstyle zero.fitted zero.slash zero.slashfitted perthousandzero
Substitution2: "'sinf' Scientific Inferiors lookup 4 subtable" zero.inferior
Substitution2: "'sups' Superscript lookup 3 subtable" zero.superior
EndChar

StartChar: one
Encoding: 49 49 18
Width: 476
GlyphClass: 2
Flags: W
HStem: -3 21G<244 245 341 343> 509 30<115.566 151.949> 605 20G<301.5 337>
VStem: 252 82<2.85293 524.797>
LayerCount: 2
Fore
SplineSet
334 194 m 2
 334 113 336 61 343 0 c 1
 341 -3 l 1
 341 -3 312 0 292 0 c 0
 274 0 245 -3 245 -3 c 1
 244 0 l 1
 251 58 252 114 252 194 c 2
 252 447 l 2
 252 484 251 525 233 525 c 0
 213 525 163 514 117 509 c 1
 111 539 l 1
 191 564 268 603 335 625 c 0
 339 625 342 625 342 620 c 0
 340 606 334 565 334 454 c 2
 334 194 l 2
EndSplineSet
Substitution2: "'onum' Oldstyle Figures lookup 22 subtable" one.taboldstyle
Substitution2: "'pnum' Proportional Numbers lookup 21 subtable" one.fitted
Substitution2: "'sinf' Scientific Inferiors lookup 14 subtable" one.inferior
Substitution2: "'sups' Superscript lookup 13 subtable" one.superior
AlternateSubs2: "'aalt' Access All Alternates lookup 5 subtable" one.oldstyle one.superior one.fitted
Substitution2: "'sinf' Scientific Inferiors lookup 4 subtable" one.inferior
Substitution2: "'sups' Superscript lookup 3 subtable" one.superior
EndChar

StartChar: two
Encoding: 50 50 19
Width: 476
GlyphClass: 2
Flags: W
HStem: 0 67<166 432.636> 470 21G<90 110> 566 59<149.653 289.375>
VStem: 336 88<372.658 517.752>
LayerCount: 2
Fore
SplineSet
227 566 m 0
 198 566 168 559 148 543 c 0
 122 522 117 501 103 470 c 1
 90 471 l 1
 68 542 l 1
 91 573 151 625 244 625 c 0
 358 625 424 556 424 459 c 0
 424 401 387 336 349 285 c 0
 281 194 234 147 184 99 c 0
 176 92 166 82 166 72 c 0
 166 70 166 69 167 67 c 0
 195 69 214 69 250 69 c 0
 348 69 380 72 438 77 c 1
 434 61 433 46 433 29 c 0
 433 18 434 6 436 -5 c 1
 363 -2 332 0 258 0 c 0
 183 0 140 -3 64 -5 c 1
 59 4 54 20 54 35 c 0
 54 40 55 44 56 48 c 0
 106 96 224 198 297 308 c 0
 324 348 336 402 336 445 c 0
 336 517 281 566 227 566 c 0
EndSplineSet
Substitution2: "'onum' Oldstyle Figures lookup 22 subtable" two.taboldstyle
Substitution2: "'pnum' Proportional Numbers lookup 21 subtable" two.fitted
Substitution2: "'sinf' Scientific Inferiors lookup 14 subtable" two.inferior
Substitution2: "'sups' Superscript lookup 13 subtable" two.superior
AlternateSubs2: "'aalt' Access All Alternates lookup 5 subtable" two.oldstyle two.superior two.fitted
Substitution2: "'sinf' Scientific Inferiors lookup 4 subtable" two.inferior
Substitution2: "'sups' Superscript lookup 3 subtable" two.superior
EndChar

StartChar: three
Encoding: 51 51 20
Width: 476
GlyphClass: 2
Flags: W
HStem: -10 40<139.485 283.786> 307 40<165.655 275.472> 585 40<172.248 288.481>
VStem: 327 89<411.402 547.564> 348 88<99.3311 253.477>
LayerCount: 2
Fore
SplineSet
214 30 m 0xe8
 251 30 348 52 348 176 c 0xe8
 348 216 335 251 308 274 c 0
 279 298 241 307 208 307 c 0
 199 307 177 307 165 305 c 1
 165 350 l 1
 179 348 191 347 203 347 c 0
 238 347 268 357 288 376 c 0
 312 399 327 431 327 476 c 0
 327 543 282 585 242 585 c 0
 181 585 148 555 123 498 c 1
 108 499 l 1
 86 564 l 1
 89 567 l 2
 115 590 172 625 251 625 c 0
 352 625 416 566 416 492 c 0xf0
 416 407 348 347 295 335 c 1
 295 330 l 1
 374 323 436 265 436 184 c 0
 436 49 299 -10 212 -10 c 0
 130 -10 86 16 59 39 c 2
 56 42 l 1
 79 119 l 1
 94 120 l 1
 122 61 133 30 214 30 c 0xe8
EndSplineSet
Substitution2: "'onum' Oldstyle Figures lookup 22 subtable" three.taboldstyle
Substitution2: "'pnum' Proportional Numbers lookup 21 subtable" three.fitted
Substitution2: "'sinf' Scientific Inferiors lookup 14 subtable" three.inferior
Substitution2: "'sups' Superscript lookup 13 subtable" three.superior
AlternateSubs2: "'aalt' Access All Alternates lookup 5 subtable" three.oldstyle three.superior three.fitted
Substitution2: "'sinf' Scientific Inferiors lookup 4 subtable" three.inferior
Substitution2: "'sups' Superscript lookup 3 subtable" three.superior
EndChar

StartChar: four
Encoding: 52 52 21
Width: 476
GlyphClass: 2
Flags: W
HStem: -3 21G<285 286 372.5 377.5> 152 51<85 293 373 450.241> 598 20G<302 302 372.5 377.5>
VStem: 293 80<2.41513 152 203 524 575.768 615>
LayerCount: 2
Fore
SplineSet
293 152 m 1
 82 152 l 2
 45 152 22 157 22 172 c 0
 22 182 25 194 35 212 c 0
 88 303 236 528 298 614 c 0
 298 615 302 618 302 618 c 1
 302 618 321 614 337 614 c 0
 352 614 368 618 377 618 c 0
 378 618 379 616 379 614 c 0
 374 567 373 497 373 463 c 2
 373 203 l 1
 438 203 l 2
 448 203 454 195 454 186 c 0
 454 175 438 152 424 152 c 2
 373 152 l 1
 373 93 375 59 379 0 c 0
 379 -1 378 -3 377 -3 c 0
 368 -3 350 0 334 0 c 0
 318 0 286 -3 286 -3 c 1
 285 0 l 1
 291 52 293 73 293 152 c 1
293 524 m 1
 85 203 l 1
 293 203 l 1
 293 524 l 1
EndSplineSet
Substitution2: "'onum' Oldstyle Figures lookup 22 subtable" four.taboldstyle
Substitution2: "'pnum' Proportional Numbers lookup 21 subtable" four.fitted
Substitution2: "'sinf' Scientific Inferiors lookup 14 subtable" four.inferior
Substitution2: "'sups' Superscript lookup 13 subtable" four.superior
AlternateSubs2: "'aalt' Access All Alternates lookup 5 subtable" four.oldstyle four.superior four.fitted
Substitution2: "'sinf' Scientific Inferiors lookup 4 subtable" four.inferior
Substitution2: "'sups' Superscript lookup 3 subtable" four.superior
EndChar

StartChar: five
Encoding: 53 53 22
Width: 476
GlyphClass: 2
Flags: W
HStem: -10 41<140.53 271.825> 348 41<124.37 269.994> 546 68<143.389 382.802> 552 73<143.508 221.214 225.533 271.753 275.456 382>
VStem: 326 90<102.924 288.036>
LayerCount: 2
Fore
SplineSet
207 -10 m 0xe8
 129 -10 78 24 52 47 c 2
 48 50 l 1
 71 132 l 1
 85 133 l 1
 119 72 132 31 209 31 c 0
 279 31 326 89 326 183 c 0
 326 295 275 348 208 348 c 0
 160 348 122 332 81 316 c 1
 74 319 l 1
 106 621 l 1
 141 618 185 614 223 614 c 0xe8
 277 614 333 618 391 625 c 1
 398 622 l 1
 382 552 l 1xd8
 340 547 305 546 274 546 c 0
 226 546 182 550 144 555 c 1
 123 374 l 1
 146 382 192 389 234 389 c 0
 349 389 416 300 416 201 c 0
 416 80 329 -10 207 -10 c 0xe8
EndSplineSet
Substitution2: "'onum' Oldstyle Figures lookup 22 subtable" five.taboldstyle
Substitution2: "'pnum' Proportional Numbers lookup 21 subtable" five.fitted
Substitution2: "'sinf' Scientific Inferiors lookup 14 subtable" five.inferior
Substitution2: "'sups' Superscript lookup 13 subtable" five.superior
AlternateSubs2: "'aalt' Access All Alternates lookup 5 subtable" five.oldstyle five.superior five.fitted
Substitution2: "'sinf' Scientific Inferiors lookup 4 subtable" five.inferior
Substitution2: "'sups' Superscript lookup 3 subtable" five.superior
EndChar

StartChar: six
Encoding: 54 54 23
Width: 476
GlyphClass: 2
Flags: W
HStem: -9 37<201.439 311.99> 326 41<177.366 298.71> 597 29<335.24 407.742>
VStem: 47 82<116.388 332.005> 352 90<89.801 272.129>
LayerCount: 2
Fore
SplineSet
130 284 m 1
 129 274 129 256 129 246 c 0
 129 64 207 28 261 28 c 0
 310 28 352 64 352 177 c 0
 352 227 336 326 233 326 c 0
 210 326 170 325 130 284 c 1
410 597 m 1
 339 590 281 571 229 521 c 0
 180 473 143 400 132 313 c 1
 157 344 214 367 255 367 c 0
 415 367 442 233 442 184 c 0
 442 110 400 -9 250 -9 c 0
 171 -9 47 34 47 249 c 0
 47 348 82 445 157 520 c 0
 227 591 302 620 407 626 c 1
 410 597 l 1
EndSplineSet
Substitution2: "'onum' Oldstyle Figures lookup 22 subtable" six.taboldstyle
Substitution2: "'pnum' Proportional Numbers lookup 21 subtable" six.fitted
Substitution2: "'sinf' Scientific Inferiors lookup 14 subtable" six.inferior
Substitution2: "'sups' Superscript lookup 13 subtable" six.superior
AlternateSubs2: "'aalt' Access All Alternates lookup 5 subtable" six.oldstyle six.superior six.fitted
Substitution2: "'sinf' Scientific Inferiors lookup 4 subtable" six.inferior
Substitution2: "'sups' Superscript lookup 3 subtable" six.superior
EndChar

StartChar: seven
Encoding: 55 55 24
Width: 476
GlyphClass: 2
Flags: W
HStem: -13 21G<127 205> 538 76<109.203 352.491> 602 20G<66 87 409.5 434>
LayerCount: 2
Fore
SplineSet
353 538 m 1xc0
 286 540 140 539 65 528 c 1
 67 543 70 564 70 579 c 0
 70 594 67 607 65 622 c 1xa0
 109 616 198 614 351 614 c 0
 383 614 402 620 417 625 c 1
 434 614 l 1
 319 334 263 165 205 -9 c 1
 130 -13 l 1
 127 -7 l 1
 196 147 273 340 353 538 c 1xc0
EndSplineSet
Substitution2: "'onum' Oldstyle Figures lookup 22 subtable" seven.taboldstyle
Substitution2: "'pnum' Proportional Numbers lookup 21 subtable" seven.fitted
Substitution2: "'sinf' Scientific Inferiors lookup 14 subtable" seven.inferior
Substitution2: "'sups' Superscript lookup 13 subtable" seven.superior
AlternateSubs2: "'aalt' Access All Alternates lookup 5 subtable" seven.oldstyle seven.superior seven.fitted
Substitution2: "'sinf' Scientific Inferiors lookup 4 subtable" seven.inferior
Substitution2: "'sups' Superscript lookup 3 subtable" seven.superior
EndChar

StartChar: eight
Encoding: 56 56 25
Width: 476
GlyphClass: 2
Flags: W
HStem: -9 34<175.88 300.595> 591 34<182.736 299.3>
VStem: 40 80<73.2384 218.18> 69 76<434.874 554.183> 332 76<434.653 564.471> 353 85<90.3016 214.501>
LayerCount: 2
Fore
SplineSet
241 591 m 0xd8
 180 591 145 551 145 503 c 0
 145 471 152 433 217 391 c 2
 249 373 l 1
 278 393 332 443 332 498 c 0
 332 546 308 591 241 591 c 0xd8
408 497 m 0
 408 431 333 379 287 348 c 1
 349 307 l 2
 405 270 438 225 438 166 c 0
 438 88 365 -9 231 -9 c 0
 122 -9 40 46 40 150 c 0xe4
 40 190 66 235 108 272 c 0
 134 295 153 312 179 331 c 1
 159 342 l 2
 101 376 69 427 69 484 c 0
 69 563 143 625 247 625 c 0
 348 625 408 571 408 497 c 0
233 25 m 0
 280 25 353 45 353 144 c 0
 353 192 326 238 263 278 c 2
 216 307 l 1
 128 249 120 181 120 150 c 0
 120 58 186 25 233 25 c 0
EndSplineSet
Substitution2: "'onum' Oldstyle Figures lookup 22 subtable" eight.taboldstyle
Substitution2: "'pnum' Proportional Numbers lookup 21 subtable" eight.fitted
Substitution2: "'sinf' Scientific Inferiors lookup 14 subtable" eight.inferior
Substitution2: "'sups' Superscript lookup 13 subtable" eight.superior
AlternateSubs2: "'aalt' Access All Alternates lookup 5 subtable" eight.oldstyle eight.superior eight.fitted
Substitution2: "'sinf' Scientific Inferiors lookup 4 subtable" eight.inferior
Substitution2: "'sups' Superscript lookup 3 subtable" eight.superior
EndChar

StartChar: nine
Encoding: 57 57 26
Width: 476
GlyphClass: 2
Flags: W
HStem: -11 28<63.976 134.067> 248 41<172.29 294.508> 587 37<161.808 269.561>
VStem: 29 90<342.313 524.483> 342 82<282.78 498.612>
LayerCount: 2
Fore
SplineSet
341 331 m 1
 342 341 342 359 342 369 c 0
 342 551 264 587 210 587 c 0
 161 587 119 550 119 437 c 0
 119 387 135 289 238 289 c 0
 261 289 301 290 341 331 c 1
61 17 m 1
 132 24 190 43 242 93 c 0
 291 141 328 214 339 301 c 1
 314 270 257 248 216 248 c 0
 56 248 29 381 29 430 c 0
 29 504 71 624 221 624 c 0
 300 624 424 581 424 366 c 0
 424 267 389 169 314 94 c 0
 244 23 170 -5 65 -11 c 1
 61 17 l 1
EndSplineSet
Substitution2: "'onum' Oldstyle Figures lookup 22 subtable" nine.taboldstyle
Substitution2: "'pnum' Proportional Numbers lookup 21 subtable" nine.fitted
Substitution2: "'sinf' Scientific Inferiors lookup 14 subtable" nine.inferior
Substitution2: "'sups' Superscript lookup 13 subtable" nine.superior
AlternateSubs2: "'aalt' Access All Alternates lookup 5 subtable" nine.oldstyle nine.superior nine.fitted
Substitution2: "'sinf' Scientific Inferiors lookup 4 subtable" nine.inferior
Substitution2: "'sups' Superscript lookup 3 subtable" nine.superior
EndChar

StartChar: colon
Encoding: 58 58 27
Width: 225
GlyphClass: 2
Flags: W
HStem: 40 115<82.2155 158.199> 309 115<81.75 159.009>
VStem: 62 115<56.1472 134.587 325.6 404.064>
LayerCount: 2
Fore
SplineSet
62 365 m 1
 62 369 l 1
 71 396 87 412 118 424 c 1
 122 424 l 1
 152 413 168 398 177 369 c 1
 177 365 l 1
 167 332 151 316 122 309 c 1
 118 309 l 1
 86 316 71 331 62 365 c 1
62 95 m 1
 62 99 l 1
 71 126 87 143 118 155 c 1
 122 155 l 1
 152 144 168 128 177 99 c 1
 177 95 l 1
 167 62 151 47 122 40 c 1
 118 40 l 1
 86 47 71 61 62 95 c 1
EndSplineSet
EndChar

StartChar: semicolon
Encoding: 59 59 28
Width: 225
GlyphClass: 2
Flags: W
HStem: -3 107<68.25 133.288> 309 115<71.75 149.009>
VStem: 52 115<6.81245 82.9516 325.6 404.064> 134 40<-75.5984 29.6484>
LayerCount: 2
Fore
SplineSet
52 365 m 1xe0
 52 369 l 1
 61 396 77 412 108 424 c 1
 112 424 l 1
 142 413 158 398 167 369 c 1
 167 365 l 1
 157 332 141 316 112 309 c 1
 108 309 l 1
 76 316 61 331 52 365 c 1xe0
49 45 m 1
 49 49 l 1
 58 76 73 92 104 104 c 1
 109 104 l 1
 146 91 174 63 174 -3 c 0
 174 -87 123 -115 68 -147 c 1
 61 -141 54 -136 54 -126 c 1
 104 -92 134 -64 134 -30 c 0xd0
 134 -5 117 -3 104 -3 c 0
 72 4 58 11 49 45 c 1
EndSplineSet
EndChar

StartChar: less
Encoding: 60 60 29
Width: 498
GlyphClass: 2
Flags: W
HStem: 75 339
LayerCount: 2
Fore
SplineSet
125 245 m 1
 450 126 l 1
 450 75 l 1
 50 220 l 1
 50 269 l 1
 450 414 l 1
 450 362 l 1
 125 245 l 1
EndSplineSet
EndChar

StartChar: equal
Encoding: 61 61 30
Width: 539
GlyphClass: 2
Flags: W
HStem: 147 51<68 472> 275 51<68 472>
LayerCount: 2
Fore
SplineSet
472 326 m 1
 472 275 l 1
 68 275 l 1
 68 326 l 1
 472 326 l 1
472 198 m 1
 472 147 l 1
 68 147 l 1
 68 198 l 1
 472 198 l 1
EndSplineSet
Substitution2: "'sinf' Scientific Inferiors lookup 14 subtable" equal.inferior
Substitution2: "'sups' Superscript lookup 13 subtable" equal.superior
AlternateSubs2: "'aalt' Access All Alternates lookup 5 subtable" equal.superior
Substitution2: "'sinf' Scientific Inferiors lookup 4 subtable" equal.inferior
Substitution2: "'sups' Superscript lookup 3 subtable" equal.superior
EndChar

StartChar: greater
Encoding: 62 62 31
Width: 498
GlyphClass: 2
Flags: W
HStem: 73 339
LayerCount: 2
Fore
SplineSet
375 242 m 1
 50 360 l 1
 50 412 l 1
 450 266 l 1
 450 217 l 1
 50 73 l 1
 50 124 l 1
 375 242 l 1
EndSplineSet
EndChar

StartChar: question
Encoding: 63 63 32
Width: 414
GlyphClass: 2
Flags: W
HStem: -10 114<146.25 223.555> 634 41<140.366 256.12>
VStem: 127 115<6.93917 84.5724> 171 27<178.009 296.474> 301 77<442.555 591.121>
LayerCount: 2
Fore
SplineSet
200 634 m 0xd8
 143 634 101 584 74 538 c 1
 60 539 l 1
 44 607 l 1
 47 611 l 1
 72 632 135 675 209 675 c 0
 313 675 378 613 378 520 c 0
 378 439 317 394 269 359 c 0
 245 342 225 325 216 308 c 0
 203 282 198 258 198 233 c 2
 198 188 l 2
 198 181 192 178 184 178 c 0
 176 178 171 181 171 188 c 2
 171 236 l 2
 171 280 173 340 240 400 c 0
 281 438 301 468 301 516 c 0
 301 583 258 634 200 634 c 0xd8
127 45 m 1xe8
 127 49 l 1
 136 76 151 92 182 104 c 1
 186 104 l 1
 216 93 233 78 242 49 c 1
 242 45 l 1
 232 12 215 -3 186 -10 c 1
 182 -10 l 1
 150 -3 136 11 127 45 c 1xe8
EndSplineSet
EndChar

StartChar: at
Encoding: 64 64 33
Width: 916
GlyphClass: 2
Flags: W
HStem: -162 34<375.358 582.856> 28 35<549 682.084> 30 42<376.589 463.87> 388 32<459.867 561.035> 595 31<371.493 559.243>
VStem: 60 82<109.314 353.324> 280 74<93.2414 260.156> 527 70<63.3019 157.025> 778 81<181.807 398.059>
LayerCount: 2
Fore
SplineSet
583 324 m 0xbf80
 583 363 553 388 516 388 c 0
 499 388 455 379 424 347 c 0
 372 295 354 229 354 166 c 0
 354 117 369 72 434 72 c 0
 470 72 520 130 552 205 c 0
 565 237 583 289 583 324 c 0xbf80
597 76 m 0
 597 66 606 63 608 63 c 0
 712 63 778 112 778 282 c 0
 778 493 598 595 470 595 c 0
 314 595 142 490 142 247 c 0
 142 93 220 -128 484 -128 c 0
 571 -128 635 -104 690 -60 c 1
 703 -79 l 1
 642 -126 581 -162 465 -162 c 0
 220 -162 60 10 60 228 c 0
 60 448 250 626 480 626 c 0
 700 626 859 480 859 289 c 0
 859 172 787 28 564 28 c 0xdf80
 534 28 527 54 527 70 c 0
 527 85 535 108 543 134 c 1
 541 135 l 1
 496 59 440 30 404 30 c 0
 302 30 280 116 280 157 c 0
 280 303 409 420 518 420 c 0
 552 420 587 403 597 376 c 1
 602 400 l 1
 656 414 l 1
 672 409 l 1
 610 144 l 2
 604 116 597 83 597 76 c 0
EndSplineSet
EndChar

StartChar: A
Encoding: 65 65 34
Width: 644
GlyphClass: 2
Flags: W
HStem: -3 21G<22 67.5 92 106.5 512 523.5 602.5 619.5> 237 43<203 417> 654 20G<269 394>
VStem: 16 82<-3 39.3528>
AnchorPoint: "Anchor-5" 330 717 basechar 0
AnchorPoint: "Anchor-4" 330 817 basechar 0
AnchorPoint: "Anchor-3" 276 -111 basechar 0
AnchorPoint: "Anchor-2" 59 8 basechar 0
LayerCount: 2
Fore
SplineSet
417 282 m 1
 389 353 355 437 313 534 c 1
 311 534 l 1
 203 283 l 1
 226 282 280 280 310 280 c 0
 340 280 383 280 417 282 c 1
183 234 m 1
 146 144 115 60 98 -3 c 1
 86 0 63 0 52 0 c 0
 41 0 28 0 16 -3 c 1
 119 223 220 447 318 674 c 1
 347 674 l 1
 441 450 577 100 628 -3 c 1
 611 0 583 0 566 0 c 0
 549 0 532 0 515 -3 c 1
 509 20 486 100 436 234 c 1
 411 236 354 237 315 237 c 0
 280 237 209 236 183 234 c 1
EndSplineSet
Substitution2: "'c2sc' Capitals to Small Capitals lookup 15 subtable" a.sc
Position2: "'cpsp' Capital Spacing lookup 0 subtable" dx=5 dy=0 dh=10 dv=0
EndChar

StartChar: B
Encoding: 66 66 35
Width: 630
GlyphClass: 2
Flags: W
HStem: -3 44<204.357 412.193> 336 44<195 372.228> 620 44<199.852 365.92>
VStem: 106 89<53.3773 336 380 611.509> 418 89<435.377 573.172> 466 101<97.0122 258.256>
AnchorPoint: "Anchor-5" 296 717 basechar 0
AnchorPoint: "Anchor-4" 289 817 basechar 0
AnchorPoint: "Anchor-3" 282 -111 basechar 0
AnchorPoint: "Anchor-2" 263 0 basechar 0
LayerCount: 2
Fore
SplineSet
195 572 m 2xf8
 195 380 l 1
 274 380 l 2
 359 380 418 406 418 493 c 0
 418 597 345 620 288 620 c 0
 205 620 195 606 195 572 c 2xf8
195 336 m 1
 195 90 l 2
 195 56 222 41 294 41 c 0
 442 41 466 98 466 169 c 0xf4
 466 261 410 336 290 336 c 2
 195 336 l 1
151 660 m 0
 202 660 245 664 281 664 c 0
 471 664 507 574 507 505 c 0xf8
 507 449 464 395 412 369 c 1
 501 343 567 286 567 188 c 0
 567 100 517 -3 313 -3 c 0
 222 -3 214 0 151 0 c 0
 115 0 97 -3 97 -3 c 1
 96 0 l 1
 104 55 106 128 106 205 c 2
 106 456 l 2
 106 533 104 602 96 660 c 1
 98 664 l 1
 98 664 116 660 151 660 c 0
EndSplineSet
Substitution2: "'c2sc' Capitals to Small Capitals lookup 15 subtable" b.sc
Position2: "'cpsp' Capital Spacing lookup 0 subtable" dx=5 dy=0 dh=10 dv=0
EndChar

StartChar: C
Encoding: 67 67 36
Width: 693
GlyphClass: 2
Flags: W
HStem: -10 52<298.567 503.219> 626 48<292.978 483.106>
VStem: 53 106<212.844 446.198>
AnchorPoint: "Anchor-5" 380 717 basechar 0
AnchorPoint: "Anchor-4" 380 817 basechar 0
AnchorPoint: "Anchor-3" 394 -113 basechar 0
AnchorPoint: "Anchor-2" 386 -7 basechar 0
LayerCount: 2
Fore
SplineSet
389 674 m 0
 514 674 612 623 612 623 c 1
 614 620 l 1
 603 576 600 558 596 506 c 1
 584 505 l 1
 542 589 467 626 375 626 c 0
 291 626 159 550 159 342 c 0
 159 182 254 42 384 42 c 0
 479 42 540 68 613 148 c 1
 621 145 l 1
 625 136 626 114 627 102 c 1
 559 19 470 -10 375 -10 c 0
 155 -10 53 146 53 323 c 0
 53 525 216 674 389 674 c 0
EndSplineSet
Substitution2: "'c2sc' Capitals to Small Capitals lookup 15 subtable" c.sc
Position2: "'cpsp' Capital Spacing lookup 0 subtable" dx=5 dy=0 dh=10 dv=0
EndChar

StartChar: D
Encoding: 68 68 37
Width: 727
GlyphClass: 2
Flags: W
HStem: -2 45<197.817 444.07> 618 46<199.272 399.465>
VStem: 106 89<50.3663 608.519> 568 106<183.96 431.907>
AnchorPoint: "Anchor-5" 316 717 basechar 0
AnchorPoint: "Anchor-4" 316 817 basechar 0
AnchorPoint: "Anchor-3" 289 -110 basechar 0
AnchorPoint: "Anchor-2" 289 4 basechar 0
LayerCount: 2
Fore
SplineSet
195 84 m 2
 195 51 206 43 306 43 c 0
 450 43 568 84 568 291 c 0
 568 449 502 618 281 618 c 0
 231 618 195 614 195 578 c 2
 195 84 l 2
151 660 m 0
 217 660 253 664 319 664 c 0
 516 664 674 505 674 315 c 0
 674 63 482 -2 338 -2 c 0
 233 -2 224 0 151 0 c 0
 115 0 97 -3 97 -3 c 1
 96 0 l 1
 104 55 106 128 106 205 c 2
 106 456 l 2
 106 533 104 602 96 660 c 1
 98 664 l 1
 98 664 116 660 151 660 c 0
EndSplineSet
Substitution2: "'c2sc' Capitals to Small Capitals lookup 15 subtable" d.sc
Position2: "'cpsp' Capital Spacing lookup 0 subtable" dx=5 dy=0 dh=10 dv=0
EndChar

StartChar: E
Encoding: 69 69 38
Width: 550
GlyphClass: 2
Flags: W
HStem: 0 57<199.662 427.939> 325 51<195 414.639> 603 57<199.662 429.162>
VStem: 106 89<59.46 325 376 601.77>
AnchorPoint: "Anchor-5" 291 717 basechar 0
AnchorPoint: "Anchor-4" 294 824 basechar 0
AnchorPoint: "Anchor-3" 290 -110 basechar 0
AnchorPoint: "Anchor-2" 290 4 basechar 0
LayerCount: 2
Fore
SplineSet
195 205 m 2
 195 188 196 82 203 57 c 1
 340 57 492 70 492 70 c 1
 494 66 l 1
 493 58 492 42 492 32 c 0
 492 22 493 14 494 0 c 1
 492 -3 l 1
 476 -1 452 0 430 0 c 2
 151 0 l 2
 115 0 97 -3 97 -3 c 1
 96 0 l 1
 104 55 106 128 106 205 c 2
 106 456 l 2
 106 533 104 602 96 660 c 1
 98 664 l 1
 98 664 116 660 151 660 c 2
 420 660 l 2
 442 660 465 662 481 664 c 1
 483 660 l 1
 482 646 481 630 481 622 c 0
 481 613 482 603 483 595 c 1
 481 591 l 1
 481 591 340 603 203 603 c 1
 196 578 195 473 195 456 c 2
 195 376 l 1
 316 376 363 381 423 386 c 1
 426 383 l 1
 424 374 423 359 423 350 c 0
 423 341 424 326 426 317 c 1
 423 314 l 1
 352 321 244 325 195 325 c 1
 195 205 l 2
EndSplineSet
Substitution2: "'c2sc' Capitals to Small Capitals lookup 15 subtable" e.sc
Position2: "'cpsp' Capital Spacing lookup 0 subtable" dx=5 dy=0 dh=10 dv=0
EndChar

StartChar: F
Encoding: 70 70 39
Width: 516
GlyphClass: 2
Flags: W
HStem: -3 21G<96 97 203 205> 325 51<195 414.639> 603 57<199.662 429.162>
VStem: 106 89<2.72752 325 376 601.77>
AnchorPoint: "Anchor-5" 300 717 basechar 0
AnchorPoint: "Anchor-4" 299 817 basechar 0
AnchorPoint: "Anchor-3" 212 -114 basechar 0
AnchorPoint: "Anchor-2" 155 -1 basechar 0
LayerCount: 2
Fore
SplineSet
417 660 m 2
 442 660 465 662 481 664 c 1
 483 660 l 1
 482 646 481 634 481 626 c 0
 481 617 482 603 483 595 c 1
 481 591 l 1
 481 591 340 603 203 603 c 1
 196 578 195 473 195 456 c 2
 195 376 l 1
 316 376 363 381 423 386 c 1
 426 383 l 1
 424 374 423 359 423 350 c 0
 423 341 424 326 426 317 c 1
 423 314 l 1
 352 321 244 325 195 325 c 1
 195 205 l 2
 195 128 197 58 205 0 c 1
 203 -3 l 1
 203 -3 186 0 151 0 c 0
 115 0 97 -3 97 -3 c 1
 96 0 l 1
 104 55 106 128 106 205 c 2
 106 456 l 2
 106 533 104 602 96 660 c 1
 98 664 l 1
 98 664 116 660 151 660 c 2
 417 660 l 2
EndSplineSet
Substitution2: "'c2sc' Capitals to Small Capitals lookup 15 subtable" f.sc
Position2: "'cpsp' Capital Spacing lookup 0 subtable" dx=5 dy=0 dh=10 dv=0
EndChar

StartChar: G
Encoding: 71 71 40
Width: 734
GlyphClass: 2
Flags: W
HStem: -10 45<308.518 532.044> 629 45<302.666 495.794>
VStem: 53 106<205.533 449.535> 559 98<66.3286 311.28> 559 88<85.5272 311.28>
AnchorPoint: "Anchor-5" 388 717 basechar 0
AnchorPoint: "Anchor-4" 388 817 basechar 0
AnchorPoint: "Anchor-3" 390 -114 basechar 0
AnchorPoint: "Anchor-2" 380 2 basechar 0
LayerCount: 2
Fore
SplineSet
559 120 m 2xf0
 559 197 557 256 549 314 c 1
 551 317 l 1
 551 317 568 314 603 314 c 0
 639 314 656 317 656 317 c 1
 657 314 l 1xf0
 649 260 647 217 647 140 c 2
 647 134 l 2xe8
 647 123 648 96 657 85 c 1
 657 82 l 1
 588 24 504 -10 385 -10 c 0
 179 -10 53 148 53 325 c 0
 53 550 235 674 411 674 c 0
 536 674 644 623 644 623 c 1
 646 620 l 1
 635 581 630 553 626 501 c 1
 613 500 l 1
 567 578 488 629 396 629 c 0
 258 629 159 514 159 335 c 0
 159 200 227 35 409 35 c 0
 464 35 524 41 559 74 c 1
 559 120 l 2xf0
EndSplineSet
Substitution2: "'c2sc' Capitals to Small Capitals lookup 15 subtable" g.sc
Position2: "'cpsp' Capital Spacing lookup 0 subtable" dx=5 dy=0 dh=10 dv=0
EndChar

StartChar: H
Encoding: 72 72 41
Width: 743
GlyphClass: 2
Flags: W
HStem: -3 21G<96 103 197 205 539 546 639 647> 329 45<195 549> 644 20G<96 104 198 205 539 547 640 647>
VStem: 106 89<2.72752 329 374 657.273> 549 88<2.72752 329 374 657.273>
AnchorPoint: "Anchor-5" 362 717 basechar 0
AnchorPoint: "Anchor-4" 362 817 basechar 0
AnchorPoint: "Anchor-3" 361 -110 basechar 0
AnchorPoint: "Anchor-2" 153 0 basechar 0
LayerCount: 2
Fore
SplineSet
549 456 m 2
 549 533 547 602 539 660 c 1
 541 664 l 1
 553 662 581 660 593 660 c 0
 605 660 634 662 646 664 c 1
 647 660 l 1
 639 606 637 533 637 456 c 2
 637 205 l 2
 637 128 639 58 647 0 c 1
 645 -3 l 1
 633 -1 605 0 593 0 c 0
 581 0 552 -1 540 -3 c 1
 539 0 l 1
 547 55 549 128 549 205 c 2
 549 329 l 1
 195 329 l 1
 195 205 l 2
 195 128 197 58 205 0 c 1
 203 -3 l 1
 191 -1 163 0 151 0 c 0
 139 0 109 -1 97 -3 c 1
 96 0 l 1
 104 55 106 128 106 205 c 2
 106 456 l 2
 106 533 104 602 96 660 c 1
 98 664 l 1
 110 662 139 660 151 660 c 0
 163 660 192 662 204 664 c 1
 205 660 l 1
 197 606 195 533 195 456 c 2
 195 374 l 1
 549 374 l 1
 549 456 l 2
EndSplineSet
Substitution2: "'c2sc' Capitals to Small Capitals lookup 15 subtable" h.sc
Position2: "'cpsp' Capital Spacing lookup 0 subtable" dx=5 dy=0 dh=10 dv=0
EndChar

StartChar: I
Encoding: 73 73 42
Width: 301
GlyphClass: 2
Flags: W
HStem: -3 21G<96 104 197 205> 644 20G<96 104 197 205>
VStem: 106 89<2.72752 657.273>
AnchorPoint: "Anchor-5" 129 627 basechar 0
AnchorPoint: "Anchor-4" 129 715 basechar 0
AnchorPoint: "Anchor-3" 128 -97 basechar 0
AnchorPoint: "Anchor-2" 128 0 basechar 0
LayerCount: 2
Fore
SplineSet
106 456 m 2
 106 533 104 602 96 660 c 1
 98 664 l 1
 110 662 139 660 151 660 c 0
 163 660 191 662 203 664 c 1
 205 660 l 1
 197 606 195 533 195 456 c 2
 195 205 l 2
 195 128 197 58 205 0 c 1
 203 -3 l 1
 191 -1 163 0 151 0 c 0
 139 0 110 -1 98 -3 c 1
 96 0 l 1
 104 55 106 128 106 205 c 2
 106 456 l 2
EndSplineSet
Substitution2: "'c2sc' Capitals to Small Capitals lookup 15 subtable" i.sc
Position2: "'cpsp' Capital Spacing lookup 0 subtable" dx=5 dy=0 dh=10 dv=0
EndChar

StartChar: J
Encoding: 74 74 43
Width: 327
GlyphClass: 2
Flags: W
HStem: -176 61<-12.4803 102.057> 644 20G<133 141 235 242>
VStem: 143 88<-30.727 657.273>
AnchorPoint: "Anchor-5" 185 740 basechar 0
AnchorPoint: "Anchor-4" 186 825 basechar 0
LayerCount: 2
Fore
SplineSet
143 97 m 2
 143 456 l 2
 143 533 141 602 133 660 c 1
 135 664 l 1
 147 662 175 660 187 660 c 0
 199 660 229 662 241 664 c 1
 242 660 l 1
 234 606 231 533 231 456 c 2
 231 120 l 2
 231 3 221 -27 167 -98 c 0
 124 -153 70 -176 5 -176 c 0
 -14 -176 -33 -172 -41 -167 c 1
 -42 -164 l 1
 -31 -145 -20 -108 -13 -80 c 1
 -2 -79 l 1
 9 -99 27 -115 57 -115 c 0
 138 -115 143 7 143 97 c 2
EndSplineSet
Substitution2: "'ss02' Style Set 2 lookup 27 subtable" J.alt
Substitution2: "'c2sc' Capitals to Small Capitals lookup 15 subtable" j.sc
Position2: "'cpsp' Capital Spacing lookup 0 subtable" dx=5 dy=0 dh=10 dv=0
EndChar

StartChar: K
Encoding: 75 75 44
Width: 644
GlyphClass: 2
Flags: W
HStem: -3 21G<96 104 197 205 449 503.5 604.259 612.5> 644 20G<96 104 197 205 463.5 515.5 566 603>
VStem: 106 89<2.72752 337 352 657.273>
AnchorPoint: "Anchor-5" 343 736 basechar 0
AnchorPoint: "Anchor-4" 344 817 basechar 0
AnchorPoint: "Anchor-3" 350 -112 basechar 0
AnchorPoint: "Anchor-2" 152 -1 basechar 0
LayerCount: 2
Fore
SplineSet
106 456 m 2
 106 533 104 602 96 660 c 1
 98 664 l 1
 110 662 139 660 151 660 c 0
 163 660 191 662 203 664 c 1
 205 660 l 1
 197 606 195 533 195 456 c 2
 195 352 l 1
 200 353 210 355 217 361 c 0
 307 440 418 560 509 664 c 1
 522 661 546 660 559 660 c 0
 574 660 595 661 611 664 c 1
 521 585 370 443 300 362 c 1
 300 360 l 1
 622 -3 l 1
 603 0 577 0 558 0 c 0
 541 0 512 0 495 -3 c 1
 403 111 256 288 214 330 c 0
 209 334 200 336 195 337 c 1
 195 205 l 2
 195 128 197 58 205 0 c 1
 203 -3 l 1
 191 -1 163 0 151 0 c 0
 139 0 110 -1 98 -3 c 1
 96 0 l 1
 104 55 106 128 106 205 c 2
 106 456 l 2
EndSplineSet
Substitution2: "'ss02' Style Set 2 lookup 27 subtable" K.alt
Substitution2: "'c2sc' Capitals to Small Capitals lookup 15 subtable" k.sc
AlternateSubs2: "'aalt' Access All Alternates lookup 5 subtable" K.alt k.sc
Position2: "'cpsp' Capital Spacing lookup 0 subtable" dx=5 dy=0 dh=10 dv=0
EndChar

StartChar: L
Encoding: 76 76 45
Width: 527
GlyphClass: 2
Flags: W
HStem: 0 62<200.662 433.374> 644 20G<97 105 199 206>
VStem: 108 88<63.2269 657.273>
AnchorPoint: "Anchor-5" 154 738 basechar 0
AnchorPoint: "Anchor-4" 155 823 basechar 0
AnchorPoint: "Anchor-3" 268 -113 basechar 0
AnchorPoint: "Anchor-2" 268 1 basechar 0
LayerCount: 2
Fore
SplineSet
196 456 m 2
 196 205 l 2
 196 188 197 87 204 62 c 1
 341 62 493 85 493 85 c 1
 495 81 l 1
 494 73 493 55 493 45 c 0
 493 35 494 14 495 0 c 1
 493 -3 l 1
 477 -1 453 0 431 0 c 2
 152 0 l 2
 117 0 98 -3 98 -3 c 1
 97 0 l 1
 105 55 108 128 108 205 c 2
 108 456 l 2
 108 533 105 602 97 660 c 1
 99 664 l 1
 111 662 140 660 152 660 c 0
 164 660 193 662 205 664 c 1
 206 660 l 1
 198 606 196 533 196 456 c 2
EndSplineSet
Substitution2: "'c2sc' Capitals to Small Capitals lookup 15 subtable" l.sc
Position2: "'cpsp' Capital Spacing lookup 0 subtable" dx=5 dy=0 dh=10 dv=0
EndChar

StartChar: M
Encoding: 77 77 46
Width: 907
GlyphClass: 2
Flags: W
HStem: -3 21G<71.5 86 124.5 137.5 392 481 724.5 739.5 821.5 832.5>
VStem: 732 108<-3 129.861>
AnchorPoint: "Anchor-5" 468 738 basechar 0
AnchorPoint: "Anchor-4" 469 823 basechar 0
AnchorPoint: "Anchor-3" 444 -113 basechar 0
AnchorPoint: "Anchor-2" 152 2 basechar 0
LayerCount: 2
Fore
SplineSet
198 678 m 1
 231 678 l 1
 307 502 380 338 461 170 c 1
 469 170 l 1
 718 678 l 1
 743 678 l 1
 772 429 803 216 840 -3 c 1
 825 0 797 0 782 -0 c 0
 767 0 747 0 732 -3 c 1
 717 167 697 323 675 484 c 1
 672 484 l 1
 591 323 518 168 444 -0 c 1
 425 -0 l 1
 359 159 287 325 210 488 c 1
 206 488 l 1
 181 333 145 105 130 -3 c 1
 119 0 110 0 99 0 c 0
 87 0 77 0 66 -3 c 1
 106 188 162 471 198 678 c 1
EndSplineSet
Substitution2: "'c2sc' Capitals to Small Capitals lookup 15 subtable" m.sc
Position2: "'cpsp' Capital Spacing lookup 0 subtable" dx=5 dy=0 dh=10 dv=0
EndChar

StartChar: N
Encoding: 78 78 47
Width: 735
GlyphClass: 2
Flags: W
HStem: -3 14G<100 108 168 176 599 614> 644 20G<111 113 170 185.429 571 579 639 647>
VStem: 111 55<442.177 488.032> 582 65<429.424 657.273> 582 45<158.772 237.269>
AnchorPoint: "Anchor-5" 361 738 basechar 0
AnchorPoint: "Anchor-4" 362 823 basechar 0
AnchorPoint: "Anchor-3" 365 -112 basechar 0
AnchorPoint: "Anchor-2" 120 -3 basechar 0
LayerCount: 2
Fore
SplineSet
111 660 m 1xe8
 113 664 l 1
 113 664 121 660 156 660 c 0
 161 660 170 663 170 663 c 1
 521 208 l 2
 565 151 581 126 582 182 c 2xe8
 582 456 l 2
 582 533 579 602 571 660 c 1
 573 664 l 1
 585 662 597 660 609 660 c 0
 621 660 633 662 645 664 c 1
 647 660 l 1xf0
 631 433 632 255 627 22 c 0
 626 3 621 -10 607 -10 c 0
 591 -10 574 -1 563 14 c 2
 206 466 l 2
 168 515 166 512 166 450 c 2
 166 205 l 2
 166 128 168 58 176 0 c 1
 174 -3 l 1
 162 -1 150 0 138 0 c 0
 126 0 114 -1 102 -3 c 1
 100 0 l 1
 116 163 120 465 111 660 c 1xe8
EndSplineSet
Substitution2: "'c2sc' Capitals to Small Capitals lookup 15 subtable" n.sc
Position2: "'cpsp' Capital Spacing lookup 0 subtable" dx=5 dy=0 dh=10 dv=0
EndChar

StartChar: O
Encoding: 79 79 48
Width: 758
GlyphClass: 2
Flags: W
HStem: -10 45<304.6 482.26> 629 45<278.26 467.437>
VStem: 53 106<200.96 449.571> 600 106<203.311 461.259>
AnchorPoint: "Anchor-5" 384 738 basechar 0
AnchorPoint: "Anchor-4" 385 823 basechar 0
AnchorPoint: "Anchor-3" 380 -116 basechar 0
AnchorPoint: "Anchor-2" 380 0 basechar 0
LayerCount: 2
Fore
SplineSet
364 629 m 0
 266 629 159 550 159 335 c 0
 159 138 275 35 398 35 c 0
 515 35 600 134 600 317 c 0
 600 530 508 629 364 629 c 0
706 337 m 0
 706 132 574 -10 378 -10 c 0
 202 -10 53 115 53 317 c 0
 53 518 194 674 377 674 c 0
 561 674 706 540 706 337 c 0
EndSplineSet
Substitution2: "'c2sc' Capitals to Small Capitals lookup 15 subtable" o.sc
Position2: "'cpsp' Capital Spacing lookup 0 subtable" dx=5 dy=0 dh=10 dv=0
EndChar

StartChar: P
Encoding: 80 80 49
Width: 572
GlyphClass: 2
Flags: W
HStem: -3 21G<96 104 197 205> 283 44<195.855 373.678> 624 44<202.092 380.16>
VStem: 106 89<2.72752 293 331.159 614.484> 432 99<400.907 571.129>
AnchorPoint: "Anchor-5" 284 737 basechar 0
AnchorPoint: "Anchor-4" 285 822 basechar 0
AnchorPoint: "Anchor-3" 247 -113 basechar 0
AnchorPoint: "Anchor-2" 155 -3 basechar 0
LayerCount: 2
Fore
SplineSet
195 579 m 2
 195 337 l 1
 208 330 249 327 275 327 c 0
 374 327 432 364 432 482 c 0
 432 604 358 624 287 624 c 0
 213 624 195 609 195 579 c 2
106 456 m 2
 106 533 104 602 96 660 c 1
 98 664 l 1
 110 662 139 660 151 660 c 0
 182 660 267 668 294 668 c 0
 483 668 531 563 531 487 c 0
 531 400 467 283 281 283 c 0
 245 283 218 286 195 293 c 1
 195 205 l 2
 195 128 197 58 205 0 c 1
 203 -3 l 1
 191 -1 163 0 151 0 c 0
 139 0 110 -1 98 -3 c 1
 96 0 l 1
 104 55 106 128 106 205 c 2
 106 456 l 2
EndSplineSet
Substitution2: "'c2sc' Capitals to Small Capitals lookup 15 subtable" p.sc
Position2: "'cpsp' Capital Spacing lookup 0 subtable" dx=5 dy=0 dh=10 dv=0
EndChar

StartChar: Q
Encoding: 81 81 50
Width: 758
GlyphClass: 2
Flags: W
HStem: -10 45<304.6 484.988> 629 45<278.26 467.437>
VStem: 53 106<200.96 449.571> 600 106<202.27 461.259>
AnchorPoint: "Anchor-5" 354 737 basechar 0
AnchorPoint: "Anchor-4" 356 822 basechar 0
LayerCount: 2
Fore
SplineSet
364 629 m 0
 266 629 159 550 159 335 c 0
 159 138 275 35 398 35 c 0
 515 35 600 134 600 317 c 0
 600 530 508 629 364 629 c 0
574 50 m 1
 633 17 717 -41 829 -79 c 1
 829 -85 l 1
 792 -104 752 -128 733 -143 c 1
 620 -79 628 -61 495 9 c 1
 459 -4 420 -10 378 -10 c 0
 202 -10 53 115 53 317 c 0
 53 518 194 674 377 674 c 0
 561 674 706 540 706 337 c 0
 706 212 656 110 574 50 c 1
EndSplineSet
Substitution2: "'c2sc' Capitals to Small Capitals lookup 15 subtable" q.sc
Position2: "'cpsp' Capital Spacing lookup 0 subtable" dx=5 dy=0 dh=10 dv=0
EndChar

StartChar: R
Encoding: 82 82 51
Width: 614
GlyphClass: 2
Flags: W
HStem: -3 21G<96 104 197 205 458.5 473.5 577 589> 293 41<195 288.685> 624 44<197.914 377.912>
VStem: 106 89<2.72752 293 334 617.445> 436 99<402.011 569.656>
AnchorPoint: "Anchor-5" 275 742 basechar 0
AnchorPoint: "Anchor-4" 276 827 basechar 0
AnchorPoint: "Anchor-3" 265 -114 basechar 0
AnchorPoint: "Anchor-2" 153 -1 basechar 0
LayerCount: 2
Fore
SplineSet
195 293 m 1
 195 205 l 2
 195 128 197 58 205 0 c 1
 203 -3 l 1
 191 -1 163 0 151 0 c 0
 139 0 110 -1 98 -3 c 1
 96 0 l 1
 104 55 106 128 106 205 c 2
 106 456 l 2
 106 533 104 602 96 660 c 1
 98 664 l 1
 110 662 139 660 151 660 c 0
 182 660 263 668 289 668 c 0
 354 668 431 664 480 618 c 0
 517 583 535 541 535 490 c 0
 535 406 487 354 432 326 c 0
 418 319 397 311 370 306 c 1
 435 220 538 58 589 0 c 1
 587 -3 l 1
 567 0 545 0 525 0 c 0
 506 0 483 0 464 -3 c 1
 453 32 404 121 367 180 c 0
 341 222 319 262 290 296 c 1
 262 294 231 293 195 293 c 1
290 624 m 0
 198 624 195 619 195 579 c 2
 195 334 l 1
 254 334 l 2
 353 334 436 364 436 489 c 0
 436 600 352 624 290 624 c 0
EndSplineSet
Substitution2: "'ss02' Style Set 2 lookup 27 subtable" R.alt
Substitution2: "'c2sc' Capitals to Small Capitals lookup 15 subtable" r.sc
AlternateSubs2: "'aalt' Access All Alternates lookup 5 subtable" R.alt r.sc
Position2: "'cpsp' Capital Spacing lookup 0 subtable" dx=5 dy=0 dh=10 dv=0
EndChar

StartChar: S
Encoding: 83 83 52
Width: 518
GlyphClass: 2
Flags: W
HStem: -10 45<173.811 318.623> 629 45<189.195 331.996>
VStem: 72 83<454.405 576.636> 368 95<95.5896 233.336>
AnchorPoint: "Anchor-5" 267 737 basechar 0
AnchorPoint: "Anchor-4" 268 822 basechar 0
AnchorPoint: "Anchor-3" 251 -114 basechar 0
AnchorPoint: "Anchor-2" 230 2 basechar 0
LayerCount: 2
Fore
SplineSet
248 35 m 0
 308 35 368 78 368 155 c 0
 368 242 315 275 248 303 c 0
 163 339 72 389 72 497 c 0
 72 572 124 630 184 656 c 0
 214 668 244 674 272 674 c 0
 392 674 435 628 435 628 c 1
 437 625 l 1
 428 594 418 559 414 522 c 1
 403 521 l 1
 375 584 320 629 264 629 c 0
 240 629 219 625 202 616 c 0
 175 602 155 561 155 524 c 0
 155 439 228 409 280 390 c 0
 363 359 463 304 463 185 c 0
 463 66 366 -10 240 -10 c 0
 120 -10 53 36 53 36 c 1
 51 39 l 1
 59 70 71 107 75 144 c 1
 85 145 l 1
 117 85 191 35 248 35 c 0
EndSplineSet
Substitution2: "'c2sc' Capitals to Small Capitals lookup 15 subtable" s.sc
Position2: "'cpsp' Capital Spacing lookup 0 subtable" dx=5 dy=0 dh=10 dv=0
EndChar

StartChar: T
Encoding: 84 84 53
Width: 552
GlyphClass: 2
Flags: W
HStem: -3 21G<222 230 323 331> 603 57<17.7558 227.338 325.662 535.244>
VStem: 232 89<2.72752 601.77>
AnchorPoint: "Anchor-5" 274 737 basechar 0
AnchorPoint: "Anchor-4" 276 822 basechar 0
AnchorPoint: "Anchor-3" 280 -110 basechar 0
AnchorPoint: "Anchor-2" 272 1 basechar 0
LayerCount: 2
Fore
SplineSet
232 456 m 2
 232 473 231 578 224 603 c 1
 87 603 17 589 17 589 c 1
 15 593 l 1
 17 608 17 631 15 660 c 1
 17 664 l 1
 33 662 57 660 79 660 c 2
 474 660 l 2
 496 660 520 662 536 664 c 1
 538 660 l 1
 536 631 536 608 538 593 c 1
 536 589 l 1
 536 589 466 603 329 603 c 1
 322 578 321 473 321 456 c 2
 321 205 l 2
 321 128 323 58 331 0 c 1
 329 -3 l 1
 317 -1 288 0 276 0 c 0
 264 0 236 -1 224 -3 c 1
 222 0 l 1
 230 55 232 128 232 205 c 2
 232 456 l 2
EndSplineSet
Substitution2: "'c2sc' Capitals to Small Capitals lookup 15 subtable" t.sc
Position2: "'cpsp' Capital Spacing lookup 0 subtable" dx=5 dy=0 dh=10 dv=0
EndChar

StartChar: U
Encoding: 85 85 54
Width: 708
GlyphClass: 2
Flags: W
HStem: -10 57<277.93 469.175> 644 20G<96 104 197 205 547 555 615 623>
VStem: 106 89<141.135 657.273> 557 55<144.402 657.273>
AnchorPoint: "Anchor-5" 361 739 basechar 0
AnchorPoint: "Anchor-4" 362 824 basechar 0
AnchorPoint: "Anchor-3" 352 -112 basechar 0
AnchorPoint: "Anchor-2" 352 4 basechar 0
LayerCount: 2
Fore
SplineSet
557 456 m 2
 557 533 555 602 547 660 c 1
 549 664 l 1
 561 662 573 660 585 660 c 0
 597 660 609 662 621 664 c 1
 623 660 l 1
 615 606 612 533 612 456 c 2
 612 302 l 2
 612 120 555 -10 345 -10 c 0
 253 -10 106 33 106 242 c 2
 106 456 l 2
 106 533 104 602 96 660 c 1
 98 664 l 1
 110 662 139 660 151 660 c 0
 163 660 191 662 203 664 c 1
 205 660 l 1
 197 606 195 533 195 456 c 2
 195 275 l 2
 195 220 195 47 367 47 c 0
 540 47 557 169 557 284 c 2
 557 456 l 2
EndSplineSet
Substitution2: "'c2sc' Capitals to Small Capitals lookup 15 subtable" u.sc
Position2: "'cpsp' Capital Spacing lookup 0 subtable" dx=5 dy=0 dh=10 dv=0
EndChar

StartChar: V
Encoding: 86 86 55
Width: 646
GlyphClass: 2
Flags: W
HStem: -10 21G<250 375> 644 20G<24.5 41.5 125.5 139 523.5 547 576.5 622>
VStem: 541 87<621.681 664>
AnchorPoint: "Anchor-5" 337 739 basechar 0
AnchorPoint: "Anchor-4" 339 824 basechar 0
AnchorPoint: "Anchor-3" 310 -111 basechar 0
AnchorPoint: "Anchor-2" 310 3 basechar 0
LayerCount: 2
Fore
SplineSet
332 135 m 1
 405 305 506 532 541 664 c 1
 553 662 576 660 587 660 c 0
 596 660 616 662 628 664 c 1
 525 438 424 217 326 -10 c 1
 297 -10 l 1
 203 214 67 561 16 664 c 1
 33 662 62 660 78 660 c 0
 94 660 117 662 134 664 c 1
 144 629 196 446 330 135 c 1
 332 135 l 1
EndSplineSet
Substitution2: "'c2sc' Capitals to Small Capitals lookup 15 subtable" v.sc
AlternateSubs2: "'aalt' Access All Alternates lookup 5 subtable" V.alt
Position2: "'cpsp' Capital Spacing lookup 0 subtable" dx=5 dy=0 dh=10 dv=0
EndChar

StartChar: W
Encoding: 87 87 56
Width: 973
GlyphClass: 2
Flags: W
HStem: -10 21G<250 334.865 605 702> 644 20G<24.5 41.5 120.5 134 383.5 384 484.5 500 850.5 874 903.5 949>
VStem: 375 118<607.866 664> 868 87<621.681 664>
AnchorPoint: "Anchor-5" 439 739 basechar 0
AnchorPoint: "Anchor-4" 440 824 basechar 0
AnchorPoint: "Anchor-3" 460 -110 basechar 0
AnchorPoint: "Anchor-2" 302 0 basechar 0
LayerCount: 2
Fore
SplineSet
659 135 m 1
 733 305 833 532 868 664 c 1
 880 661 909 660 920 660 c 0
 931 660 943 661 955 664 c 1
 852 438 751 217 653 -10 c 1
 625 -10 l 1
 585 101 536 237 490 360 c 1
 326 -10 l 1
 297 -10 l 1
 203 214 67 561 16 664 c 1
 33 661 61 660 78 660 c 0
 95 660 112 661 129 664 c 1
 139 628 193 444 331 126 c 1
 333 126 l 1
 373 219 421 329 463 432 c 1
 425 533 393 619 375 664 c 1
 392 661 419 660 436 660 c 0
 453 660 476 661 493 664 c 1
 507 599 552 445 657 135 c 1
 659 135 l 1
EndSplineSet
Substitution2: "'c2sc' Capitals to Small Capitals lookup 15 subtable" w.sc
AlternateSubs2: "'aalt' Access All Alternates lookup 5 subtable" W.alt
Position2: "'cpsp' Capital Spacing lookup 0 subtable" dx=5 dy=0 dh=10 dv=0
EndChar

StartChar: X
Encoding: 88 88 57
Width: 594
GlyphClass: 2
Flags: W
HStem: -3 21G<29.5 37.6145 104.5 137 432 468 536.5 569> 644 20G<37.5 42.194 135 158.5 447 480.5 539 555.5>
AnchorPoint: "Anchor-5" 339 739 basechar 0
AnchorPoint: "Anchor-4" 340 824 basechar 0
AnchorPoint: "Anchor-3" 314 -110 basechar 0
AnchorPoint: "Anchor-2" 99 0 basechar 0
LayerCount: 2
Fore
SplineSet
578 -3 m 1
 560 0 536 0 518 -0 c 0
 500 0 477 0 459 -3 c 1
 405 100 346 182 281 281 c 1
 223 193 164 97 110 -3 c 1
 99 0 79 0 67 0 c 0
 56 0 35 0 24 -3 c 1
 250 329 l 1
 29 664 l 1
 46 661 69 660 86 660 c 0
 103 660 126 661 144 664 c 1
 173 603 242 503 309 400 c 1
 395 524 419 561 475 664 c 1
 486 661 507 660 518 660 c 0
 529 660 550 661 561 664 c 1
 517 602 433 491 339 354 c 1
 428 217 495 114 578 -3 c 1
EndSplineSet
Substitution2: "'c2sc' Capitals to Small Capitals lookup 15 subtable" x.sc
Position2: "'cpsp' Capital Spacing lookup 0 subtable" dx=5 dy=0 dh=10 dv=0
EndChar

StartChar: Y
Encoding: 89 89 58
Width: 595
GlyphClass: 2
Flags: W
HStem: -3 21G<248.5 252 342 346> 644 20G<24.5 36.5 124.5 160.5 466.5 498 516 571.5>
VStem: 253 88<-0.321922 315.148>
AnchorPoint: "Anchor-5" 300 739 basechar 0
AnchorPoint: "Anchor-4" 302 824 basechar 0
AnchorPoint: "Anchor-3" 302 -112 basechar 0
AnchorPoint: "Anchor-2" 302 1 basechar 0
LayerCount: 2
Fore
SplineSet
341 292 m 1
 342 191 344 46 348 -3 c 1
 336 -1 309 0 297 0 c 0
 285 0 258 -1 246 -3 c 1
 251 53 253 182 253 282 c 1
 214 349 57 603 16 664 c 1
 33 662 58 660 75 660 c 0
 92 660 116 662 133 664 c 1
 188 556 247 460 312 348 c 1
 371 441 441 556 492 664 c 1
 504 662 522 660 535 660 c 0
 547 660 565 662 578 664 c 1
 454 475 383 374 341 292 c 1
EndSplineSet
Substitution2: "'c2sc' Capitals to Small Capitals lookup 15 subtable" y.sc
Position2: "'cpsp' Capital Spacing lookup 0 subtable" dx=5 dy=0 dh=10 dv=0
EndChar

StartChar: Z
Encoding: 90 90 59
Width: 636
GlyphClass: 2
Flags: W
HStem: 0 55<191 413.136> 605 55<219.407 449.228>
AnchorPoint: "Anchor-5" 347 737 basechar 0
AnchorPoint: "Anchor-4" 348 822 basechar 0
AnchorPoint: "Anchor-3" 314 -110 basechar 0
AnchorPoint: "Anchor-2" 314 4 basechar 0
LayerCount: 2
Fore
SplineSet
191 55 m 1
 325 55 581 77 581 77 c 1
 583 74 l 1
 582 66 581 50 581 40 c 0
 581 30 582 14 583 0 c 1
 581 -3 l 1
 565 -1 545 0 508 0 c 2
 136 0 l 2
 105 0 47 -3 47 -3 c 1
 44 1 l 1
 55 15 65 31 71 39 c 2
 449 593 l 2
 454 601 450 605 445 605 c 0
 342 605 222 596 82 584 c 1
 80 587 l 1
 81 595 82 611 82 621 c 0
 82 631 81 646 80 660 c 1
 82 664 l 1
 98 662 121 660 144 660 c 2
 456 660 l 2
 488 660 568 665 585 667 c 0
 590 667 591 664 591 660 c 0
 591 649 580 634 560 605 c 2
 197 74 l 2
 192 67 191 60 191 55 c 1
EndSplineSet
Substitution2: "'c2sc' Capitals to Small Capitals lookup 15 subtable" z.sc
Position2: "'cpsp' Capital Spacing lookup 0 subtable" dx=5 dy=0 dh=10 dv=0
EndChar

StartChar: bracketleft
Encoding: 91 91 60
Width: 369
GlyphClass: 2
Flags: W
HStem: -197 30<232.241 333> 689 31<229.561 333>
VStem: 113 69<-136.674 659.561>
LayerCount: 2
Fore
SplineSet
113 -197 m 1
 113 720 l 1
 333 720 l 1
 333 689 l 1
 193 679 182 663 182 574 c 2
 182 -51 l 2
 182 -140 192 -156 333 -167 c 1
 333 -197 l 1
 113 -197 l 1
EndSplineSet
Substitution2: "'case' Case-Sensitive Forms lookup 30 subtable" bracketleft.sc
Substitution2: "'c2sc' Capitals to Small Capitals lookup 15 subtable" bracketleft.sc
AlternateSubs2: "'aalt' Access All Alternates lookup 5 subtable" bracketleft.sc
EndChar

StartChar: backslash
Encoding: 92 92 61
Width: 299
GlyphClass: 2
Flags: W
HStem: 695 20G<11 67.178>
VStem: 11 286
LayerCount: 2
Fore
SplineSet
61 715 m 1
 297 -49 l 1
 247 -49 l 1
 11 715 l 1
 61 715 l 1
EndSplineSet
EndChar

StartChar: bracketright
Encoding: 93 93 62
Width: 369
GlyphClass: 2
Flags: W
HStem: -197 31<37 140.165> 690 30<37 137.506>
VStem: 187 70<-138.125 661.25>
LayerCount: 2
Fore
SplineSet
257 720 m 1
 257 -197 l 1
 37 -197 l 1
 37 -166 l 1
 177 -156 187 -140 187 -51 c 2
 187 574 l 2
 187 663 178 679 37 690 c 1
 37 720 l 1
 257 720 l 1
EndSplineSet
Substitution2: "'case' Case-Sensitive Forms lookup 30 subtable" bracketright.sc
Substitution2: "'c2sc' Capitals to Small Capitals lookup 15 subtable" bracketright.sc
AlternateSubs2: "'aalt' Access All Alternates lookup 5 subtable" bracketright.sc
EndChar

StartChar: asciicircum
Encoding: 94 94 63
Width: 530
GlyphClass: 2
Flags: W
HStem: 354 312
VStem: 115 302
LayerCount: 2
Fore
SplineSet
265 607 m 1
 161 354 l 1
 115 354 l 1
 245 666 l 1
 288 666 l 1
 417 354 l 1
 371 354 l 1
 265 607 l 1
EndSplineSet
EndChar

StartChar: underscore
Encoding: 95 95 64
Width: 497
GlyphClass: 2
Flags: W
HStem: -158 45<5 494>
LayerCount: 2
Fore
SplineSet
494 -113 m 1
 494 -158 l 1
 5 -158 l 1
 5 -113 l 1
 494 -113 l 1
EndSplineSet
EndChar

StartChar: grave
Encoding: 96 96 65
Width: 401
GlyphClass: 2
Flags: W
HStem: 551 165
VStem: 98 162
LayerCount: 2
Fore
SplineSet
182 716 m 2
 254 587 l 2
 259 577 260 569 260 562 c 0
 260 557 253 551 245 551 c 0
 239 551 231 556 215 571 c 2
 98 683 l 1
 100 694 l 1
 108 700 132 718 167 718 c 0
 172 718 178 717 182 716 c 2
EndSplineSet
Substitution2: "'case' Case-Sensitive Forms lookup 30 subtable" grave.cap
EndChar

StartChar: a
Encoding: 97 97 66
Width: 492
GlyphClass: 2
Flags: W
HStem: -10 52<146.428 263.633 387.144 468.439> 403 47<162.415 288.823>
VStem: 46 83<60.7803 166.164> 318 81<80.5879 230 270.05 371.945>
AnchorPoint: "Anchor-5" 227 563 basechar 0
AnchorPoint: "Anchor-4" 226 660 basechar 0
AnchorPoint: "Anchor-3" 212 -111 basechar 0
AnchorPoint: "Anchor-2" 181 -5 basechar 0
AnchorPoint: "Anchor-1" 444 16 basechar 0
LayerCount: 2
Fore
SplineSet
317 230 m 1
 230 207 l 2
 150 185 129 150 129 104 c 0
 129 72 159 42 205 42 c 0
 236 42 270 60 299 82 c 0
 307 88 313 96 313 109 c 2
 317 230 l 1
318 49 m 1
 313 49 l 1
 259 3 230 -10 174 -10 c 0
 98 -10 46 24 46 100 c 0
 46 170 112 225 216 249 c 2
 311 270 l 2
 314 271 318 276 318 283 c 0
 318 399 257 403 220 403 c 0
 171 403 137 362 108 316 c 1
 94 317 l 1
 77 386 l 1
 80 390 l 1
 106 412 152 450 230 450 c 0
 308 450 399 422 399 284 c 0
 399 273 396 159 396 129 c 0
 396 83 404 59 414 49 c 0
 420 43 434 41 444 41 c 0
 452 41 460 43 471 47 c 1
 479 22 l 1
 455 -4 423 -10 397 -10 c 0
 360 -10 330 9 318 49 c 1
EndSplineSet
Substitution2: "'sinf' Scientific Inferiors lookup 14 subtable" a.inferior
Substitution2: "'sups' Superscript lookup 13 subtable" a.superior
Substitution2: "'smcp' Lowercase to Small Capitals lookup 8 subtable" a.sc
AlternateSubs2: "'aalt' Access All Alternates lookup 5 subtable" a.sc
Substitution2: "'sinf' Scientific Inferiors lookup 4 subtable" a.inferior
Substitution2: "'sups' Superscript lookup 3 subtable" a.superior
EndChar

StartChar: b
Encoding: 98 98 67
Width: 516
GlyphClass: 2
Flags: W
HStem: -10 41<200.392 328.04> 409 41<210.958 331.863> 695 20G<150 166>
VStem: 84 82<61.1094 368.854 398 688.915> 391 91<121.313 338.333>
AnchorPoint: "Anchor-5" 290 566 basechar 0
AnchorPoint: "Anchor-3" 247 -111 basechar 0
LayerCount: 2
Fore
SplineSet
166 83 m 1
 186 57 224 31 256 31 c 0
 353 31 391 102 391 229 c 0
 391 357 336 409 273 409 c 0
 231 409 206 389 166 348 c 1
 166 83 l 1
166 512 m 2
 166 398 l 1
 201 436 245 450 294 450 c 0
 393 450 482 363 482 238 c 0
 482 64 366 -10 262 -10 c 0
 218 -10 171 14 141 40 c 1
 130 20 119 2 108 -10 c 1
 97 -10 85 -8 79 -2 c 1
 83 20 84 35 84 75 c 2
 84 494 l 2
 84 572 80 647 72 691 c 1
 74 694 l 1
 115 697 137 705 163 715 c 0
 169 715 172 712 172 705 c 0
 167 642 166 588 166 512 c 2
EndSplineSet
Substitution2: "'sinf' Scientific Inferiors lookup 14 subtable" b.inferior
Substitution2: "'sups' Superscript lookup 13 subtable" b.superior
Substitution2: "'smcp' Lowercase to Small Capitals lookup 8 subtable" b.sc
AlternateSubs2: "'aalt' Access All Alternates lookup 5 subtable" b.sc
Substitution2: "'sinf' Scientific Inferiors lookup 4 subtable" b.inferior
Substitution2: "'sups' Superscript lookup 3 subtable" b.superior
EndChar

StartChar: c
Encoding: 99 99 68
Width: 439
GlyphClass: 2
Flags: W
HStem: -10 51<195.045 338.743> 409 41<196.966 310.434>
VStem: 39 90<116.139 323.082>
AnchorPoint: "Anchor-5" 232 500 basechar 0
AnchorPoint: "Anchor-4" 229 587 basechar 0
AnchorPoint: "Anchor-3" 224 -102 basechar 0
AnchorPoint: "Anchor-2" 239 2 basechar 0
AnchorPoint: "Anchor-1" 336 38 basechar 0
LayerCount: 2
Fore
SplineSet
256 409 m 0
 188 409 129 341 129 228 c 0
 129 108 187 41 262 41 c 0
 300 41 333 49 372 84 c 1
 376 84 l 1
 395 62 l 1
 354 10 306 -10 245 -10 c 0
 120 -10 39 81 39 223 c 0
 39 362 151 450 257 450 c 0
 308 450 361 437 393 421 c 1
 395 418 l 1
 372 334 l 1
 358 333 l 1
 331 380 295 409 256 409 c 0
EndSplineSet
Substitution2: "'sinf' Scientific Inferiors lookup 14 subtable" c.inferior
Substitution2: "'sups' Superscript lookup 13 subtable" c.superior
Substitution2: "'smcp' Lowercase to Small Capitals lookup 8 subtable" c.sc
AlternateSubs2: "'aalt' Access All Alternates lookup 5 subtable" c.sc
Substitution2: "'sinf' Scientific Inferiors lookup 4 subtable" c.inferior
Substitution2: "'sups' Superscript lookup 3 subtable" c.superior
EndChar

StartChar: d
Encoding: 100 100 69
Width: 542
GlyphClass: 2
Flags: W
HStem: -10 53<191.367 314.66> 409 41<206.799 336.326> 695 20G<439 455>
VStem: 52 89<108.815 323.689> 370 82<92.5708 377.568 427 688.915> 377 92<-2 59 99.082 260.984>
AnchorPoint: "Anchor-5" 246 563 basechar 0
AnchorPoint: "Anchor-4" 245 660 basechar 0
AnchorPoint: "Anchor-3" 248 -110 basechar 0
AnchorPoint: "Anchor-1" 341 20 basechar 0
LayerCount: 2
Fore
SplineSet
370 116 m 1xf8
 370 349 l 1
 345 388 320 409 272 409 c 0
 222 409 141 380 141 226 c 0
 141 98 189 43 244 43 c 0
 285 43 333 68 370 116 c 1xf8
370 59 m 1
 333 11 287 -10 238 -10 c 0
 127 -10 52 92 52 218 c 0
 52 357 151 450 284 450 c 0
 304 450 346 440 370 427 c 1
 370 494 l 2
 370 572 368 647 360 691 c 1
 362 694 l 1
 403 697 426 705 452 715 c 0
 458 715 461 712 461 705 c 0
 456 642 452 588 452 512 c 2
 452 197 l 2xf8
 452 120 461 44 469 0 c 1
 467 -3 l 1
 454 -1 434 0 421 0 c 0
 406 0 400 -1 386 -3 c 0
 380 -3 377 -2 377 0 c 2xf4
 372 59 l 1
 370 59 l 1
EndSplineSet
Substitution2: "'sinf' Scientific Inferiors lookup 14 subtable" d.inferior
Substitution2: "'sups' Superscript lookup 13 subtable" d.superior
Substitution2: "'smcp' Lowercase to Small Capitals lookup 8 subtable" d.sc
AlternateSubs2: "'aalt' Access All Alternates lookup 5 subtable" d.sc
Substitution2: "'sinf' Scientific Inferiors lookup 4 subtable" d.inferior
Substitution2: "'sups' Superscript lookup 3 subtable" d.superior
EndChar

StartChar: e
Encoding: 101 101 70
Width: 463
GlyphClass: 2
Flags: W
HStem: -10 60<185.981 337.984> 239 41<128 330.996> 409 41<187.025 293.145>
VStem: 35 90<114.591 239 280 320.002> 331 91<250.5 359.363>
AnchorPoint: "Anchor-5" 251 563 basechar 0
AnchorPoint: "Anchor-4" 244 660 basechar 0
AnchorPoint: "Anchor-3" 243 -111 basechar 0
AnchorPoint: "Anchor-1" 382 42 basechar 0
LayerCount: 2
Fore
SplineSet
128 280 m 1
 316 280 l 2
 326 280 331 285 331 294 c 0
 331 371 285 409 245 409 c 0
 213 409 145 386 128 280 c 1
401 106 m 1
 422 81 l 1
 383 28 318 -10 244 -10 c 0
 175 -10 116 15 81 57 c 0
 47 98 35 156 35 214 c 0
 35 365 140 450 245 450 c 0
 380 450 422 342 422 256 c 0
 422 245 414 239 403 239 c 2
 125 239 l 1
 125 180 132 138 150 109 c 0
 178 64 226 50 261 50 c 0
 317 50 365 67 401 106 c 1
EndSplineSet
Substitution2: "'sinf' Scientific Inferiors lookup 14 subtable" e.inferior
Substitution2: "'sups' Superscript lookup 13 subtable" e.superior
Substitution2: "'smcp' Lowercase to Small Capitals lookup 8 subtable" e.sc
AlternateSubs2: "'aalt' Access All Alternates lookup 5 subtable" e.sc
Substitution2: "'sinf' Scientific Inferiors lookup 4 subtable" e.inferior
Substitution2: "'sups' Superscript lookup 3 subtable" e.superior
EndChar

StartChar: f
Encoding: 102 102 71
Width: 321
GlyphClass: 2
Flags: W
HStem: -3 21G<91 99 185 194> 394 45<30.2468 101 183 297.783> 616 21G<327.5 344> 652 63<230.319 343.807>
VStem: 101 82<2.7268 394 439 579.867>
AnchorPoint: "Anchor-3" 135 -114 basechar 0
AnchorPoint: "Anchor-2" 136 10 basechar 0
LayerCount: 2
Fore
SplineSet
101 439 m 1
 101 479 l 2
 101 538 119 587 158 636 c 0
 197 685 261 715 326 715 c 0
 345 715 364 710 372 705 c 1
 373 701 l 1
 362 679 351 645 344 617 c 1
 333 616 l 1
 322 636 299 652 273 652 c 0
 214 652 178 614 178 557 c 0
 178 539 183 486 183 449 c 2
 183 439 l 1
 227 439 l 2
 251 439 282 440 299 441 c 1
 304 434 l 1
 298 419 295 408 292 392 c 1
 278 393 243 394 218 394 c 2
 183 394 l 1
 183 204 l 2
 183 127 185 58 194 0 c 1
 191 -3 l 1
 179 -1 154 0 142 0 c 0
 130 0 105 -1 93 -3 c 1
 91 0 l 1
 100 55 101 127 101 204 c 2
 101 394 l 1
 100 394 l 2
 76 394 43 393 25 392 c 1
 19 399 l 1
 29 414 35 424 42 441 c 1
 56 439 79 439 101 439 c 1
EndSplineSet
Substitution2: "Single Substitution lookup 34 subtable" f.short
Substitution2: "'sinf' Scientific Inferiors lookup 14 subtable" f.inferior
Substitution2: "'sups' Superscript lookup 13 subtable" f.superior
Substitution2: "'smcp' Lowercase to Small Capitals lookup 8 subtable" f.sc
AlternateSubs2: "'aalt' Access All Alternates lookup 5 subtable" f.sc
Substitution2: "'sinf' Scientific Inferiors lookup 4 subtable" f.inferior
Substitution2: "'sups' Superscript lookup 3 subtable" f.superior
Substitution2: "Single Substitution lookup 1 subtable" f.short
EndChar

StartChar: g
Encoding: 103 103 72
Width: 510
GlyphClass: 2
Flags: W
HStem: -243 44<143.359 349.391> -12 67<142.858 375.773> 139 41<167.564 288.105> 411 39<171.138 284.998>
VStem: 33 70<-162.071 -60.4514> 56 80<212.967 371.151> 63 63<54.1607 129.502> 319 80<214.183 378.631> 410 74<-151.194 -44.2813>
AnchorPoint: "Anchor-5" 225 562 basechar 0
AnchorPoint: "Anchor-4" 225 660 basechar 0
AnchorPoint: "Anchor-3" 230 -90 basechar 0
LayerCount: 2
Fore
SplineSet
103 -106 m 0xf980
 103 -176 171 -199 238 -199 c 0
 326 -199 410 -165 410 -103 c 0
 410 -76 400 -47 370 -30 c 0
 342 -14 310 -12 261 -12 c 0
 247 -12 200 -15 170 -15 c 1
 134 -34 103 -72 103 -106 c 0xf980
399 292 m 0
 399 211 335 139 229 139 c 0
 198 139 167 147 154 154 c 1
 131 135 126 116 126 96 c 0xf380
 126 52 156 48 185 48 c 0
 190 48 201 49 215 50 c 0
 239 53 280 55 297 55 c 0
 333 55 403 55 441 22 c 0
 470 -2 484 -35 484 -80 c 0
 484 -176 389 -243 229 -243 c 0
 120 -243 33 -208 33 -127 c 0xf980
 33 -108 43 -78 56 -59 c 1xf580
 83 -39 114 -19 143 -7 c 1
 88 3 63 39 63 81 c 0xf380
 63 116 99 146 129 166 c 1
 100 182 56 217 56 294 c 0xf580
 56 395 149 450 230 450 c 0
 252 450 275 447 293 441 c 1
 369 445 406 456 455 460 c 1
 458 457 l 1
 456 448 455 439 455 430 c 0
 455 421 456 412 458 403 c 1
 455 400 l 1
 413 404 379 409 348 411 c 1
 372 395 399 363 399 292 c 0
319 291 m 0
 319 364 293 411 226 411 c 0
 167 411 136 367 136 299 c 0xf580
 136 228 158 180 232 180 c 0
 293 180 319 229 319 291 c 0
EndSplineSet
Substitution2: "'sinf' Scientific Inferiors lookup 14 subtable" g.inferior
Substitution2: "'sups' Superscript lookup 13 subtable" g.superior
Substitution2: "'smcp' Lowercase to Small Capitals lookup 8 subtable" g.sc
AlternateSubs2: "'aalt' Access All Alternates lookup 5 subtable" g.sc
Substitution2: "'sinf' Scientific Inferiors lookup 4 subtable" g.inferior
Substitution2: "'sups' Superscript lookup 3 subtable" g.superior
EndChar

StartChar: h
Encoding: 104 104 73
Width: 562
GlyphClass: 2
Flags: W
HStem: -3 21G<83 91 175 183 387 395 479 487> 388 62<265.014 378.736> 695 20G<161 177>
VStem: 92 82<2.757 327.522 360 688.914> 396 82<2.757 372.543>
AnchorPoint: "Anchor-5" 314 563 basechar 0
AnchorPoint: "Anchor-4" 313 660 basechar 0
AnchorPoint: "Anchor-3" 272 -114 basechar 0
AnchorPoint: "Anchor-1" 440 10 basechar 0
LayerCount: 2
Fore
SplineSet
174 360 m 1
 176 357 l 1
 242 434 314 450 353 450 c 0
 445 450 480 394 480 288 c 0
 480 255 478 217 478 184 c 0
 478 106 479 59 487 0 c 1
 485 -3 l 1
 473 -1 449 0 437 0 c 0
 425 0 401 -1 389 -3 c 1
 387 0 l 1
 395 55 396 107 396 184 c 2
 396 285 l 2
 396 368 375 388 323 388 c 0
 287 388 226 365 174 304 c 1
 174 184 l 2
 174 106 175 59 183 0 c 1
 181 -3 l 1
 169 -1 145 0 133 0 c 0
 121 0 97 -1 85 -3 c 1
 83 0 l 1
 91 57 92 108 92 184 c 2
 92 493 l 2
 92 571 91 647 83 691 c 1
 85 694 l 1
 126 697 148 705 174 715 c 0
 180 715 183 712 183 705 c 0
 178 642 174 589 174 513 c 2
 174 360 l 1
EndSplineSet
Substitution2: "'salt' Stylistic Alternatives lookup 24 subtable" h.alt
Substitution2: "'sinf' Scientific Inferiors lookup 14 subtable" h.inferior
Substitution2: "'sups' Superscript lookup 13 subtable" h.superior
Substitution2: "'smcp' Lowercase to Small Capitals lookup 8 subtable" h.sc
AlternateSubs2: "'aalt' Access All Alternates lookup 5 subtable" h.sc h.alt
Substitution2: "'sinf' Scientific Inferiors lookup 4 subtable" h.inferior
Substitution2: "'sups' Superscript lookup 3 subtable" h.superior
EndChar

StartChar: i
Encoding: 105 105 74
Width: 266
GlyphClass: 2
Flags: W
HStem: -3 21G<83 91 175 183> 423 20G<162.5 178> 559 105<92.5419 175.458>
VStem: 82 104<568.794 653.867> 92 82<2.71158 430.112>
AnchorPoint: "Anchor-3" 133 -110 basechar 0
AnchorPoint: "Anchor-2" 134 12 basechar 0
AnchorPoint: "Anchor-1" 157 10 basechar 0
AnchorPoint: "Anchor-0" 134 220 basechar 0
LayerCount: 2
Fore
SplineSet
82 611 m 0xf0
 82 639 106 664 134 664 c 0
 162 664 186 639 186 611 c 0
 186 583 162 559 134 559 c 0
 106 559 82 583 82 611 c 0xf0
92 241 m 2xe8
 92 318 89 395 83 439 c 1
 85 442 l 1
 107 440 151 441 174 443 c 0
 182 443 183 442 183 433 c 0
 176 371 174 334 174 257 c 2
 174 184 l 2
 174 106 176 58 183 0 c 1
 181 -3 l 1
 169 -1 145 0 133 0 c 0
 121 0 97 -1 85 -3 c 1
 83 0 l 1
 90 55 92 107 92 184 c 2
 92 241 l 2xe8
EndSplineSet
Substitution2: "Single Substitution lookup 32 subtable" dotlessi
Substitution2: "'sinf' Scientific Inferiors lookup 14 subtable" i.inferior
Substitution2: "'sups' Superscript lookup 13 subtable" i.superior
Substitution2: "'smcp' Lowercase to Small Capitals in Latin lookup 9 subtable" idotaccent.sc
Substitution2: "'smcp' Lowercase to Small Capitals lookup 7 subtable" i.sc
AlternateSubs2: "'aalt' Access All Alternates lookup 5 subtable" i.sc
Substitution2: "'sinf' Scientific Inferiors lookup 4 subtable" i.inferior
Substitution2: "'sups' Superscript lookup 3 subtable" i.superior
Substitution2: "Single Substitution lookup 2 subtable" dotlessi
EndChar

StartChar: j
Encoding: 106 106 75
Width: 278
GlyphClass: 2
Flags: W
HStem: -221 61<-4.73442 74.2752> 423 20G<174.5 190> 559 105<102.542 186.097>
VStem: 92 105<569.542 653.097> 104 82<-87.8546 430.112>
LayerCount: 2
Fore
SplineSet
92 611 m 0xf0
 92 639 116 664 144 664 c 0
 172 664 197 639 197 611 c 0
 197 583 172 559 144 559 c 0
 116 559 92 583 92 611 c 0xf0
186 257 m 2xe8
 186 123 l 2
 186 -31 172 -89 141 -138 c 0
 112 -183 68 -221 3 -221 c 0
 -16 -221 -33 -217 -41 -212 c 1
 -42 -209 l 1
 -38 -194 -38 -146 -38 -118 c 1
 -22 -114 l 1
 -11 -134 10 -160 40 -160 c 0
 97 -160 104 -42 104 98 c 2
 104 241 l 2
 104 318 101 395 95 439 c 1
 97 442 l 1
 119 440 163 441 186 443 c 0
 194 443 196 442 196 433 c 0
 189 371 186 334 186 257 c 2xe8
EndSplineSet
Substitution2: "Single Substitution lookup 32 subtable" dotlessj
Substitution2: "'sinf' Scientific Inferiors lookup 14 subtable" j.inferior
Substitution2: "'sups' Superscript lookup 13 subtable" j.superior
Substitution2: "'smcp' Lowercase to Small Capitals lookup 8 subtable" j.sc
AlternateSubs2: "'aalt' Access All Alternates lookup 5 subtable" j.sc idotaccent.sc
Substitution2: "'sinf' Scientific Inferiors lookup 4 subtable" j.inferior
Substitution2: "'sups' Superscript lookup 3 subtable" j.superior
Substitution2: "Single Substitution lookup 2 subtable" dotlessj
EndChar

StartChar: k
Encoding: 107 107 76
Width: 515
GlyphClass: 2
Flags: W
HStem: -3 21G<83 91 175 183 342 385 501.5 508> 215 31<174 215.567> 422 20G<474.5 486> 695 20G<161 177>
VStem: 92 82<2.72752 215 246 688.915>
AnchorPoint: "Anchor-5" 288 564 basechar 0
AnchorPoint: "Anchor-4" 287 662 basechar 0
AnchorPoint: "Anchor-3" 274 -110 basechar 0
AnchorPoint: "Anchor-2" 133 9 basechar 0
LayerCount: 2
Fore
SplineSet
92 205 m 2
 92 494 l 2
 92 572 91 647 83 691 c 1
 85 694 l 1
 126 697 148 705 174 715 c 0
 180 715 183 712 183 705 c 0
 178 640 174 589 174 512 c 2
 174 246 l 1
 187 247 206 251 219 261 c 0
 260 292 337 375 381 439 c 1
 409 439 465 439 484 442 c 1
 486 439 l 1
 419 383 320 286 280 244 c 1
 378 126 432 80 508 0 c 1
 506 -3 l 1
 497 -1 461 0 444 0 c 0
 427 0 393 -1 377 -3 c 1
 307 97 283 134 216 204 c 0
 207 212 182 215 174 215 c 1
 174 205 l 2
 174 128 175 58 183 0 c 1
 181 -3 l 1
 169 -1 145 0 133 0 c 0
 121 0 97 -1 85 -3 c 1
 83 0 l 1
 91 55 92 129 92 205 c 2
EndSplineSet
Substitution2: "'sinf' Scientific Inferiors lookup 14 subtable" k.inferior
Substitution2: "'sups' Superscript lookup 13 subtable" k.superior
Substitution2: "'smcp' Lowercase to Small Capitals lookup 8 subtable" k.sc
AlternateSubs2: "'aalt' Access All Alternates lookup 5 subtable" k.sc
Substitution2: "'sinf' Scientific Inferiors lookup 4 subtable" k.inferior
Substitution2: "'sups' Superscript lookup 3 subtable" k.superior
EndChar

StartChar: l
Encoding: 108 108 77
Width: 258
GlyphClass: 2
Flags: W
HStem: -3 21G<83 91 175 183> 695 20G<161 177>
VStem: 92 82<2.72752 688.915>
AnchorPoint: "Anchor-3" 138 -110 basechar 0
AnchorPoint: "Anchor-2" 133 10 basechar 0
LayerCount: 2
Fore
SplineSet
92 205 m 2
 92 494 l 2
 92 572 91 647 83 691 c 1
 85 694 l 1
 126 697 148 705 174 715 c 0
 180 715 183 712 183 705 c 0
 178 640 174 589 174 512 c 2
 174 205 l 2
 174 128 175 58 183 0 c 1
 181 -3 l 1
 169 -1 145 0 133 0 c 0
 121 0 97 -1 85 -3 c 1
 83 0 l 1
 91 55 92 129 92 205 c 2
EndSplineSet
Substitution2: "'sinf' Scientific Inferiors lookup 14 subtable" l.inferior
Substitution2: "'sups' Superscript lookup 13 subtable" l.superior
Substitution2: "'smcp' Lowercase to Small Capitals lookup 8 subtable" l.sc
AlternateSubs2: "'aalt' Access All Alternates lookup 5 subtable" l.sc
Substitution2: "'sinf' Scientific Inferiors lookup 4 subtable" l.inferior
Substitution2: "'sups' Superscript lookup 3 subtable" l.superior
EndChar

StartChar: m
Encoding: 109 109 78
Width: 826
GlyphClass: 2
Flags: W
HStem: -3 21G<75 83 167 175 366 374 458 466 658 666 751 759> 388 62<259.802 357.243 528.897 648.706>
VStem: 84 82<2.71158 325.885> 375 82<2.71158 326.437> 668 82<2.71158 368.569>
AnchorPoint: "Anchor-5" 397 563 basechar 0
AnchorPoint: "Anchor-4" 396 660 basechar 0
AnchorPoint: "Anchor-3" 396 -108 basechar 0
AnchorPoint: "Anchor-2" 125 9 basechar 0
LayerCount: 2
Fore
SplineSet
166 360 m 1
 169 357 l 1
 217 408 278 450 341 450 c 0
 398 450 441 418 450 369 c 1
 508 430 568 450 623 450 c 0
 734 450 750 378 750 287 c 2
 750 184 l 2
 750 106 751 58 759 0 c 1
 757 -3 l 1
 745 -1 721 0 709 0 c 0
 697 0 672 -1 660 -3 c 1
 658 0 l 1
 666 55 668 107 668 184 c 2
 668 297 l 2
 668 366 641 388 586 388 c 0
 546 388 505 381 456 327 c 1
 457 315 457 302 457 288 c 2
 457 184 l 2
 457 106 458 58 466 0 c 1
 464 -3 l 1
 452 -1 428 0 416 0 c 0
 404 0 380 -1 368 -3 c 1
 366 0 l 1
 374 55 375 107 375 184 c 2
 375 297 l 2
 375 366 346 388 307 388 c 0
 271 388 214 357 166 308 c 1
 166 184 l 2
 166 106 167 58 175 0 c 1
 173 -3 l 1
 161 -1 137 0 125 0 c 0
 113 0 89 -1 77 -3 c 1
 75 0 l 1
 83 55 84 107 84 184 c 2
 84 241 l 2
 84 318 82 395 75 439 c 1
 77 442 l 1
 100 440 137 440 160 445 c 0
 165 445 166 443 166 435 c 2
 166 360 l 1
EndSplineSet
Substitution2: "'sinf' Scientific Inferiors lookup 14 subtable" m.inferior
Substitution2: "'sups' Superscript lookup 13 subtable" m.superior
Substitution2: "'smcp' Lowercase to Small Capitals lookup 8 subtable" m.sc
AlternateSubs2: "'aalt' Access All Alternates lookup 5 subtable" m.sc
Substitution2: "'sinf' Scientific Inferiors lookup 4 subtable" m.inferior
Substitution2: "'sups' Superscript lookup 3 subtable" m.superior
EndChar

StartChar: n
Encoding: 110 110 79
Width: 551
GlyphClass: 2
Flags: W
HStem: -3 21G<76 84 168 176 380 388 472 480> 388 62<258.694 371.498>
VStem: 85 82<2.71158 325.885> 389 82<2.71158 372.543>
AnchorPoint: "Anchor-5" 259 563 basechar 0
AnchorPoint: "Anchor-4" 258 662 basechar 0
AnchorPoint: "Anchor-3" 259 -114 basechar 0
AnchorPoint: "Anchor-2" 125 9 basechar 0
AnchorPoint: "Anchor-1" 418 45 basechar 0
LayerCount: 2
Fore
SplineSet
471 184 m 0
 471 106 472 58 480 0 c 1
 478 -3 l 1
 466 -1 442 0 430 0 c 0
 418 0 394 -1 382 -3 c 1
 380 0 l 1
 387 55 389 107 389 184 c 2
 389 285 l 2
 389 368 367 388 315 388 c 0
 278 388 219 365 167 304 c 1
 167 184 l 2
 167 106 168 58 176 0 c 1
 174 -3 l 1
 162 -1 138 0 126 0 c 0
 114 0 90 -1 78 -3 c 1
 76 0 l 1
 84 55 85 107 85 184 c 2
 85 241 l 2
 85 318 83 395 76 439 c 1
 78 442 l 1
 101 440 138 440 161 445 c 0
 166 445 167 443 167 435 c 2
 167 360 l 1
 169 357 l 1
 235 434 307 450 346 450 c 0
 438 450 473 394 473 288 c 0
 473 255 471 217 471 184 c 0
EndSplineSet
Substitution2: "'sinf' Scientific Inferiors lookup 14 subtable" n.inferior
Substitution2: "'sups' Superscript lookup 13 subtable" n.superior
Substitution2: "'smcp' Lowercase to Small Capitals lookup 8 subtable" n.sc
AlternateSubs2: "'aalt' Access All Alternates lookup 5 subtable" n.sc
Substitution2: "'sinf' Scientific Inferiors lookup 4 subtable" n.inferior
Substitution2: "'sups' Superscript lookup 3 subtable" n.superior
EndChar

StartChar: o
Encoding: 111 111 80
Width: 512
GlyphClass: 2
Flags: W
HStem: -10 41<197.072 321.854> 409 41<188.546 325.544>
VStem: 39 90<109.904 324.22> 383 90<109.714 333.723>
AnchorPoint: "Anchor-5" 251 563 basechar 0
AnchorPoint: "Anchor-4" 250 660 basechar 0
AnchorPoint: "Anchor-3" 253 -110 basechar 0
AnchorPoint: "Anchor-2" 253 -3 basechar 0
AnchorPoint: "Anchor-1" 395 45 basechar 0
AnchorPoint: "Anchor-0" 252 220 basechar 0
LayerCount: 2
Fore
SplineSet
39 210 m 0
 39 355 126 450 260 450 c 0
 398 450 473 358 473 219 c 0
 473 85 391 -10 256 -10 c 0
 120 -10 39 87 39 210 c 0
253 409 m 0
 157 409 129 316 129 227 c 0
 129 148 156 31 265 31 c 0
 334 31 383 104 383 201 c 0
 383 325 362 409 253 409 c 0
EndSplineSet
Substitution2: "'sinf' Scientific Inferiors lookup 14 subtable" o.inferior
Substitution2: "'sups' Superscript lookup 13 subtable" o.superior
Substitution2: "'smcp' Lowercase to Small Capitals lookup 8 subtable" o.sc
AlternateSubs2: "'aalt' Access All Alternates lookup 5 subtable" o.sc
Substitution2: "'sinf' Scientific Inferiors lookup 4 subtable" o.inferior
Substitution2: "'sups' Superscript lookup 3 subtable" o.superior
EndChar

StartChar: p
Encoding: 112 112 81
Width: 535
GlyphClass: 2
Flags: W
HStem: -241 21G<75 83 167 175> -10 41<195.493 328.865> 402 48<235.776 347.723>
VStem: 84 82<-235.272 12 55.8249 335.975> 394 90<119.403 343.796>
AnchorPoint: "Anchor-5" 286 564 basechar 0
AnchorPoint: "Anchor-4" 285 662 basechar 0
LayerCount: 2
Fore
SplineSet
166 301 m 1
 166 77 l 1
 202 35 245 31 261 31 c 0
 371 31 394 139 394 223 c 0
 394 339 359 402 289 402 c 0
 249 402 189 355 166 301 c 1
166 360 m 1
 168 357 l 1
 215 429 266 450 306 450 c 0
 421 450 484 346 484 237 c 0
 484 93 402 -10 267 -10 c 0
 230 -10 193 -2 166 12 c 1
 166 -33 l 2
 166 -110 168 -180 175 -238 c 1
 173 -241 l 1
 161 -239 137 -238 125 -238 c 0
 113 -238 89 -239 77 -241 c 1
 75 -238 l 1
 82 -183 84 -109 84 -33 c 2
 84 241 l 2
 84 318 82 395 75 439 c 1
 77 442 l 1
 100 440 137 440 160 445 c 0
 165 445 166 443 166 435 c 2
 166 360 l 1
EndSplineSet
Substitution2: "'sinf' Scientific Inferiors lookup 14 subtable" p.inferior
Substitution2: "'sups' Superscript lookup 13 subtable" p.superior
Substitution2: "'smcp' Lowercase to Small Capitals lookup 8 subtable" p.sc
AlternateSubs2: "'aalt' Access All Alternates lookup 5 subtable" p.sc
Substitution2: "'sinf' Scientific Inferiors lookup 4 subtable" p.inferior
Substitution2: "'sups' Superscript lookup 3 subtable" p.superior
EndChar

StartChar: q
Encoding: 113 113 82
Width: 534
GlyphClass: 2
Flags: W
HStem: -241 21G<359 361 458 460> -10 45<204.51 350.269> 409 41<207.358 360.651>
VStem: 50 90<109.844 325.72> 369 82<-235.272 24 55.1683 384.968>
AnchorPoint: "Anchor-5" 255 563 basechar 0
AnchorPoint: "Anchor-4" 254 660 basechar 0
LayerCount: 2
Fore
SplineSet
366 385 m 1
 344 403 314 409 269 409 c 0
 193 409 140 338 140 232 c 0
 140 77 213 35 272 35 c 0
 291 35 342 48 369 68 c 1
 369 240 l 2
 369 342 366 385 366 385 c 1
375 442 m 0
 394 439 435 440 458 442 c 1
 460 439 l 1
 453 395 451 318 451 241 c 2
 451 -33 l 2
 451 -110 451 -180 460 -238 c 1
 458 -241 l 1
 458 -241 445 -238 410 -238 c 0
 374 -238 361 -241 361 -241 c 1
 359 -238 l 1
 368 -183 369 -109 369 -33 c 2
 369 24 l 1
 354 11 306 -10 248 -10 c 0
 107 -10 50 114 50 221 c 0
 50 356 144 450 263 450 c 0
 298 450 356 445 375 442 c 0
EndSplineSet
Substitution2: "'sinf' Scientific Inferiors lookup 14 subtable" q.inferior
Substitution2: "'sups' Superscript lookup 13 subtable" q.superior
Substitution2: "'smcp' Lowercase to Small Capitals lookup 8 subtable" q.sc
AlternateSubs2: "'aalt' Access All Alternates lookup 5 subtable" q.sc
Substitution2: "'sinf' Scientific Inferiors lookup 4 subtable" q.inferior
Substitution2: "'sups' Superscript lookup 3 subtable" q.superior
EndChar

StartChar: r
Encoding: 114 114 83
Width: 363
GlyphClass: 2
Flags: W
HStem: -3 21G<80 88 172 180> 375 75<240.265 324.699>
VStem: 89 82<2.71158 317.819 342 436.913>
AnchorPoint: "Anchor-5" 189 564 basechar 0
AnchorPoint: "Anchor-4" 188 662 basechar 0
AnchorPoint: "Anchor-3" 131 -111 basechar 0
AnchorPoint: "Anchor-2" 130 7 basechar 0
LayerCount: 2
Fore
SplineSet
171 342 m 1
 174 340 l 1
 219 418 249 450 304 450 c 0
 322 450 324 447 341 442 c 1
 345 438 l 1
 325 362 l 1
 316 360 l 1
 303 372 283 375 263 375 c 0
 244 375 221 362 206 339 c 0
 184 305 171 281 171 238 c 2
 171 184 l 2
 171 106 172 58 180 0 c 1
 178 -3 l 1
 166 -1 142 0 130 0 c 0
 118 0 94 -1 82 -3 c 1
 80 0 l 1
 88 55 89 107 89 184 c 2
 89 241 l 2
 89 318 87 395 80 439 c 1
 82 442 l 1
 105 440 142 440 165 445 c 0
 170 445 171 443 171 435 c 2
 171 342 l 1
EndSplineSet
Substitution2: "'sinf' Scientific Inferiors lookup 14 subtable" r.inferior
Substitution2: "'sups' Superscript lookup 13 subtable" r.superior
Substitution2: "'smcp' Lowercase to Small Capitals lookup 8 subtable" r.sc
AlternateSubs2: "'aalt' Access All Alternates lookup 5 subtable" r.sc
Substitution2: "'sinf' Scientific Inferiors lookup 4 subtable" r.inferior
Substitution2: "'sups' Superscript lookup 3 subtable" r.superior
EndChar

StartChar: s
Encoding: 115 115 84
Width: 405
GlyphClass: 2
Flags: W
HStem: -10 41<122.224 251.498> 409 41<146.849 264.208>
VStem: 55 73<296.987 391.953> 282 80<58.6176 163.287>
AnchorPoint: "Anchor-5" 213 563 basechar 0
AnchorPoint: "Anchor-4" 212 660 basechar 0
AnchorPoint: "Anchor-3" 203 -114 basechar 0
AnchorPoint: "Anchor-2" 202 2 basechar 0
AnchorPoint: "Anchor-1" 299 13 basechar 0
LayerCount: 2
Fore
SplineSet
51 103 m 1
 67 104 l 1
 96 64 138 31 187 31 c 0
 241 31 282 62 282 116 c 0
 282 166 237 183 178 199 c 0
 116 216 55 243 55 325 c 0
 55 410 134 450 210 450 c 0
 262 450 318 434 348 419 c 1
 350 416 l 1
 330 340 l 1
 315 339 l 1
 291 367 259 409 206 409 c 0
 162 409 128 386 128 344 c 0
 128 293 184 273 223 264 c 0
 296 247 362 214 362 130 c 0
 362 74 329 -10 188 -10 c 0
 149 -10 92 -3 34 17 c 1
 51 103 l 1
EndSplineSet
Substitution2: "'sinf' Scientific Inferiors lookup 14 subtable" s.inferior
Substitution2: "'sups' Superscript lookup 13 subtable" s.superior
Substitution2: "'smcp' Lowercase to Small Capitals lookup 8 subtable" s.sc
AlternateSubs2: "'aalt' Access All Alternates lookup 5 subtable" s.sc
Substitution2: "'sinf' Scientific Inferiors lookup 4 subtable" s.inferior
Substitution2: "'sups' Superscript lookup 3 subtable" s.superior
EndChar

StartChar: t
Encoding: 116 116 85
Width: 348
GlyphClass: 2
Flags: W
HStem: -10 21G<160.5 205.5> 28 25<283.5 294.441> 394 45<30.2468 97 179 297.783>
VStem: 94 82<50.5551 256.642> 97 82<130.463 394 439 570>
AnchorPoint: "Anchor-3" 167 -110 basechar 0
AnchorPoint: "Anchor-2" 169 -3 basechar 0
AnchorPoint: "Anchor-1" 243 15 basechar 0
LayerCount: 2
Fore
SplineSet
97 439 m 1xe8
 97 498 99 534 101 570 c 1
 103 573 l 1
 136 578 149 589 175 599 c 0
 181 599 184 596 184 589 c 0
 179 530 179 516 179 439 c 1
 227 439 l 2
 251 439 281 440 299 441 c 1
 304 434 l 1
 298 419 295 408 292 392 c 1
 278 393 243 394 218 394 c 2
 179 394 l 1
 179 265 l 2xe8
 179 204 176 160 176 129 c 0
 176 74 186 49 210 45 c 0
 236 41 260 42 291 53 c 1
 303 28 l 1
 260 0 227 -10 184 -10 c 0
 137 -10 94 21 94 88 c 0xf0
 94 119 97 193 97 254 c 2
 97 394 l 1
 74 394 43 393 25 392 c 1
 19 399 l 1
 29 414 35 424 42 441 c 1
 55 439 76 439 97 439 c 1xe8
EndSplineSet
Substitution2: "'sinf' Scientific Inferiors lookup 14 subtable" t.inferior
Substitution2: "'sups' Superscript lookup 13 subtable" t.superior
Substitution2: "'smcp' Lowercase to Small Capitals lookup 8 subtable" t.sc
AlternateSubs2: "'aalt' Access All Alternates lookup 5 subtable" t.sc
Substitution2: "'sinf' Scientific Inferiors lookup 4 subtable" t.inferior
Substitution2: "'sups' Superscript lookup 3 subtable" t.superior
EndChar

StartChar: u
Encoding: 117 117 86
Width: 549
GlyphClass: 2
Flags: W
HStem: -10 57<186.563 291.854> 422 20G<76 84 168 176 367 375 459 467>
VStem: 85 82<64.875 436.288> 376 82<122.933 436.243> 383 92<-2 91>
AnchorPoint: "Anchor-5" 268 563 basechar 0
AnchorPoint: "Anchor-4" 268 662 basechar 0
AnchorPoint: "Anchor-3" 246 -114 basechar 0
AnchorPoint: "Anchor-2" 223 0 basechar 0
AnchorPoint: "Anchor-1" 305 7 basechar 0
LayerCount: 2
Fore
SplineSet
374 94 m 1xe8
 340 42 282 -10 219 -10 c 0
 118 -10 85 61 85 132 c 2
 85 255 l 2
 85 333 84 381 76 439 c 1
 78 442 l 1
 90 440 114 439 126 439 c 0
 138 439 162 440 174 442 c 1
 176 439 l 1
 168 385 167 332 167 255 c 2
 167 154 l 2
 167 59 201 47 236 47 c 0
 286 47 345 102 376 155 c 1
 376 255 l 2
 376 333 375 380 367 439 c 1
 369 442 l 1
 381 440 405 439 417 439 c 0
 429 439 453 440 465 442 c 1
 467 439 l 1
 459 385 458 332 458 255 c 2
 458 197 l 2xf0
 458 120 467 44 475 0 c 1
 473 -3 l 1
 460 -1 441 0 428 0 c 0
 413 0 401 -1 387 -3 c 0
 384 -3 383 -2 383 0 c 2
 378 91 l 1
 374 94 l 1xe8
EndSplineSet
Substitution2: "'sinf' Scientific Inferiors lookup 14 subtable" u.inferior
Substitution2: "'sups' Superscript lookup 13 subtable" u.superior
Substitution2: "'smcp' Lowercase to Small Capitals lookup 8 subtable" u.sc
AlternateSubs2: "'aalt' Access All Alternates lookup 5 subtable" u.sc
Substitution2: "'sinf' Scientific Inferiors lookup 4 subtable" u.inferior
Substitution2: "'sups' Superscript lookup 3 subtable" u.superior
EndChar

StartChar: v
Encoding: 118 118 87
Width: 473
GlyphClass: 2
Flags: W
HStem: -3 21G<178.5 212 264.5 295.5> 422 20G<28 54.5 124.5 149.5 358.5 383.5 419.5 448.5>
VStem: 20 111<392.694 442>
AnchorPoint: "Anchor-5" 269 564 basechar 0
AnchorPoint: "Anchor-4" 268 662 basechar 0
AnchorPoint: "Anchor-3" 246 -116 basechar 0
LayerCount: 2
Fore
SplineSet
207 -3 m 1
 150 147 89 291 20 442 c 1
 36 439 64 439 80 439 c 0
 94 439 118 439 131 442 c 1
 168 325 202 209 253 92 c 1
 255 92 l 1
 302 192 338 326 379 442 c 1
 388 439 404 439 414 439 c 0
 424 439 444 439 453 442 c 1
 386 291 322 147 269 -3 c 1
 260 0 249 0 239 0 c 0
 229 0 217 0 207 -3 c 1
EndSplineSet
Substitution2: "'sinf' Scientific Inferiors lookup 14 subtable" v.inferior
Substitution2: "'sups' Superscript lookup 13 subtable" v.superior
Substitution2: "'smcp' Lowercase to Small Capitals lookup 8 subtable" v.sc
AlternateSubs2: "'aalt' Access All Alternates lookup 5 subtable" v.sc
Substitution2: "'sinf' Scientific Inferiors lookup 4 subtable" v.inferior
Substitution2: "'sups' Superscript lookup 3 subtable" v.superior
EndChar

StartChar: w
Encoding: 119 119 88
Width: 739
GlyphClass: 2
Flags: W
HStem: 0 92<244.621 269.773 498.077 521.919> 421 21G<28 54.5 124.5 149.5 304 305 401.5 420 621 644.5 690 714.5>
VStem: 20 111<391.694 441> 297 111<378.908 442>
AnchorPoint: "Anchor-5" 354 565 basechar 0
AnchorPoint: "Anchor-4" 353 662 basechar 0
AnchorPoint: "Anchor-3" 360 -114 basechar 0
LayerCount: 2
Fore
SplineSet
210 -4 m 1
 153 146 89 290 20 441 c 1
 36 438 64 438 80 438 c 0
 94 438 118 438 131 441 c 1
 168 324 203 208 254 91 c 1
 260 91 l 1
 290 154 318 232 345 309 c 1
 327 356 311 400 297 442 c 1
 313 439 340 439 356 439 c 0
 370 439 395 439 408 442 c 1
 432 333 463 205 506 92 c 1
 514 92 l 1
 556 190 602 321 640 442 c 1
 649 439 665 439 675 439 c 0
 685 439 710 439 719 442 c 1
 661 314 578 118 528 -3 c 1
 519 0 500 0 490 0 c 0
 480 0 474 0 464 -3 c 1
 435 76 402 159 371 239 c 1
 338 159 309 75 281 -4 c 1
 272 -1 254 -1 244 -1 c 0
 234 -1 220 -1 210 -4 c 1
EndSplineSet
Substitution2: "'sinf' Scientific Inferiors lookup 14 subtable" w.inferior
Substitution2: "'sups' Superscript lookup 13 subtable" w.superior
Substitution2: "'smcp' Lowercase to Small Capitals lookup 8 subtable" w.sc
AlternateSubs2: "'aalt' Access All Alternates lookup 5 subtable" w.sc
Substitution2: "'sinf' Scientific Inferiors lookup 4 subtable" w.inferior
Substitution2: "'sups' Superscript lookup 3 subtable" w.superior
EndChar

StartChar: x
Encoding: 120 120 89
Width: 465
GlyphClass: 2
Flags: W
HStem: -3 21G<34 43.8837 105.5 130.5 311.5 337.5 409 432> 422 20G<33 39.2609 130 156 337.5 362.5 424.689 434.5>
AnchorPoint: "Anchor-5" 263 564 basechar 0
AnchorPoint: "Anchor-4" 262 662 basechar 0
AnchorPoint: "Anchor-3" 229 -113 basechar 0
AnchorPoint: "Anchor-2" 106 8 basechar 0
LayerCount: 2
Fore
SplineSet
189 212 m 1
 25 442 l 1
 41 440 68 439 84 439 c 0
 101 439 121 440 139 442 c 1
 173 385 202 331 243 275 c 1
 286 331 318 385 357 442 c 1
 368 440 384 439 395 439 c 0
 405 439 428 440 441 442 c 1
 273 236 l 1
 328 156 378 77 440 -3 c 1
 424 -1 397 0 382 0 c 0
 366 0 345 -1 330 -3 c 1
 293 56 262 112 221 169 c 1
 180 112 150 56 111 -3 c 1
 100 -1 76 0 66 0 c 0
 56 0 39 -1 29 -3 c 1
 189 212 l 1
EndSplineSet
Substitution2: "'sinf' Scientific Inferiors lookup 14 subtable" x.inferior
Substitution2: "'sups' Superscript lookup 13 subtable" x.superior
Substitution2: "'smcp' Lowercase to Small Capitals lookup 8 subtable" x.sc
AlternateSubs2: "'aalt' Access All Alternates lookup 5 subtable" x.sc
Substitution2: "'sinf' Scientific Inferiors lookup 4 subtable" x.inferior
Substitution2: "'sups' Superscript lookup 3 subtable" x.superior
EndChar

StartChar: y
Encoding: 121 121 90
Width: 518
GlyphClass: 2
Flags: W
HStem: -243 21G<111 129 188 212.5> 422 20G<36 49.5 125.5 151 387.5 411 472 484>
VStem: 106 87<-243 -206.78>
AnchorPoint: "Anchor-5" 301 563 basechar 0
AnchorPoint: "Anchor-4" 292 659 basechar 0
LayerCount: 2
Fore
SplineSet
29 442 m 1
 43 439 69 439 82 439 c 0
 96 439 119 439 132 442 c 1
 170 325 219 212 269 90 c 1
 271 90 l 1
 321 196 369 326 406 442 c 1
 416 439 435 439 445 439 c 0
 455 439 479 439 489 442 c 1
 455 373 232 -115 193 -243 c 1
 183 -240 152 -238 142 -238 c 0
 132 -238 116 -240 106 -243 c 1
 152 -166 194 -86 227 -10 c 1
 191 87 70 351 29 442 c 1
EndSplineSet
Substitution2: "'sinf' Scientific Inferiors lookup 14 subtable" y.inferior
Substitution2: "'sups' Superscript lookup 13 subtable" y.superior
Substitution2: "'smcp' Lowercase to Small Capitals lookup 8 subtable" y.sc
AlternateSubs2: "'aalt' Access All Alternates lookup 5 subtable" y.sc
Substitution2: "'sinf' Scientific Inferiors lookup 4 subtable" y.inferior
Substitution2: "'sups' Superscript lookup 3 subtable" y.superior
EndChar

StartChar: z
Encoding: 122 122 91
Width: 425
GlyphClass: 2
Flags: W
HStem: -0 46<139 354.126> 393 46<67.7747 284>
AnchorPoint: "Anchor-5" 226 564 basechar 0
AnchorPoint: "Anchor-4" 225 662 basechar 0
AnchorPoint: "Anchor-3" 212 -114 basechar 0
AnchorPoint: "Anchor-2" 213 4 basechar 0
LayerCount: 2
Fore
SplineSet
139 46 m 1
 264 47 395 57 395 57 c 1
 397 54 l 1
 396 46 395 37 395 28 c 0
 395 19 396 13 397 -0 c 1
 395 -3 l 1
 380 -1 358 0 338 -0 c 2
 106 -0 l 2
 77 0 24 -3 24 -3 c 1
 20 2 l 1
 28 11 35 21 43 33 c 2
 284 393 l 1
 167 391 50 382 50 382 c 1
 48 385 l 1
 49 393 50 403 50 412 c 0
 50 421 49 426 48 439 c 1
 50 442 l 1
 65 440 88 439 108 439 c 2
 316 439 l 2
 346 439 394 446 399 446 c 0
 403 446 404 443 404 439 c 0
 398 432 391 422 374 396 c 2
 139 46 l 1
EndSplineSet
Substitution2: "'sinf' Scientific Inferiors lookup 14 subtable" z.inferior
Substitution2: "'sups' Superscript lookup 13 subtable" z.superior
Substitution2: "'smcp' Lowercase to Small Capitals lookup 8 subtable" z.sc
AlternateSubs2: "'aalt' Access All Alternates lookup 5 subtable" z.sc
Substitution2: "'sinf' Scientific Inferiors lookup 4 subtable" z.inferior
Substitution2: "'sups' Superscript lookup 3 subtable" z.superior
EndChar

StartChar: braceleft
Encoding: 123 123 92
Width: 283
GlyphClass: 2
Flags: W
HStem: -217 24<231.875 267.867> 241 24<8.8886 56.6496> 699 25<232.179 267.757>
VStem: 109 73<412.68 663.547> 115 75<306.726 547.32>
LayerCount: 2
Fore
SplineSet
182 565 m 2xf0
 190 395 l 2
 194 304 152 275 83 255 c 1
 83 251 l 1
 152 222 195 181 190 97 c 2xe8
 182 -55 l 2
 177 -141 219 -193 264 -193 c 1
 270 -199 270 -211 264 -217 c 1
 161 -217 104 -183 109 -50 c 2xf0
 115 124 l 2
 117 186 89 232 14 241 c 1
 6 249 5 256 14 265 c 1
 90 272 115 328 115 379 c 2xe8
 109 567 l 2
 105 683 172 724 264 724 c 1
 270 718 270 705 264 699 c 1
 225 688 177 670 182 565 c 2xf0
EndSplineSet
Substitution2: "'case' Case-Sensitive Forms lookup 30 subtable" braceleft.sc
Substitution2: "'c2sc' Capitals to Small Capitals lookup 15 subtable" braceleft.sc
AlternateSubs2: "'aalt' Access All Alternates lookup 5 subtable" braceleft.sc
EndChar

StartChar: bar
Encoding: 124 124 93
Width: 215
GlyphClass: 2
Flags: W
HStem: -238 21G<83 133> 695 20G<83 133>
VStem: 83 50<-238 715>
LayerCount: 2
Fore
SplineSet
133 -238 m 1
 83 -238 l 1
 83 715 l 1
 133 715 l 1
 133 -238 l 1
EndSplineSet
EndChar

StartChar: braceright
Encoding: 125 125 94
Width: 283
GlyphClass: 2
Flags: W
HStem: -218 24<11.1328 44.2634> 241 24<222.473 270.111> 698 25<11.2427 51.278>
VStem: 89 76<-41.32 200.5> 97 74<-158.001 93.32>
LayerCount: 2
Fore
SplineSet
97 -59 m 2xe8
 89 111 l 2
 85 202 128 231 197 251 c 1
 197 255 l 1
 128 284 84 325 89 409 c 2xf0
 97 561 l 2
 102 647 60 698 15 698 c 1
 9 704 9 717 15 723 c 1
 118 723 176 689 171 556 c 2xe8
 165 382 l 2
 163 320 190 274 265 265 c 1
 273 257 274 250 265 241 c 1
 189 234 165 178 165 127 c 2xf0
 171 -61 l 2
 175 -177 107 -218 15 -218 c 1
 9 -212 9 -200 15 -194 c 1
 54 -183 102 -164 97 -59 c 2xe8
EndSplineSet
Substitution2: "'case' Case-Sensitive Forms lookup 30 subtable" braceright.sc
Substitution2: "'c2sc' Capitals to Small Capitals lookup 15 subtable" braceright.sc
AlternateSubs2: "'aalt' Access All Alternates lookup 5 subtable" braceright.sc
EndChar

StartChar: asciitilde
Encoding: 126 126 95
Width: 459
GlyphClass: 2
Flags: W
HStem: 218 61<250.871 364.947> 285 60<95.2791 210.585>
VStem: 27 13<212.346 220.271> 410 17<335.914 343.53>
LayerCount: 2
Fore
SplineSet
27 214 m 1
 40 281 96 345 158 345 c 0
 182 345 206 328 233 312 c 0
 259 296 285 279 308 279 c 0
 337 279 387 296 410 347 c 1
 427 341 l 1
 395 231 329 218 304 218 c 0
 277 218 252 235 227 252 c 0
 201 269 178 285 152 285 c 0
 116 285 64 256 40 211 c 1
 27 214 l 1
EndSplineSet
EndChar

StartChar: exclamdown
Encoding: 161 161 97
Width: 233
GlyphClass: 2
Flags: W
HStem: -234 21G<104 129.5> 335 115<78.4447 155.75>
VStem: 60 113<-219.368 2.98458 354.135 432.584>
LayerCount: 2
Fore
SplineSet
118 -234 m 0
 90 -234 60 -211 60 -160 c 0
 60 -93 77 -50 87 38 c 0
 100 149 101 210 103 224 c 0
 104 235 108 245 118 245 c 0
 129 245 131 237 132 231 c 0
 134 209 139 118 147 38 c 0
 156 -52 173 -88 173 -160 c 0
 173 -215 141 -234 118 -234 c 0
175 394 m 1
 175 390 l 1
 166 363 151 347 120 335 c 1
 116 335 l 1
 86 346 69 361 60 390 c 1
 60 394 l 1
 70 427 87 443 116 450 c 1
 120 450 l 1
 152 443 166 428 175 394 c 1
EndSplineSet
Substitution2: "'case' Case-Sensitive Forms lookup 30 subtable" exclamdown.sc
Substitution2: "'c2sc' Capitals to Small Capitals lookup 15 subtable" exclamdown.sc
AlternateSubs2: "'aalt' Access All Alternates lookup 5 subtable" exclamdown.sc
EndChar

StartChar: cent
Encoding: 162 162 98
Width: 512
GlyphClass: 2
Flags: W
HStem: 97 52<301 381.154> 447 21G<389.5 417> 524 42<301 354.359> 652 20G<262 301>
VStem: 77 92<230.485 435.537> 262 39<-14 98.6188 157 518 566 672>
LayerCount: 2
Fore
SplineSet
262 672 m 1
 301 672 l 1
 301 566 l 1
 353 566 407 554 439 537 c 1
 441 534 l 1
 417 448 l 1
 403 447 l 1
 376 494 340 523 301 524 c 1
 301 149 l 1
 305 149 l 2
 344 149 377 157 417 193 c 1
 421 193 l 1
 441 171 l 1
 402 122 357 100 301 97 c 1
 301 -14 l 1
 262 -14 l 1
 262 98 l 1
 149 110 77 199 77 335 c 0
 77 461 166 545 262 563 c 1
 262 672 l 1
262 157 m 1
 262 518 l 1
 210 498 169 434 169 340 c 0
 169 242 208 179 262 157 c 1
EndSplineSet
EndChar

StartChar: sterling
Encoding: 163 163 99
Width: 512
GlyphClass: 2
Flags: W
HStem: -12 61<291.556 427.134> 53 47<162 225.529> 328 45<77.0207 153 242 387> 601 62<310.741 439.963>
VStem: 20 79<-7.80103 50.3365> 153 89<190.947 328 373 514.356>
LayerCount: 2
Fore
SplineSet
242 451 m 2
 242 373 l 1
 379 373 l 2
 385 373 387 371 387 366 c 2
 387 342 l 2
 387 333 372 328 360 328 c 2
 242 328 l 1
 241 197 199 135 162 100 c 1
 167 100 l 2
 293 100 289 49 362 49 c 0
 395 49 447 57 476 97 c 1
 495 85 l 1
 468 28 414 -12 342 -12 c 0
 243 -12 242 53 145 53 c 0
 107 53 99 39 99 27 c 0
 99 1 79 -12 55 -12 c 0
 34 -12 20 2 20 19 c 0
 20 40 46 57 76 73 c 1
 141 121 153 209 153 309 c 2
 153 328 l 1
 84 328 l 2
 78 328 77 329 77 335 c 2
 77 350 l 2
 77 359 84 373 104 373 c 2
 153 373 l 1
 153 395 l 2
 153 488 172 529 228 585 c 0
 286 643 357 663 422 663 c 0
 442 663 461 659 469 654 c 1
 470 650 l 1
 458 630 448 594 441 566 c 1
 429 565 l 1
 417 585 399 601 370 601 c 0
 311 601 242 530 242 451 c 2
EndSplineSet
EndChar

StartChar: currency
Encoding: 164 164 100
Width: 512
GlyphClass: 2
Flags: W
HStem: 131 49<183.256 325.89> 490 48<185.105 324.699>
VStem: 49 70<248.406 420.752> 390 70<248.52 419.505>
LayerCount: 2
Fore
SplineSet
119 336 m 0
 119 251 172 180 255 180 c 0
 336 180 390 252 390 335 c 0
 390 422 329 490 257 490 c 0
 176 490 119 419 119 336 c 0
255 131 m 0
 209 131 166 145 129 173 c 1
 79 112 l 1
 31 158 l 1
 94 208 l 1
 64 244 49 287 49 335 c 0
 49 385 64 428 94 463 c 1
 34 510 l 1
 77 557 l 1
 130 498 l 1
 168 526 210 538 255 538 c 0
 303 538 344 524 381 495 c 1
 435 559 l 1
 480 512 l 1
 416 460 l 1
 445 425 460 384 460 335 c 0
 460 289 445 246 417 210 c 1
 478 159 l 1
 436 115 l 1
 383 174 l 1
 345 145 303 131 255 131 c 0
EndSplineSet
EndChar

StartChar: yen
Encoding: 165 165 101
Width: 512
GlyphClass: 2
Flags: W
HStem: -3 21G<201.5 208 298 305> 148 45<49.015 206 300 465> 266 47<49.015 191 307 465> 649 20G<13.5 23.5 113.5 144 389 420 450.5 493.5>
VStem: 207 92<1.13917 148 193 266>
LayerCount: 2
Fore
SplineSet
55 266 m 2
 49 266 49 267 49 273 c 2
 49 290 l 2
 49 299 54 313 74 313 c 2
 191 313 l 1
 141 405 42 606 5 669 c 1
 22 666 47 665 64 665 c 0
 81 665 105 666 122 669 c 1
 166 555 204 463 268 351 c 1
 327 444 364 547 414 669 c 1
 426 666 443 665 457 665 c 0
 470 665 487 666 500 669 c 1
 401 496 348 393 307 313 c 1
 457 313 l 2
 462 313 465 311 465 306 c 2
 465 281 l 2
 465 271 450 266 438 266 c 2
 298 266 l 1
 298 243 299 218 299 193 c 1
 457 193 l 2
 462 193 465 191 465 186 c 2
 465 163 l 2
 465 153 450 148 438 148 c 2
 300 148 l 1
 301 84 304 25 306 -3 c 1
 290 0 267 0 252 0 c 0
 237 0 216 0 200 -3 c 1
 203 30 205 87 206 148 c 1
 55 148 l 2
 49 148 49 149 49 155 c 2
 49 170 l 2
 49 179 54 193 74 193 c 2
 207 193 l 1
 207 218 207 242 207 266 c 1
 55 266 l 2
EndSplineSet
Substitution2: "'pnum' Proportional Numbers lookup 21 subtable" Yen.fitted
EndChar

StartChar: brokenbar
Encoding: 166 166 102
Width: 209
GlyphClass: 2
Flags: W
VStem: 83 49<-206 165 319 690>
LayerCount: 2
Fore
SplineSet
132 690 m 1
 132 319 l 1
 83 319 l 1
 83 690 l 1
 132 690 l 1
132 165 m 1
 132 -206 l 1
 83 -206 l 1
 83 165 l 1
 132 165 l 1
EndSplineSet
EndChar

StartChar: section
Encoding: 167 167 103
Width: 494
GlyphClass: 2
Flags: W
HStem: -176 41<198.884 310.588> 633 41<184.412 296.046>
VStem: 51 59<244.845 355.809> 83 71<488.476 598.428> 341 71<-100.792 9.81117> 385 58<141.441 252.242>
LayerCount: 2
Fore
SplineSet
151 396 m 1xe4
 130 376 110 343 110 312 c 0
 110 216 222 169 300 129 c 0
 317 120 332 111 344 101 c 1
 365 121 385 154 385 185 c 0
 385 281 273 329 195 369 c 0
 178 378 163 386 151 396 c 1xe4
128 417 m 1
 95 451 83 490 83 528 c 0
 83 596 148 674 250 674 c 0
 321 674 364 633 392 609 c 1
 395 604 l 1
 378 529 l 1
 364 527 l 1
 334 578 297 633 241 633 c 0
 193 633 154 598 154 549 c 0
 154 501 184 469 236 447 c 0
 319 413 443 350 443 224 c 0xd4
 443 162 409 113 366 81 c 1
 399 47 412 7 412 -31 c 0
 412 -99 347 -176 245 -176 c 0
 174 -176 130 -136 102 -112 c 1
 99 -106 l 1
 117 -32 l 1
 131 -30 l 1
 161 -81 198 -135 254 -135 c 0
 302 -135 341 -100 341 -51 c 0xc8
 341 -3 311 28 259 50 c 0
 176 84 51 147 51 273 c 0
 51 335 85 385 128 417 c 1
EndSplineSet
EndChar

StartChar: dieresis
Encoding: 168 168 104
Width: 388
GlyphClass: 2
Flags: W
HStem: 540 97<59.0684 138.932 232.068 312.615>
VStem: 51 96<547.44 629.265> 224 97<548.068 628.615>
LayerCount: 2
Fore
SplineSet
51 588 m 0
 51 615 72 637 99 637 c 0
 126 637 147 615 147 588 c 0
 147 561 126 540 99 540 c 0
 72 540 51 561 51 588 c 0
224 588 m 0
 224 615 245 637 272 637 c 0
 299 637 321 615 321 588 c 0
 321 561 299 540 272 540 c 0
 245 540 224 561 224 588 c 0
EndSplineSet
EndChar

StartChar: copyright
Encoding: 169 169 105
Width: 648
GlyphClass: 2
Flags: W
HStem: 24 32<237.269 411.991> 156 29<286.416 390.594> 444 24<282.731 379.809> 570 32<237.455 412.191>
VStem: 35 32<226.149 400.237> 169 63<233.204 386.236> 426 20<371.566 391.505> 582 31<228.732 397.268>
LayerCount: 2
Fore
SplineSet
450 221 m 1
 430 189 385 156 329 156 c 0
 238 156 169 227 169 308 c 0
 169 394 241 468 331 468 c 0
 403 468 402 453 432 453 c 1
 446 373 l 1
 426 369 l 1
 409 416 385 444 327 444 c 0
 286 444 232 418 232 318 c 0
 232 243 268 185 338 185 c 0
 390 185 419 221 430 237 c 1
 450 221 l 1
325 24 m 0
 164 24 35 154 35 313 c 0
 35 473 165 602 325 602 c 0
 485 602 613 473 613 313 c 0
 613 153 485 24 325 24 c 0
325 570 m 0
 182 570 67 455 67 313 c 0
 67 172 182 56 325 56 c 0
 466 56 582 171 582 313 c 0
 582 455 467 570 325 570 c 0
EndSplineSet
EndChar

StartChar: ordfeminine
Encoding: 170 170 106
Width: 304
GlyphClass: 2
Flags: W
HStem: 367 32<89.2145 163.645 218 274.97> 624 28<99.6136 175.35>
VStem: 27 54<404.267 483.953> 194 52<416.865 516 541.048 613.206>
LayerCount: 2
Fore
SplineSet
194 516 m 1
 141 501 l 2
 92 487 81 466 81 437 c 0
 81 418 97 399 126 399 c 0
 145 399 165 411 182 424 c 0
 187 428 190 432 190 440 c 2
 194 516 l 1
244 421 m 0
 244 409 247 401 254 401 c 0
 263 401 273 411 279 415 c 1
 281 414 l 1
 291 400 l 1
 271 374 254 367 234 367 c 0
 202 367 196 393 195 403 c 1
 190 403 l 1
 156 374 141 367 106 367 c 0
 59 367 27 388 27 435 c 0
 27 478 67 512 132 527 c 2
 189 541 l 2
 191 542 194 544 194 548 c 0
 194 620 158 624 135 624 c 0
 104 624 83 596 66 567 c 1
 57 567 l 1
 46 612 l 1
 48 614 l 2
 64 627 93 652 141 652 c 0
 189 652 246 635 246 549 c 0
 246 542 244 439 244 421 c 0
EndSplineSet
EndChar

StartChar: guillemotleft
Encoding: 171 171 107
Width: 556
GlyphClass: 2
Flags: W
LayerCount: 2
Fore
SplineSet
160 220 m 1
 198 176 237 127 290 46 c 1
 287 36 276 28 265 27 c 1
 184 115 133 164 76 214 c 1
 76 226 l 1
 133 276 184 326 265 414 c 1
 276 413 287 404 290 394 c 1
 237 313 198 264 160 220 c 1
344 220 m 1
 382 176 421 127 474 46 c 1
 471 36 461 28 450 27 c 1
 369 115 317 164 260 214 c 1
 260 226 l 1
 317 276 369 326 450 414 c 1
 461 413 471 404 474 394 c 1
 421 313 382 264 344 220 c 1
EndSplineSet
Substitution2: "'case' Case-Sensitive Forms lookup 30 subtable" guillemotleft.sc
Substitution2: "'c2sc' Capitals to Small Capitals lookup 15 subtable" guillemotleft.sc
AlternateSubs2: "'aalt' Access All Alternates lookup 5 subtable" guillemotleft.sc
EndChar

StartChar: logicalnot
Encoding: 172 172 108
Width: 573
GlyphClass: 2
Flags: W
HStem: 366 45<25 495>
VStem: 495 55<136 366>
LayerCount: 2
Fore
SplineSet
495 136 m 1
 495 366 l 1
 25 366 l 1
 25 411 l 1
 550 411 l 1
 550 136 l 1
 495 136 l 1
EndSplineSet
EndChar

StartChar: uni00AD
Encoding: 173 173 109
Width: 340
GlyphClass: 2
Flags: W
HStem: 242 55<37.4167 303.646>
VStem: 34 274<243.139 296.611>
LayerCount: 2
Fore
SplineSet
281 242 m 2
 49 242 l 2
 40 242 34 250 34 259 c 0
 34 275 47 297 59 297 c 2
 294 297 l 2
 304 297 308 288 308 279 c 0
 308 268 294 242 281 242 c 2
EndSplineSet
EndChar

StartChar: registered
Encoding: 174 174 110
Width: 648
GlyphClass: 2
Flags: W
HStem: 24 32<237.269 411.991> 180 18<442.563 475> 295 24<293 330.794> 431 25<204 242.141 296.471 369.318> 570 32<237.455 412.191>
VStem: 35 32<226.149 400.237> 245 48<200.051 295 319 429.25> 385 56<327.006 424.819> 582 31<228.732 397.268>
LayerCount: 2
Fore
SplineSet
441 379 m 0
 441 339 414 313 382 303 c 1
 431 219 l 2
 442 200 459 195 475 198 c 1
 479 180 l 1
 467 175 454 173 442 173 c 0
 422 173 397 179 380 209 c 2
 331 291 l 2
 327 294 298 295 293 295 c 1
 293 221 l 2
 293 208 297 201 305 200 c 2
 319 198 l 2
 327 197 331 196 331 191 c 2
 331 175 l 1
 329 173 l 1
 329 173 286 175 268 175 c 0
 248 175 206 173 206 173 c 1
 204 175 l 1
 204 193 l 2
 204 197 207 197 214 198 c 2
 231 200 l 2
 239 201 245 208 245 221 c 2
 245 406 l 2
 245 423 233 431 221 431 c 2
 210 431 l 2
 203 431 202 433 202 436 c 2
 202 454 l 1
 204 456 l 1
 343 456 l 2
 420 456 441 410 441 379 c 0
385 379 m 0
 385 414 369 431 334 431 c 0
 308 431 293 424 293 406 c 2
 293 319 l 1
 326 319 l 2
 357 319 385 327 385 379 c 0
325 24 m 0
 164 24 35 154 35 313 c 0
 35 473 165 602 325 602 c 0
 485 602 613 473 613 313 c 0
 613 153 485 24 325 24 c 0
325 570 m 0
 182 570 67 455 67 313 c 0
 67 172 182 56 325 56 c 0
 466 56 582 171 582 313 c 0
 582 455 467 570 325 570 c 0
EndSplineSet
EndChar

StartChar: macron
Encoding: 175 175 111
Width: 406
GlyphClass: 2
Flags: W
HStem: 542 45<61.2778 345.714>
VStem: 60 287<542.116 586.974>
LayerCount: 2
Fore
SplineSet
323 542 m 2
 73 542 l 2
 64 542 60 550 60 557 c 0
 60 569 71 587 83 587 c 2
 333 587 l 2
 343 587 347 578 347 572 c 0
 347 560 336 542 323 542 c 2
EndSplineSet
EndChar

StartChar: degree
Encoding: 176 176 112
Width: 273
GlyphClass: 2
Flags: W
HStem: 436 29<95.2164 176.768> 611 29<95.6574 177.646>
VStem: 35 34<489.153 586.738> 205 34<490.004 586.832>
LayerCount: 2
Fore
SplineSet
205 537 m 0
 205 571 183 611 137 611 c 0
 93 611 69 574 69 537 c 0
 69 501 94 465 137 465 c 0
 179 465 205 502 205 537 c 0
35 538 m 0
 35 595 81 640 137 640 c 0
 193 640 239 595 239 538 c 0
 239 482 193 436 137 436 c 0
 81 436 35 482 35 538 c 0
EndSplineSet
EndChar

StartChar: plusminus
Encoding: 177 177 113
Width: 539
GlyphClass: 2
Flags: W
HStem: 19 51<68 472> 300 50<68 244 296 472>
VStem: 244 52<122 300 350 528>
LayerCount: 2
Fore
SplineSet
296 350 m 1
 472 350 l 1
 472 300 l 1
 296 300 l 1
 296 122 l 1
 244 122 l 1
 244 300 l 1
 68 300 l 1
 68 350 l 1
 244 350 l 1
 244 528 l 1
 296 528 l 1
 296 350 l 1
472 70 m 1
 472 19 l 1
 68 19 l 1
 68 70 l 1
 472 70 l 1
EndSplineSet
EndChar

StartChar: two.superior
Encoding: 178 178 114
Width: 318
GlyphClass: 2
Flags: W
HStem: 371 56<119 259.632> 676 30<98.3248 170.258>
VStem: 188 74<561.645 665.519>
LayerCount: 2
Fore
SplineSet
73 630 m 1
 59 630 l 1
 48 673 l 1
 50 675 l 2
 73 695 104 706 145 706 c 0
 180 706 208 698 228 684 c 0
 251 669 262 648 262 620 c 0
 262 592 245 560 209 527 c 2
 155 474 l 2
 131 450 119 434 119 427 c 1
 163 427 l 2
 183 427 217 429 264 432 c 1
 262 422 261 410 261 396 c 0
 261 389 262 381 264 371 c 1
 228 372 197 373 170 373 c 0
 150 373 107 372 40 371 c 1
 39 373 l 1
 39 396 64 433 114 484 c 2
 155 524 l 2
 178 547 188 580 188 621 c 0
 188 637 183 649 172 660 c 0
 162 670 152 676 141 676 c 0
 112 676 90 661 73 630 c 1
EndSplineSet
EndChar

StartChar: three.superior
Encoding: 179 179 115
Width: 320
GlyphClass: 2
Flags: W
HStem: 367 28<95.7858 174.377> 423 20G<59 77.5> 532 25<117 163.406> 677 28<109.127 179.435>
VStem: 191 64<575.044 667.749> 198 73<409.54 521.7>
LayerCount: 2
Fore
SplineSet
175 409 m 0xf4
 190 421 198 441 198 469 c 0xf4
 198 511 177 532 137 532 c 0
 127 532 121 532 117 531 c 1
 117 557 l 1
 167 559 191 583 191 627 c 0
 191 641 187 653 180 663 c 0
 172 673 163 677 153 677 c 0
 135 677 121 673 111 665 c 0
 103 659 94 647 84 629 c 1
 71 629 l 1
 59 672 l 1
 60 675 l 1
 83 695 116 705 157 705 c 0
 185 705 207 699 225 689 c 0
 245 677 255 659 255 635 c 0xf8
 255 591 233 563 190 552 c 1
 190 550 l 1
 213 548 232 540 246 528 c 0
 263 514 271 495 271 471 c 0
 271 435 257 408 228 390 c 0
 204 374 174 367 137 367 c 0
 101 367 72 377 49 397 c 2
 47 399 l 1
 59 442 l 1
 72 443 l 1
 83 424 91 413 96 408 c 0
 106 400 120 395 138 395 c 0
 152 395 165 400 175 409 c 0xf4
EndSplineSet
EndChar

StartChar: acute
Encoding: 180 180 116
Width: 349
GlyphClass: 2
Flags: W
HStem: 556 164
VStem: 90 160
LayerCount: 2
Fore
SplineSet
179 720 m 2
 182 721 189 722 194 722 c 0
 201 722 226 721 250 698 c 1
 253 687 l 1
 135 575 l 2
 120 560 111 556 104 556 c 0
 97 556 90 562 90 569 c 0
 90 580 94 585 102 598 c 2
 179 720 l 2
EndSplineSet
Substitution2: "'case' Case-Sensitive Forms lookup 30 subtable" acute.cap
EndChar

StartChar: uni00B5
Encoding: 181 181 117
Width: 497
GlyphClass: 2
Flags: W
HStem: -240 21G<95 115> -10 46<154.287 271.522 381.5 459.24> 430 20G<114.5 129 396 409>
VStem: 48 97<-222.25 -71.4277> 55 77<57.8213 438.942> 65 48<-118.744 12.9971> 332 77<39.5942 61 76.5 439>
LayerCount: 2
Fore
SplineSet
103 -240 m 0xf2
 87 -240 48 -215 48 -173 c 0xf2
 48 -121 65 -73 65 -8 c 0xe6
 65 26 55 78 55 137 c 2
 55 330 l 2
 55 359 45 439 45 439 c 1
 69 439 100 447 129 450 c 1
 129 450 132 384 132 351 c 2
 132 151 l 2xea
 132 84 149 36 203 36 c 0
 258 36 309 67 332 101 c 1
 332 439 l 1
 357 439 383 447 409 450 c 1
 409 127 l 2
 409 62 408 38 435 38 c 0
 448 38 459 53 470 81 c 1
 495 70 l 1
 476 19 454 -10 401 -10 c 0
 362 -10 332 21 332 61 c 1
 291 16 245 -10 183 -10 c 0
 160 -10 136 0 125 13 c 1
 119 13 113 9 113 4 c 0xe6
 113 -63 145 -134 145 -178 c 0
 145 -220 127 -240 103 -240 c 0xf2
EndSplineSet
EndChar

StartChar: paragraph
Encoding: 182 182 118
Width: 616
GlyphClass: 2
Flags: W
HStem: -238 34<381.138 454.555> 627 33<381.62 454.093>
VStem: 325 51<-200.935 292> 459 51<-201.213 621.992>
LayerCount: 2
Fore
SplineSet
376 588 m 2
 376 -165 l 2
 376 -193 393 -204 417 -204 c 0
 441 -204 459 -197 459 -165 c 2
 459 588 l 2
 459 620 441 627 417 627 c 0
 393 627 376 616 376 588 c 2
418 660 m 0
 454 660 519 664 519 664 c 1
 520 660 l 1
 512 606 510 533 510 456 c 2
 510 -33 l 2
 510 -110 512 -180 520 -238 c 1
 518 -241 l 1
 518 -241 452 -238 417 -238 c 0
 382 -238 316 -241 316 -241 c 1
 314 -238 l 1
 322 -180 325 -110 325 -33 c 2
 325 292 l 1
 316 290 307 289 292 289 c 0
 142 289 58 356 58 493 c 0
 58 574 118 663 253 663 c 0
 330 663 390 660 418 660 c 0
EndSplineSet
EndChar

StartChar: periodcentered
Encoding: 183 183 119
Width: 256
GlyphClass: 2
Flags: W
HStem: 202 114<90.25 167.009>
VStem: 71 114<218.147 296.572>
LayerCount: 2
Fore
SplineSet
71 257 m 1
 71 261 l 1
 80 288 95 304 126 316 c 1
 130 316 l 1
 160 305 176 290 185 261 c 1
 185 257 l 1
 175 224 159 209 130 202 c 1
 126 202 l 1
 94 209 80 223 71 257 c 1
EndSplineSet
EndChar

StartChar: cedilla
Encoding: 184 184 120
Width: 553
GlyphClass: 4
Flags: W
HStem: -205 30<230.771 333.052> -98 32<307.309 338.378> -20 20G<289.633 333>
VStem: 343 64<-169.228 -99.6453>
AnchorPoint: "Anchor-2" 304 7 mark 0
LayerCount: 2
Fore
SplineSet
309 -98 m 0
 290 -98 279 -99 263 -104 c 1
 257 -98 l 1
 298 0 l 1
 333 0 l 1
 307 -69 l 1
 315 -67 325 -66 334 -66 c 0
 375 -66 407 -90 407 -129 c 0
 407 -173 359 -205 297 -205 c 0
 264 -205 247 -198 221 -187 c 1
 221 -175 224 -168 231 -161 c 1
 259 -171 271 -175 291 -175 c 0
 322 -175 343 -161 343 -134 c 0
 343 -112 333 -98 309 -98 c 0
EndSplineSet
EndChar

StartChar: one.superior
Encoding: 185 185 121
Width: 393
GlyphClass: 2
Flags: W
HStem: 640 24<116 157.988> 685 20G<217.5 253>
VStem: 185 64<374.362 642.991>
LayerCount: 2
Fore
SplineSet
249 475 m 2
 249 435 251 402 256 373 c 1
 255 371 l 1
 243 372 230 373 216 373 c 0
 203 373 191 372 179 371 c 1
 179 373 l 1
 183 398 185 431 185 475 c 2
 185 608 l 2
 185 631 182 643 175 643 c 0
 151 643 132 642 116 640 c 1
 115 664 l 1
 138 669 183 683 252 705 c 0
 254 705 255 703 255 701 c 0
 251 673 249 644 249 613 c 2
 249 475 l 2
EndSplineSet
EndChar

StartChar: ordmasculine
Encoding: 186 186 122
Width: 357
GlyphClass: 2
Flags: W
HStem: 310 29<141.597 229.055> 554 26<135.868 216.455>
VStem: 40 59<375.021 522.235> 260 58<368.419 520.491>
LayerCount: 2
Fore
SplineSet
40 439 m 0
 40 526 93 580 181 580 c 0
 281 580 318 514 318 445 c 0
 318 375 272 310 176 310 c 0
 100 310 40 365 40 439 c 0
175 554 m 0
 124 554 99 505 99 450 c 0
 99 400 126 339 187 339 c 0
 215 339 260 355 260 429 c 0
 260 511 226 554 175 554 c 0
EndSplineSet
EndChar

StartChar: guillemotright
Encoding: 187 187 123
Width: 556
GlyphClass: 2
Flags: W
LayerCount: 2
Fore
SplineSet
396 220 m 1
 358 264 319 313 266 394 c 1
 269 404 280 413 291 414 c 1
 372 326 423 276 480 226 c 1
 480 214 l 1
 423 164 372 115 291 27 c 1
 280 28 269 36 266 46 c 1
 319 127 358 176 396 220 c 1
212 220 m 1
 174 264 135 313 82 394 c 1
 85 404 95 413 106 414 c 1
 187 326 239 276 296 226 c 1
 296 214 l 1
 239 164 187 115 106 27 c 1
 95 28 85 36 82 46 c 1
 135 127 174 176 212 220 c 1
EndSplineSet
Substitution2: "'case' Case-Sensitive Forms lookup 30 subtable" guillemotright.sc
Substitution2: "'c2sc' Capitals to Small Capitals lookup 15 subtable" guillemotright.sc
AlternateSubs2: "'aalt' Access All Alternates lookup 5 subtable" guillemotright.sc
EndChar

StartChar: onequarter
Encoding: 188 188 124
Width: 675
GlyphClass: 3
LigCaretCntFixed: 1
Flags: W
HStem: 8 36<418 517 582 626.939> 590 23<113 153.006>
VStem: 182 64<324.362 592.991> 517 65<-70.7351 8 44 201 211.554 253.734>
LayerCount: 2
Fore
SplineSet
570 615 m 1
 612 607 l 1
 143 -63 l 1
 100 -55 l 1
 570 615 l 1
407 8 m 2
 387 8 377 10 376 15 c 0
 376 27 378 36 382 41 c 0
 424 97 470 168 522 255 c 1
 522 257 l 1
 526 256 535 255 549 255 c 0
 562 255 574 256 586 257 c 1
 587 255 l 1
 584 228 582 201 582 174 c 2
 582 44 l 1
 621 44 l 2
 626 44 628 40 628 33 c 0
 628 30 627 24 624 18 c 0
 620 11 615 8 612 8 c 2
 582 8 l 1
 582 -19 584 -45 587 -72 c 1
 586 -74 l 1
 574 -73 562 -72 549 -72 c 0
 535 -72 523 -73 511 -74 c 1
 511 -72 l 1
 515 -41 517 -15 517 8 c 1
 407 8 l 2
418 44 m 1
 517 44 l 1
 517 201 l 1
 418 44 l 1
246 425 m 2
 246 385 248 352 253 323 c 1
 252 321 l 1
 240 322 227 323 213 323 c 0
 200 323 188 322 176 321 c 1
 176 323 l 1
 180 348 182 381 182 425 c 2
 182 558 l 2
 182 581 179 593 172 593 c 0
 148 593 129 592 113 590 c 1
 112 613 l 1
 135 618 180 632 249 654 c 0
 251 654 252 653 252 651 c 0
 248 623 246 594 246 563 c 2
 246 425 l 2
EndSplineSet
Ligature2: "'frac' Diagonal Fractions lookup 12 subtable" one slash four
LCarets2: 2 220 434
EndChar

StartChar: onehalf
Encoding: 189 189 125
Width: 675
GlyphClass: 3
LigCaretCntFixed: 1
Flags: W
HStem: -83 56<485 626.629> 222 30<465.028 538.694> 590 23<115 155.006>
VStem: 184 64<324.362 592.991> 555 74<109.017 212.419>
LayerCount: 2
Fore
SplineSet
545 615 m 1
 588 607 l 1
 118 -63 l 1
 76 -55 l 1
 545 615 l 1
439 176 m 1
 426 176 l 1
 415 219 l 1
 417 221 l 2
 440 241 471 252 512 252 c 0
 547 252 575 244 595 230 c 0
 618 215 629 194 629 166 c 0
 629 138 611 107 575 74 c 2
 521 20 l 2
 497 -4 485 -20 485 -27 c 1
 529 -27 l 2
 549 -27 584 -25 631 -22 c 1
 629 -32 628 -43 628 -57 c 0
 628 -64 629 -73 631 -83 c 1
 595 -82 564 -81 537 -81 c 0
 517 -81 474 -82 407 -83 c 1
 406 -81 l 1
 406 -58 430 -20 480 31 c 2
 521 71 l 2
 544 94 555 126 555 167 c 0
 555 183 550 196 539 207 c 0
 529 217 519 222 508 222 c 0
 479 222 456 207 439 176 c 1
248 425 m 2
 248 385 250 352 255 323 c 1
 254 321 l 1
 242 322 229 323 215 323 c 0
 202 323 190 322 178 321 c 1
 178 323 l 1
 182 348 184 381 184 425 c 2
 184 558 l 2
 184 581 181 593 174 593 c 0
 150 593 131 592 115 590 c 1
 114 613 l 1
 137 618 182 632 251 654 c 0
 253 654 254 653 254 651 c 0
 250 623 248 594 248 563 c 2
 248 425 l 2
EndSplineSet
Ligature2: "'frac' Diagonal Fractions lookup 12 subtable" one slash two
LCarets2: 2 213 424
EndChar

StartChar: threequarters
Encoding: 190 190 126
Width: 675
GlyphClass: 3
LigCaretCntFixed: 1
Flags: W
HStem: 10 36<422 521 586 630.939> 314 29<93.7858 173.127> 480 25<115 161.406> 595 20G<560.97 617> 625 27<108.875 176.284>
VStem: 189 64<522.805 614.86> 196 73<356.49 469.7> 521 65<-68.7351 10 46 203 213.554 255.734>
LayerCount: 2
Fore
SplineSet
575 615 m 1xf9
 617 607 l 1
 148 -63 l 1
 105 -55 l 1
 575 615 l 1xf9
173 356 m 0
 188 368 196 389 196 417 c 0xfb
 196 459 175 480 135 480 c 0
 125 480 119 480 115 479 c 1
 115 505 l 1
 165 507 189 530 189 574 c 0
 189 588 185 600 178 610 c 0
 170 620 161 625 151 625 c 0
 133 625 119 620 109 612 c 0
 101 606 92 595 82 577 c 1
 69 577 l 1
 57 620 l 1
 58 623 l 1
 81 643 114 652 155 652 c 0
 183 652 205 647 223 637 c 0
 243 625 253 607 253 583 c 0xfd
 253 539 231 511 188 500 c 1
 188 498 l 1
 211 496 230 488 244 476 c 0
 261 462 269 443 269 419 c 0xfb
 269 383 255 356 226 338 c 0
 202 322 172 314 135 314 c 0
 99 314 70 325 47 345 c 2
 45 347 l 1
 57 390 l 1
 70 391 l 1
 81 372 89 360 94 355 c 0
 104 347 118 343 136 343 c 0
 150 343 163 347 173 356 c 0
411 10 m 2
 391 10 381 12 380 17 c 0
 380 29 382 38 386 43 c 0
 428 99 474 170 526 257 c 1
 526 259 l 1
 530 258 539 257 553 257 c 0
 566 257 578 258 590 259 c 1
 591 257 l 1
 588 230 586 203 586 176 c 2
 586 46 l 1
 625 46 l 2
 630 46 632 42 632 35 c 0
 632 32 631 26 628 20 c 0
 624 13 619 10 616 10 c 2
 586 10 l 1
 586 -17 588 -43 591 -70 c 1
 590 -72 l 1
 578 -71 566 -70 553 -70 c 0
 539 -70 527 -71 515 -72 c 1
 515 -70 l 1
 519 -39 521 -13 521 10 c 1
 411 10 l 2
422 46 m 1
 521 46 l 1
 521 203 l 1
 422 46 l 1
EndSplineSet
Ligature2: "'frac' Diagonal Fractions lookup 12 subtable" three slash four
LCarets2: 2 266 458
EndChar

StartChar: questiondown
Encoding: 191 191 127
Width: 414
GlyphClass: 2
Flags: W
HStem: -236 41<159.88 275.634> 335 115<191.991 269.25>
VStem: 38 77<-152.121 -3.55513> 174 115<354.936 433.4> 218 27<143.165 260.991>
LayerCount: 2
Fore
SplineSet
216 -195 m 0xe8
 273 -195 315 -144 342 -98 c 1
 355 -99 l 1
 372 -168 l 1
 369 -172 l 1
 344 -193 281 -236 207 -236 c 0
 103 -236 38 -174 38 -81 c 0
 38 0 98 45 146 80 c 0
 170 97 191 114 200 131 c 0
 213 157 218 181 218 206 c 2
 218 251 l 2
 218 258 223 261 231 261 c 0
 239 261 245 258 245 251 c 2
 245 204 l 2
 245 160 243 99 176 39 c 0
 135 1 115 -29 115 -77 c 0
 115 -144 158 -195 216 -195 c 0xe8
289 394 m 1xf0
 289 390 l 1
 280 363 264 347 233 335 c 1
 229 335 l 1
 199 346 183 361 174 390 c 1
 174 394 l 1
 184 427 200 443 229 450 c 1
 233 450 l 1
 265 443 280 428 289 394 c 1xf0
EndSplineSet
Substitution2: "'case' Case-Sensitive Forms lookup 30 subtable" questiondown.sc
Substitution2: "'c2sc' Capitals to Small Capitals lookup 15 subtable" questiondown.sc
AlternateSubs2: "'aalt' Access All Alternates lookup 5 subtable" questiondown.sc
EndChar

StartChar: Agrave
Encoding: 192 192 128
Width: 644
GlyphClass: 2
Flags: W
HStem: -3 21G<22 67.5 92 106.5 512 523.5 602.5 619.5> 237 43<203 417> 654 20G<269 394> 715 21G<382 390>
VStem: 16 82<-3 39.3528>
LayerCount: 2
Fore
SplineSet
262 838 m 1
 386 752 l 2
 397 744 401 737 401 730 c 0
 401 722 394 715 386 715 c 0
 378 715 364 718 342 727 c 2
 184 792 l 1
 203 810 227 826 262 838 c 1
417 282 m 1
 389 353 355 437 313 534 c 1
 311 534 l 1
 203 283 l 1
 226 282 280 280 310 280 c 0
 340 280 383 280 417 282 c 1
183 234 m 1
 146 144 115 60 98 -3 c 1
 86 0 63 0 52 0 c 0
 41 0 28 0 16 -3 c 1
 119 223 220 447 318 674 c 1
 347 674 l 1
 441 450 577 100 628 -3 c 1
 611 0 583 0 566 0 c 0
 549 0 532 0 515 -3 c 1
 509 20 486 100 436 234 c 1
 411 236 354 237 315 237 c 0
 280 237 209 236 183 234 c 1
EndSplineSet
Substitution2: "'c2sc' Capitals to Small Capitals lookup 15 subtable" agrave.sc
AlternateSubs2: "'aalt' Access All Alternates lookup 5 subtable" agrave.sc
Position2: "'cpsp' Capital Spacing lookup 0 subtable" dx=5 dy=0 dh=10 dv=0
EndChar

StartChar: Aacute
Encoding: 193 193 129
Width: 644
GlyphClass: 2
Flags: W
HStem: -3 21G<22 67.5 92 106.5 512 523.5 602.5 619.5> 237 43<203 417> 654 20G<269 394> 715 21G<244.5 253.5>
VStem: 16 82<-3 39.3528>
LayerCount: 2
Fore
SplineSet
376 840 m 1
 405 826 426 808 439 786 c 1
 292 727 l 2
 270 718 258 715 249 715 c 0
 240 715 233 722 233 730 c 0
 233 737 236 743 249 752 c 2
 376 840 l 1
417 282 m 1
 389 353 355 437 313 534 c 1
 311 534 l 1
 203 283 l 1
 226 282 280 280 310 280 c 0
 340 280 383 280 417 282 c 1
183 234 m 1
 146 144 115 60 98 -3 c 1
 86 0 63 0 52 0 c 0
 41 0 28 0 16 -3 c 1
 119 223 220 447 318 674 c 1
 347 674 l 1
 441 450 577 100 628 -3 c 1
 611 0 583 0 566 0 c 0
 549 0 532 0 515 -3 c 1
 509 20 486 100 436 234 c 1
 411 236 354 237 315 237 c 0
 280 237 209 236 183 234 c 1
EndSplineSet
Substitution2: "'c2sc' Capitals to Small Capitals lookup 15 subtable" aacute.sc
AlternateSubs2: "'aalt' Access All Alternates lookup 5 subtable" aacute.sc
Position2: "'cpsp' Capital Spacing lookup 0 subtable" dx=5 dy=0 dh=10 dv=0
EndChar

StartChar: Acircumflex
Encoding: 194 194 130
Width: 644
GlyphClass: 2
Flags: W
HStem: -3 21G<22 67.5 92 106.5 512 523.5 602.5 619.5> 237 43<203 417> 654 20G<269 394> 707 21G<209.667 242.5 421 457.19>
VStem: 16 82<-3 39.3528>
LayerCount: 2
Fore
SplineSet
354 824 m 1
 385 787 421 756 458 728 c 1
 441 707 l 1
 401 725 367 744 333 770 c 1
 295 742 262 724 223 707 c 1
 209 728 l 1
 247 757 278 789 310 824 c 1
 354 824 l 1
417 282 m 1
 389 353 355 437 313 534 c 1
 311 534 l 1
 203 283 l 1
 226 282 280 280 310 280 c 0
 340 280 383 280 417 282 c 1
183 234 m 1
 146 144 115 60 98 -3 c 1
 86 0 63 0 52 0 c 0
 41 0 28 0 16 -3 c 1
 119 223 220 447 318 674 c 1
 347 674 l 1
 441 450 577 100 628 -3 c 1
 611 0 583 0 566 0 c 0
 549 0 532 0 515 -3 c 1
 509 20 486 100 436 234 c 1
 411 236 354 237 315 237 c 0
 280 237 209 236 183 234 c 1
EndSplineSet
Substitution2: "'c2sc' Capitals to Small Capitals lookup 15 subtable" acircumflex.sc
AlternateSubs2: "'aalt' Access All Alternates lookup 5 subtable" acircumflex.sc
Position2: "'cpsp' Capital Spacing lookup 0 subtable" dx=5 dy=0 dh=10 dv=0
EndChar

StartChar: Atilde
Encoding: 195 195 131
Width: 644
GlyphClass: 2
Flags: W
HStem: -3 21G<22 67.5 92 106.5 512 523.5 602.5 619.5> 237 43<203 417> 654 20G<269 394> 717 45<350.084 441.605> 766 47<230.413 323.979>
VStem: 16 82<-3 39.3528> 195 24<720.507 745.49> 455 24<787.533 810.792>
LayerCount: 2
Fore
SplineSet
403 762 m 0
 426 762 441 772 455 815 c 1
 479 809 l 1
 467 748 437 717 390 717 c 0
 367 717 347 729 325 743 c 0
 307 754 286 766 269 766 c 0
 242 766 229 751 219 717 c 1
 195 722 l 1
 209 782 232 813 276 813 c 0
 307 813 330 798 350 784 c 0
 366 772 384 762 403 762 c 0
417 282 m 1
 389 353 355 437 313 534 c 1
 311 534 l 1
 203 283 l 1
 226 282 280 280 310 280 c 0
 340 280 383 280 417 282 c 1
183 234 m 1
 146 144 115 60 98 -3 c 1
 86 0 63 0 52 0 c 0
 41 0 28 0 16 -3 c 1
 119 223 220 447 318 674 c 1
 347 674 l 1
 441 450 577 100 628 -3 c 1
 611 0 583 0 566 0 c 0
 549 0 532 0 515 -3 c 1
 509 20 486 100 436 234 c 1
 411 236 354 237 315 237 c 0
 280 237 209 236 183 234 c 1
EndSplineSet
Substitution2: "'c2sc' Capitals to Small Capitals lookup 15 subtable" atilde.sc
AlternateSubs2: "'aalt' Access All Alternates lookup 5 subtable" atilde.sc
Position2: "'cpsp' Capital Spacing lookup 0 subtable" dx=5 dy=0 dh=10 dv=0
EndChar

StartChar: Adieresis
Encoding: 196 196 132
Width: 644
GlyphClass: 2
Flags: W
HStem: -3 21G<22 67.5 92 106.5 512 523.5 602.5 619.5> 237 43<203 417> 654 20G<269 394> 680 92<153.068 233.479 434.794 514.479>
VStem: 16 82<-3 39.3528> 146 94<687.099 764.901> 428 93<687.099 764.901>
LayerCount: 2
Fore
SplineSet
146 726 m 0
 146 752 168 772 194 772 c 0
 220 772 240 752 240 726 c 0
 240 700 220 680 194 680 c 0
 168 680 146 700 146 726 c 0
428 726 m 0
 428 752 449 772 475 772 c 0
 501 772 521 752 521 726 c 0
 521 700 501 680 475 680 c 0
 449 680 428 700 428 726 c 0
417 282 m 1
 389 353 355 437 313 534 c 1
 311 534 l 1
 203 283 l 1
 226 282 280 280 310 280 c 0
 340 280 383 280 417 282 c 1
183 234 m 1
 146 144 115 60 98 -3 c 1
 86 0 63 0 52 0 c 0
 41 0 28 0 16 -3 c 1
 119 223 220 447 318 674 c 1
 347 674 l 1
 441 450 577 100 628 -3 c 1
 611 0 583 0 566 0 c 0
 549 0 532 0 515 -3 c 1
 509 20 486 100 436 234 c 1
 411 236 354 237 315 237 c 0
 280 237 209 236 183 234 c 1
EndSplineSet
Substitution2: "'ss01' Style Set 1 lookup 26 subtable" Adieresis.alt
Substitution2: "'c2sc' Capitals to Small Capitals lookup 15 subtable" adieresis.sc
AlternateSubs2: "'aalt' Access All Alternates lookup 5 subtable" adieresis.sc
Position2: "'cpsp' Capital Spacing lookup 0 subtable" dx=5 dy=0 dh=10 dv=0
EndChar

StartChar: Aring
Encoding: 197 197 133
Width: 644
GlyphClass: 2
Flags: W
HStem: -3 21G<22 66 92 106.5 512 523.5 603.5 619.5> 237 43<203 417> 788 28<298.116 366.131>
VStem: 16 82<-3 37.8416> 243 38<686.087 775.818> 383 38<686.645 775.774> 515 113<-3 43.7424>
LayerCount: 2
Fore
SplineSet
332 788 m 0
 300 788 281 762 281 731 c 0
 281 702 300 674 332 674 c 0
 364 674 383 702 383 731 c 0
 383 763 363 788 332 788 c 0
243 731 m 0
 243 778 285 816 332 816 c 0
 379 816 421 779 421 731 c 0
 421 693 394 661 357 650 c 1
 450 426 579 97 628 -3 c 1
 611 0 583 0 566 0 c 0
 549 0 532 0 515 -3 c 1
 509 20 486 100 436 234 c 1
 411 236 354 237 315 237 c 0
 280 237 209 236 183 234 c 1
 146 144 115 60 98 -3 c 1
 86 0 63 0 52 0 c 0
 41 0 28 0 16 -3 c 1
 116 215 213 430 308 649 c 1
 271 659 243 692 243 731 c 0
417 282 m 1
 389 353 355 437 313 534 c 1
 311 534 l 1
 203 283 l 1
 226 282 280 280 310 280 c 0
 340 280 383 280 417 282 c 1
EndSplineSet
Substitution2: "'c2sc' Capitals to Small Capitals lookup 15 subtable" aring.sc
AlternateSubs2: "'aalt' Access All Alternates lookup 5 subtable" aring.sc
Position2: "'cpsp' Capital Spacing lookup 0 subtable" dx=5 dy=0 dh=10 dv=0
EndChar

StartChar: AE
Encoding: 198 198 134
Width: 821
GlyphClass: 2
Flags: W
HStem: 0 57<546.282 769.245> 287 45<251 407> 298 43<492 695.434> 609 51<436.269 708.244>
AnchorPoint: "Anchor-5" 330 717 basechar 0
AnchorPoint: "Anchor-4" 330 817 basechar 0
AnchorPoint: "Anchor-3" 276 -111 basechar 0
AnchorPoint: "Anchor-2" 59 8 basechar 0
LayerCount: 2
Fore
SplineSet
227 285 m 1xd0
 174 176 128 71 100 -3 c 1
 88 0 65 0 54 0 c 0
 43 0 30 0 18 -3 c 1
 127 205 227 420 375 661 c 1
 377 664 l 1
 377 664 394 660 429 660 c 2
 647 660 l 2
 669 660 693 662 709 664 c 1
 711 660 l 1
 710 646 709 637 709 629 c 0
 709 620 710 610 711 602 c 1
 709 598 l 1
 709 598 629 609 521 609 c 0
 444 609 430 600 435 559 c 0
 450 487 466 412 482 341 c 1
 597 341 653 346 712 351 c 1
 715 348 l 1
 713 339 712 328 712 319 c 0
 712 310 713 300 715 291 c 1
 712 288 l 1
 649 294 548 297 492 298 c 1xb0
 514 205 535 120 552 57 c 1
 654 60 770 68 770 68 c 1
 772 63 l 1
 771 55 770 40 770 30 c 0
 770 20 771 14 772 0 c 1
 770 -3 l 1
 754 -1 731 0 709 0 c 2
 568 0 l 1
 567 0 l 1
 512 0 l 2
 495 0 478 0 461 -3 c 1
 461 34 447 120 416 286 c 1
 393 286 370 287 348 287 c 0
 316 287 265 286 227 285 c 1xd0
407 332 m 1xd0
 395 393 381 464 365 546 c 1
 363 546 l 1
 326 480 287 408 251 334 c 1
 281 333 318 332 343 332 c 0
 361 332 384 332 407 332 c 1xd0
EndSplineSet
Substitution2: "'c2sc' Capitals to Small Capitals lookup 15 subtable" ae.sc
AlternateSubs2: "'aalt' Access All Alternates lookup 5 subtable" ae.sc
Position2: "'cpsp' Capital Spacing lookup 0 subtable" dx=5 dy=0 dh=10 dv=0
EndChar

StartChar: Ccedilla
Encoding: 199 199 135
Width: 693
GlyphClass: 2
Flags: W
HStem: -209 30<297.771 399.818> -102 32<374.309 405.822> -10 52<305.623 362 397 502.198> 626 48<292.978 483.106>
VStem: 53 106<213.781 446.198> 410 63<-172.19 -103.645>
LayerCount: 2
Fore
SplineSet
376 -102 m 0
 357 -102 346 -104 330 -109 c 1
 324 -102 l 1
 362 -10 l 1
 151 -4 53 149 53 323 c 0
 53 525 216 674 389 674 c 0
 514 674 612 623 612 623 c 1
 614 620 l 1
 603 576 600 558 596 506 c 1
 584 505 l 1
 542 589 467 626 375 626 c 0
 291 626 159 550 159 342 c 0
 159 182 254 42 384 42 c 0
 479 42 540 68 613 148 c 1
 621 145 l 1
 625 136 626 114 627 102 c 1
 564 26 483 -6 397 -10 c 1
 374 -73 l 1
 382 -71 391 -70 400 -70 c 0
 441 -70 473 -94 473 -133 c 0
 473 -177 426 -209 364 -209 c 0
 331 -209 314 -202 288 -191 c 1
 288 -179 291 -172 298 -165 c 1
 326 -175 337 -179 357 -179 c 0
 388 -179 410 -165 410 -138 c 0
 410 -116 400 -102 376 -102 c 0
EndSplineSet
Substitution2: "'c2sc' Capitals to Small Capitals lookup 15 subtable" ccedilla.sc
AlternateSubs2: "'aalt' Access All Alternates lookup 5 subtable" ccedilla.sc
Position2: "'cpsp' Capital Spacing lookup 0 subtable" dx=5 dy=0 dh=10 dv=0
EndChar

StartChar: Egrave
Encoding: 200 200 136
Width: 550
GlyphClass: 2
Flags: W
HStem: 0 57<199.662 427.939> 325 51<195 414.639> 603 57<199.662 429.162> 714 21G<371 379>
VStem: 106 89<59.46 325 376 601.77>
AnchorPoint: "Anchor-3" 286 -110 basechar 0
AnchorPoint: "Anchor-2" 286 4 basechar 0
LayerCount: 2
Fore
SplineSet
195 205 m 2
 195 188 196 82 203 57 c 1
 340 57 492 70 492 70 c 1
 494 66 l 1
 493 58 492 42 492 32 c 0
 492 22 493 14 494 0 c 1
 492 -3 l 1
 476 -1 452 0 430 0 c 2
 151 0 l 2
 115 0 97 -3 97 -3 c 1
 96 0 l 1
 104 55 106 128 106 205 c 2
 106 456 l 2
 106 533 104 602 96 660 c 1
 98 664 l 1
 98 664 116 660 151 660 c 2
 420 660 l 2
 442 660 465 662 481 664 c 1
 483 660 l 1
 482 646 481 630 481 622 c 0
 481 613 482 603 483 595 c 1
 481 591 l 1
 481 591 340 603 203 603 c 1
 196 578 195 473 195 456 c 2
 195 376 l 1
 316 376 363 381 423 386 c 1
 426 383 l 1
 424 374 423 359 423 350 c 0
 423 341 424 326 426 317 c 1
 423 314 l 1
 352 321 244 325 195 325 c 1
 195 205 l 2
251 837 m 1
 375 751 l 2
 386 743 390 736 390 729 c 0
 390 721 383 714 375 714 c 0
 367 714 353 717 331 726 c 2
 173 791 l 1
 192 809 216 825 251 837 c 1
EndSplineSet
Substitution2: "'c2sc' Capitals to Small Capitals lookup 15 subtable" egrave.sc
AlternateSubs2: "'aalt' Access All Alternates lookup 5 subtable" egrave.sc
Position2: "'cpsp' Capital Spacing lookup 0 subtable" dx=5 dy=0 dh=10 dv=0
EndChar

StartChar: Eacute
Encoding: 201 201 137
Width: 550
GlyphClass: 2
Flags: W
HStem: 0 57<199.662 427.939> 325 51<195 414.639> 603 57<199.662 429.162> 715 21G<226.5 235.5>
VStem: 106 89<59.46 325 376 601.77>
AnchorPoint: "Anchor-3" 286 -110 basechar 0
AnchorPoint: "Anchor-2" 286 4 basechar 0
LayerCount: 2
Fore
SplineSet
195 205 m 2
 195 188 196 82 203 57 c 1
 340 57 492 70 492 70 c 1
 494 66 l 1
 493 58 492 42 492 32 c 0
 492 22 493 14 494 0 c 1
 492 -3 l 1
 476 -1 452 0 430 0 c 2
 151 0 l 2
 115 0 97 -3 97 -3 c 1
 96 0 l 1
 104 55 106 128 106 205 c 2
 106 456 l 2
 106 533 104 602 96 660 c 1
 98 664 l 1
 98 664 116 660 151 660 c 2
 420 660 l 2
 442 660 465 662 481 664 c 1
 483 660 l 1
 482 646 481 630 481 622 c 0
 481 613 482 603 483 595 c 1
 481 591 l 1
 481 591 340 603 203 603 c 1
 196 578 195 473 195 456 c 2
 195 376 l 1
 316 376 363 381 423 386 c 1
 426 383 l 1
 424 374 423 359 423 350 c 0
 423 341 424 326 426 317 c 1
 423 314 l 1
 352 321 244 325 195 325 c 1
 195 205 l 2
358 840 m 1
 387 826 409 808 422 786 c 1
 274 727 l 2
 252 718 240 715 231 715 c 0
 222 715 216 722 216 730 c 0
 216 737 218 743 231 752 c 2
 358 840 l 1
EndSplineSet
Substitution2: "'c2sc' Capitals to Small Capitals lookup 15 subtable" eacute.sc
AlternateSubs2: "'aalt' Access All Alternates lookup 5 subtable" eacute.sc
Position2: "'cpsp' Capital Spacing lookup 0 subtable" dx=5 dy=0 dh=10 dv=0
EndChar

StartChar: Ecircumflex
Encoding: 202 202 138
Width: 550
GlyphClass: 2
Flags: W
HStem: 0 57<199.662 427.939> 325 51<195 414.639> 603 57<199.662 429.162> 707 21G<179.714 213.5 392 427.238>
VStem: 106 89<59.46 325 376 601.77>
LayerCount: 2
Fore
SplineSet
325 824 m 1
 356 787 391 756 428 728 c 1
 412 707 l 1
 372 725 337 744 303 770 c 1
 265 742 233 724 194 707 c 1
 179 728 l 1
 217 757 249 789 281 824 c 1
 325 824 l 1
195 205 m 2
 195 188 196 82 203 57 c 1
 340 57 492 70 492 70 c 1
 494 66 l 1
 493 58 492 42 492 32 c 0
 492 22 493 14 494 0 c 1
 492 -3 l 1
 476 -1 452 0 430 0 c 2
 151 0 l 2
 115 0 97 -3 97 -3 c 1
 96 0 l 1
 104 55 106 128 106 205 c 2
 106 456 l 2
 106 533 104 602 96 660 c 1
 98 664 l 1
 98 664 116 660 151 660 c 2
 420 660 l 2
 442 660 465 662 481 664 c 1
 483 660 l 1
 482 646 481 630 481 622 c 0
 481 613 482 603 483 595 c 1
 481 591 l 1
 481 591 340 603 203 603 c 1
 196 578 195 473 195 456 c 2
 195 376 l 1
 316 376 363 381 423 386 c 1
 426 383 l 1
 424 374 423 359 423 350 c 0
 423 341 424 326 426 317 c 1
 423 314 l 1
 352 321 244 325 195 325 c 1
 195 205 l 2
EndSplineSet
Substitution2: "'c2sc' Capitals to Small Capitals lookup 15 subtable" ecircumflex.sc
AlternateSubs2: "'aalt' Access All Alternates lookup 5 subtable" ecircumflex.sc
Position2: "'cpsp' Capital Spacing lookup 0 subtable" dx=5 dy=0 dh=10 dv=0
EndChar

StartChar: Edieresis
Encoding: 203 203 139
Width: 550
GlyphClass: 2
Flags: W
HStem: 0 57<199.662 427.939> 325 51<195 414.639> 603 57<199.662 429.162> 720 98<156.701 238.615 350.385 431.615>
VStem: 106 89<59.46 325 376 601.77> 148 99<728.385 809.615> 342 98<728.385 809.615>
LayerCount: 2
Fore
SplineSet
342 769 m 0xf2
 342 796 364 818 391 818 c 0
 418 818 440 796 440 769 c 0
 440 742 418 720 391 720 c 0
 364 720 342 742 342 769 c 0xf2
148 769 m 0xf6
 148 796 171 818 198 818 c 0
 225 818 247 796 247 769 c 0
 247 742 225 720 198 720 c 0
 171 720 148 742 148 769 c 0xf6
195 205 m 2xfa
 195 188 196 82 203 57 c 1
 340 57 492 70 492 70 c 1
 494 66 l 1
 493 58 492 42 492 32 c 0
 492 22 493 14 494 0 c 1
 492 -3 l 1
 476 -1 452 0 430 0 c 2
 151 0 l 2
 115 0 97 -3 97 -3 c 1
 96 0 l 1
 104 55 106 128 106 205 c 2
 106 456 l 2
 106 533 104 602 96 660 c 1
 98 664 l 1
 98 664 116 660 151 660 c 2
 420 660 l 2
 442 660 465 662 481 664 c 1
 483 660 l 1
 482 646 481 630 481 622 c 0
 481 613 482 603 483 595 c 1
 481 591 l 1
 481 591 340 603 203 603 c 1
 196 578 195 473 195 456 c 2
 195 376 l 1
 316 376 363 381 423 386 c 1
 426 383 l 1
 424 374 423 359 423 350 c 0
 423 341 424 326 426 317 c 1
 423 314 l 1
 352 321 244 325 195 325 c 1
 195 205 l 2xfa
EndSplineSet
Substitution2: "'c2sc' Capitals to Small Capitals lookup 15 subtable" edieresis.sc
AlternateSubs2: "'aalt' Access All Alternates lookup 5 subtable" edieresis.sc
Position2: "'cpsp' Capital Spacing lookup 0 subtable" dx=5 dy=0 dh=10 dv=0
EndChar

StartChar: Igrave
Encoding: 204 204 140
Width: 301
GlyphClass: 2
Flags: W
HStem: -3 21G<96 104 197 205> 644 20G<96 104 197 205> 714 21G<221 229>
VStem: 106 89<2.72752 657.273>
LayerCount: 2
Fore
SplineSet
106 456 m 2
 106 533 104 602 96 660 c 1
 98 664 l 1
 110 662 139 660 151 660 c 0
 163 660 191 662 203 664 c 1
 205 660 l 1
 197 606 195 533 195 456 c 2
 195 205 l 2
 195 128 197 58 205 0 c 1
 203 -3 l 1
 191 -1 163 0 151 0 c 0
 139 0 110 -1 98 -3 c 1
 96 0 l 1
 104 55 106 128 106 205 c 2
 106 456 l 2
101 837 m 1
 225 751 l 2
 236 743 241 736 241 729 c 0
 241 721 233 714 225 714 c 0
 217 714 203 717 181 726 c 2
 24 791 l 1
 43 809 66 825 101 837 c 1
EndSplineSet
Substitution2: "'c2sc' Capitals to Small Capitals lookup 15 subtable" igrave.sc
AlternateSubs2: "'aalt' Access All Alternates lookup 5 subtable" igrave.sc
Position2: "'cpsp' Capital Spacing lookup 0 subtable" dx=5 dy=0 dh=10 dv=0
EndChar

StartChar: Iacute
Encoding: 205 205 141
Width: 301
GlyphClass: 2
Flags: W
HStem: -3 21G<96 104 197 205> 644 20G<96 104 197 205> 714 21G<83.5 92.5>
VStem: 106 89<2.72752 657.273>
LayerCount: 2
Fore
SplineSet
106 456 m 2
 106 533 104 602 96 660 c 1
 98 664 l 1
 110 662 139 660 151 660 c 0
 163 660 191 662 203 664 c 1
 205 660 l 1
 197 606 195 533 195 456 c 2
 195 205 l 2
 195 128 197 58 205 0 c 1
 203 -3 l 1
 191 -1 163 0 151 0 c 0
 139 0 110 -1 98 -3 c 1
 96 0 l 1
 104 55 106 128 106 205 c 2
 106 456 l 2
215 839 m 1
 244 825 266 807 279 785 c 1
 131 726 l 2
 109 717 97 714 88 714 c 0
 79 714 73 721 73 729 c 0
 73 736 75 742 88 751 c 2
 215 839 l 1
EndSplineSet
Substitution2: "'c2sc' Capitals to Small Capitals lookup 15 subtable" iacute.sc
AlternateSubs2: "'aalt' Access All Alternates lookup 5 subtable" iacute.sc
Position2: "'cpsp' Capital Spacing lookup 0 subtable" dx=5 dy=0 dh=10 dv=0
EndChar

StartChar: Icircumflex
Encoding: 206 206 142
Width: 301
GlyphClass: 2
Flags: W
HStem: -3 21G<96 104 197 205> 644 20G<96 104 197 205> 707 21G<26.6667 59.5 238 273.238>
VStem: 106 89<2.72752 657.273>
LayerCount: 2
Fore
SplineSet
171 824 m 1
 202 787 237 756 274 728 c 1
 258 707 l 1
 218 725 184 744 150 770 c 1
 112 742 79 724 40 707 c 1
 26 728 l 1
 64 757 95 789 127 824 c 1
 171 824 l 1
106 456 m 2
 106 533 104 602 96 660 c 1
 98 664 l 1
 110 662 139 660 151 660 c 0
 163 660 191 662 203 664 c 1
 205 660 l 1
 197 606 195 533 195 456 c 2
 195 205 l 2
 195 128 197 58 205 0 c 1
 203 -3 l 1
 191 -1 163 0 151 0 c 0
 139 0 110 -1 98 -3 c 1
 96 0 l 1
 104 55 106 128 106 205 c 2
 106 456 l 2
EndSplineSet
Substitution2: "'c2sc' Capitals to Small Capitals lookup 15 subtable" icircumflex.sc
AlternateSubs2: "'aalt' Access All Alternates lookup 5 subtable" icircumflex.sc
Position2: "'cpsp' Capital Spacing lookup 0 subtable" dx=5 dy=0 dh=10 dv=0
EndChar

StartChar: Idieresis
Encoding: 207 207 143
Width: 301
GlyphClass: 2
Flags: W
HStem: -3 21G<96 104 197 205> 644 20G<96 104 197 205> 719 98<21.3848 103.299 215.385 296.615>
VStem: 13 99<727.385 808.615> 106 89<2.72752 657.273> 207 98<727.385 808.615>
LayerCount: 2
Fore
SplineSet
207 768 m 0xe4
 207 795 229 817 256 817 c 0
 283 817 305 795 305 768 c 0
 305 741 283 719 256 719 c 0
 229 719 207 741 207 768 c 0xe4
13 768 m 0xf4
 13 795 35 817 62 817 c 0
 89 817 112 795 112 768 c 0
 112 741 89 719 62 719 c 0
 35 719 13 741 13 768 c 0xf4
106 456 m 2xec
 106 533 104 602 96 660 c 1
 98 664 l 1
 110 662 139 660 151 660 c 0
 163 660 191 662 203 664 c 1
 205 660 l 1
 197 606 195 533 195 456 c 2
 195 205 l 2
 195 128 197 58 205 0 c 1
 203 -3 l 1
 191 -1 163 0 151 0 c 0
 139 0 110 -1 98 -3 c 1
 96 0 l 1
 104 55 106 128 106 205 c 2
 106 456 l 2xec
EndSplineSet
Substitution2: "'c2sc' Capitals to Small Capitals lookup 15 subtable" idieresis.sc
AlternateSubs2: "'aalt' Access All Alternates lookup 5 subtable" idieresis.sc
Position2: "'cpsp' Capital Spacing lookup 0 subtable" dx=5 dy=0 dh=10 dv=0
EndChar

StartChar: Eth
Encoding: 208 208 144
Width: 727
GlyphClass: 2
Flags: W
HStem: -2 45<197.817 444.07> 294 40<17 106 195 295> 618 46<199.272 399.465>
VStem: 106 89<50.3663 294 334 608.519> 568 106<183.96 431.907>
LayerCount: 2
Fore
SplineSet
195 84 m 2
 195 51 206 43 306 43 c 0
 450 43 568 84 568 291 c 0
 568 449 502 618 281 618 c 0
 231 618 195 614 195 578 c 2
 195 334 l 1
 295 334 l 1
 295 294 l 1
 195 294 l 1
 195 84 l 2
151 660 m 0
 217 660 253 664 319 664 c 0
 516 664 674 505 674 315 c 0
 674 63 482 -2 338 -2 c 0
 233 -2 224 0 151 0 c 0
 115 0 97 -3 97 -3 c 1
 96 0 l 1
 104 55 106 128 106 205 c 2
 106 294 l 1
 17 294 l 1
 17 334 l 1
 106 334 l 1
 106 456 l 2
 106 533 104 602 96 660 c 1
 98 664 l 1
 98 664 116 660 151 660 c 0
EndSplineSet
Substitution2: "'c2sc' Capitals to Small Capitals lookup 15 subtable" eth.sc
AlternateSubs2: "'aalt' Access All Alternates lookup 5 subtable" eth.sc
Position2: "'cpsp' Capital Spacing lookup 0 subtable" dx=5 dy=0 dh=10 dv=0
EndChar

StartChar: Ntilde
Encoding: 209 209 145
Width: 735
GlyphClass: 2
Flags: W
HStem: -3 14G<100 108 168 176 599 614> 644 20G<111 113 170 185.429 571 579 639 647> 715 45<373.754 464.466> 764 47<254.221 346.933>
VStem: 111 55<442.177 488.032> 218 25<718.566 743.586> 478 25<785.533 808.72> 582 65<429.424 657.273> 582 45<158.772 237.269>
LayerCount: 2
Fore
SplineSet
427 760 m 0xfe
 450 760 464 770 478 813 c 1
 503 807 l 1
 491 746 461 715 414 715 c 0
 391 715 370 727 348 741 c 0
 330 752 310 764 293 764 c 0
 266 764 253 749 243 715 c 1
 218 720 l 1
 232 780 256 811 300 811 c 0
 331 811 354 796 374 782 c 0
 390 770 408 760 427 760 c 0xfe
111 660 m 1
 113 664 l 1
 113 664 121 660 156 660 c 0
 161 660 170 663 170 663 c 1
 521 208 l 2
 565 151 581 126 582 182 c 2xfe80
 582 456 l 2
 582 533 579 602 571 660 c 1
 573 664 l 1
 585 662 597 660 609 660 c 0
 621 660 633 662 645 664 c 1
 647 660 l 1xff
 631 433 632 255 627 22 c 0xfe80
 626 3 621 -10 607 -10 c 0
 591 -10 574 -1 563 14 c 2
 206 466 l 2
 168 515 166 512 166 450 c 2
 166 205 l 2
 166 128 168 58 176 0 c 1
 174 -3 l 1
 162 -1 150 0 138 0 c 0
 126 0 114 -1 102 -3 c 1
 100 0 l 1
 116 163 120 465 111 660 c 1
EndSplineSet
Substitution2: "'c2sc' Capitals to Small Capitals lookup 15 subtable" ntilde.sc
AlternateSubs2: "'aalt' Access All Alternates lookup 5 subtable" ntilde.sc
Position2: "'cpsp' Capital Spacing lookup 0 subtable" dx=5 dy=0 dh=10 dv=0
EndChar

StartChar: Ograve
Encoding: 210 210 146
Width: 758
GlyphClass: 2
Flags: W
HStem: -10 45<304.6 482.26> 629 45<278.26 467.437> 716 21G<431 439>
VStem: 53 106<200.96 449.571> 600 106<203.311 461.259>
LayerCount: 2
Fore
SplineSet
364 629 m 0
 266 629 159 550 159 335 c 0
 159 138 275 35 398 35 c 0
 515 35 600 134 600 317 c 0
 600 530 508 629 364 629 c 0
706 337 m 0
 706 132 574 -10 378 -10 c 0
 202 -10 53 115 53 317 c 0
 53 518 194 674 377 674 c 0
 561 674 706 540 706 337 c 0
311 839 m 1
 435 753 l 2
 446 745 451 738 451 731 c 0
 451 723 443 716 435 716 c 0
 427 716 413 719 391 728 c 2
 233 793 l 1
 252 811 276 827 311 839 c 1
EndSplineSet
Substitution2: "'c2sc' Capitals to Small Capitals lookup 15 subtable" ograve.sc
AlternateSubs2: "'aalt' Access All Alternates lookup 5 subtable" ograve.sc
Position2: "'cpsp' Capital Spacing lookup 0 subtable" dx=5 dy=0 dh=10 dv=0
EndChar

StartChar: Oacute
Encoding: 211 211 147
Width: 758
GlyphClass: 2
Flags: W
HStem: -10 45<304.6 482.26> 629 45<278.26 467.437> 715 21G<264.5 273.5>
VStem: 53 106<200.96 449.571> 600 106<203.311 461.259>
LayerCount: 2
Fore
SplineSet
364 629 m 0
 266 629 159 550 159 335 c 0
 159 138 275 35 398 35 c 0
 515 35 600 134 600 317 c 0
 600 530 508 629 364 629 c 0
706 337 m 0
 706 132 574 -10 378 -10 c 0
 202 -10 53 115 53 317 c 0
 53 518 194 674 377 674 c 0
 561 674 706 540 706 337 c 0
396 840 m 1
 425 826 447 808 460 786 c 1
 312 727 l 2
 290 718 278 715 269 715 c 0
 260 715 254 722 254 730 c 0
 254 737 256 743 269 752 c 2
 396 840 l 1
EndSplineSet
Substitution2: "'c2sc' Capitals to Small Capitals lookup 15 subtable" oacute.sc
AlternateSubs2: "'aalt' Access All Alternates lookup 5 subtable" oacute.sc
Position2: "'cpsp' Capital Spacing lookup 0 subtable" dx=5 dy=0 dh=10 dv=0
EndChar

StartChar: Ocircumflex
Encoding: 212 212 148
Width: 758
GlyphClass: 2
Flags: W
HStem: -10 45<304.6 482.26> 629 45<278.26 467.437> 707 21G<252.667 285.5 464 500.19>
VStem: 53 106<200.96 449.571> 600 106<203.311 461.259>
LayerCount: 2
Fore
SplineSet
397 824 m 1
 428 787 464 756 501 728 c 1
 484 707 l 1
 444 725 410 744 376 770 c 1
 338 742 305 724 266 707 c 1
 252 728 l 1
 290 757 321 789 353 824 c 1
 397 824 l 1
364 629 m 0
 266 629 159 550 159 335 c 0
 159 138 275 35 398 35 c 0
 515 35 600 134 600 317 c 0
 600 530 508 629 364 629 c 0
706 337 m 0
 706 132 574 -10 378 -10 c 0
 202 -10 53 115 53 317 c 0
 53 518 194 674 377 674 c 0
 561 674 706 540 706 337 c 0
EndSplineSet
Substitution2: "'c2sc' Capitals to Small Capitals lookup 15 subtable" ocircumflex.sc
AlternateSubs2: "'aalt' Access All Alternates lookup 5 subtable" ocircumflex.sc
Position2: "'cpsp' Capital Spacing lookup 0 subtable" dx=5 dy=0 dh=10 dv=0
EndChar

StartChar: Otilde
Encoding: 213 213 149
Width: 758
GlyphClass: 2
Flags: W
HStem: -10 45<304.6 482.26> 629 45<278.26 467.437> 715 45<381.754 472.466> 764 47<262.221 354.933>
VStem: 53 106<200.96 449.571> 226 25<718.566 743.586> 486 25<785.533 808.72> 600 106<203.311 461.259>
LayerCount: 2
Fore
SplineSet
435 760 m 0
 458 760 472 770 486 813 c 1
 511 807 l 1
 499 746 469 715 422 715 c 0
 399 715 378 727 356 741 c 0
 338 752 318 764 301 764 c 0
 274 764 261 749 251 715 c 1
 226 720 l 1
 240 780 264 811 308 811 c 0
 339 811 362 796 382 782 c 0
 398 770 416 760 435 760 c 0
364 629 m 0
 266 629 159 550 159 335 c 0
 159 138 275 35 398 35 c 0
 515 35 600 134 600 317 c 0
 600 530 508 629 364 629 c 0
706 337 m 0
 706 132 574 -10 378 -10 c 0
 202 -10 53 115 53 317 c 0
 53 518 194 674 377 674 c 0
 561 674 706 540 706 337 c 0
EndSplineSet
Substitution2: "'c2sc' Capitals to Small Capitals lookup 15 subtable" otilde.sc
AlternateSubs2: "'aalt' Access All Alternates lookup 5 subtable" otilde.sc
Position2: "'cpsp' Capital Spacing lookup 0 subtable" dx=5 dy=0 dh=10 dv=0
EndChar

StartChar: Odieresis
Encoding: 214 214 150
Width: 758
GlyphClass: 2
Flags: W
HStem: -10 45<304.6 482.26> 629 45<278.26 467.437> 680 92<102.794 182.479 576.521 656.206>
VStem: 53 106<200.96 449.571> 96 93<687.099 764.901> 570 93<687.099 764.901> 600 106<203.311 461.259>
LayerCount: 2
Fore
SplineSet
96 726 m 0xe8
 96 752 117 772 143 772 c 0
 169 772 189 752 189 726 c 0
 189 700 169 680 143 680 c 0
 117 680 96 700 96 726 c 0xe8
570 726 m 0xe4
 570 752 590 772 616 772 c 0
 642 772 663 752 663 726 c 0
 663 700 642 680 616 680 c 0
 590 680 570 700 570 726 c 0xe4
364 629 m 0
 266 629 159 550 159 335 c 0
 159 138 275 35 398 35 c 0
 515 35 600 134 600 317 c 0xf2
 600 530 508 629 364 629 c 0
706 337 m 0
 706 132 574 -10 378 -10 c 0
 202 -10 53 115 53 317 c 0
 53 518 194 674 377 674 c 0
 561 674 706 540 706 337 c 0
EndSplineSet
Substitution2: "'ss01' Style Set 1 lookup 26 subtable" Odieresis.alt
Substitution2: "'c2sc' Capitals to Small Capitals lookup 15 subtable" odieresis.sc
AlternateSubs2: "'aalt' Access All Alternates lookup 5 subtable" odieresis.sc
Position2: "'cpsp' Capital Spacing lookup 0 subtable" dx=5 dy=0 dh=10 dv=0
EndChar

StartChar: multiply
Encoding: 215 215 151
Width: 539
GlyphClass: 2
Flags: W
HStem: 75 322
VStem: 109 322
LayerCount: 2
Fore
SplineSet
305 236 m 1
 431 111 l 1
 395 75 l 1
 270 200 l 1
 145 75 l 1
 109 111 l 1
 234 236 l 1
 109 361 l 1
 145 397 l 1
 270 271 l 1
 395 397 l 1
 431 361 l 1
 305 236 l 1
EndSplineSet
EndChar

StartChar: Oslash
Encoding: 216 216 152
Width: 758
GlyphClass: 2
Flags: W
HStem: -10 45<302.674 482.26> 629 45<278.26 469.154>
VStem: 53 106<199.068 449.571> 600 106<203.311 465.412>
LayerCount: 2
Fore
SplineSet
111 -13 m 1
 92 -13 77 4 74 19 c 1
 134 94 l 1
 84 150 53 225 53 317 c 0
 53 518 194 674 377 674 c 0
 446 674 510 655 562 621 c 1
 605 674 l 1
 624 674 640 658 642 643 c 1
 600 591 l 1
 665 532 706 444 706 337 c 0
 706 132 574 -10 378 -10 c 0
 300 -10 227 15 170 60 c 1
 111 -13 l 1
364 629 m 0
 266 629 159 550 159 335 c 0
 159 269 172 213 194 168 c 1
 521 570 l 1
 481 610 428 629 364 629 c 0
551 531 m 1
 222 124 l 1
 267 65 332 35 398 35 c 0
 515 35 600 134 600 317 c 0
 600 409 582 480 551 531 c 1
EndSplineSet
Substitution2: "'c2sc' Capitals to Small Capitals lookup 15 subtable" oslash.sc
AlternateSubs2: "'aalt' Access All Alternates lookup 5 subtable" oslash.sc
Position2: "'cpsp' Capital Spacing lookup 0 subtable" dx=5 dy=0 dh=10 dv=0
EndChar

StartChar: Ugrave
Encoding: 217 217 153
Width: 708
GlyphClass: 2
Flags: W
HStem: -10 57<277.93 469.175> 644 20G<96 104 197 205 547 555 615 623> 715 21G<464 472>
VStem: 106 89<141.135 657.273> 557 55<144.402 657.273>
LayerCount: 2
Fore
SplineSet
557 456 m 2
 557 533 555 602 547 660 c 1
 549 664 l 1
 561 662 573 660 585 660 c 0
 597 660 609 662 621 664 c 1
 623 660 l 1
 615 606 612 533 612 456 c 2
 612 302 l 2
 612 120 555 -10 345 -10 c 0
 253 -10 106 33 106 242 c 2
 106 456 l 2
 106 533 104 602 96 660 c 1
 98 664 l 1
 110 662 139 660 151 660 c 0
 163 660 191 662 203 664 c 1
 205 660 l 1
 197 606 195 533 195 456 c 2
 195 275 l 2
 195 220 195 47 367 47 c 0
 540 47 557 169 557 284 c 2
 557 456 l 2
344 838 m 1
 468 752 l 2
 479 744 483 737 483 730 c 0
 483 722 476 715 468 715 c 0
 460 715 446 718 424 727 c 2
 266 792 l 1
 285 810 309 826 344 838 c 1
EndSplineSet
Substitution2: "'c2sc' Capitals to Small Capitals lookup 15 subtable" ugrave.sc
AlternateSubs2: "'aalt' Access All Alternates lookup 5 subtable" ugrave.sc
Position2: "'cpsp' Capital Spacing lookup 0 subtable" dx=5 dy=0 dh=10 dv=0
EndChar

StartChar: Uacute
Encoding: 218 218 154
Width: 708
GlyphClass: 2
Flags: W
HStem: -10 57<277.93 469.175> 644 20G<96 104 197 205 547 555 615 623> 714 21G<303.5 312.5>
VStem: 106 89<141.135 657.273> 557 55<144.402 657.273>
LayerCount: 2
Fore
SplineSet
557 456 m 2
 557 533 555 602 547 660 c 1
 549 664 l 1
 561 662 573 660 585 660 c 0
 597 660 609 662 621 664 c 1
 623 660 l 1
 615 606 612 533 612 456 c 2
 612 302 l 2
 612 120 555 -10 345 -10 c 0
 253 -10 106 33 106 242 c 2
 106 456 l 2
 106 533 104 602 96 660 c 1
 98 664 l 1
 110 662 139 660 151 660 c 0
 163 660 191 662 203 664 c 1
 205 660 l 1
 197 606 195 533 195 456 c 2
 195 275 l 2
 195 220 195 47 367 47 c 0
 540 47 557 169 557 284 c 2
 557 456 l 2
435 839 m 1
 464 825 486 807 499 785 c 1
 351 726 l 2
 329 717 317 714 308 714 c 0
 299 714 293 721 293 729 c 0
 293 736 295 742 308 751 c 2
 435 839 l 1
EndSplineSet
Substitution2: "'c2sc' Capitals to Small Capitals lookup 15 subtable" uacute.sc
AlternateSubs2: "'aalt' Access All Alternates lookup 5 subtable" uacute.sc
Position2: "'cpsp' Capital Spacing lookup 0 subtable" dx=5 dy=0 dh=10 dv=0
EndChar

StartChar: Ucircumflex
Encoding: 219 219 155
Width: 708
GlyphClass: 2
Flags: W
HStem: -10 57<277.93 469.175> 644 20G<96 104 197 205 547 555 615 623> 707 21G<264.714 298.5 477 512.238>
VStem: 106 89<141.135 657.273> 557 55<144.402 657.273>
LayerCount: 2
Fore
SplineSet
557 456 m 2
 557 533 555 602 547 660 c 1
 549 664 l 1
 561 662 573 660 585 660 c 0
 597 660 609 662 621 664 c 1
 623 660 l 1
 615 606 612 533 612 456 c 2
 612 302 l 2
 612 120 555 -10 345 -10 c 0
 253 -10 106 33 106 242 c 2
 106 456 l 2
 106 533 104 602 96 660 c 1
 98 664 l 1
 110 662 139 660 151 660 c 0
 163 660 191 662 203 664 c 1
 205 660 l 1
 197 606 195 533 195 456 c 2
 195 275 l 2
 195 220 195 47 367 47 c 0
 540 47 557 169 557 284 c 2
 557 456 l 2
410 824 m 1
 441 787 476 756 513 728 c 1
 497 707 l 1
 457 725 422 744 388 770 c 1
 350 742 318 724 279 707 c 1
 264 728 l 1
 302 757 334 789 366 824 c 1
 410 824 l 1
EndSplineSet
Substitution2: "'c2sc' Capitals to Small Capitals lookup 15 subtable" ucircumflex.sc
AlternateSubs2: "'aalt' Access All Alternates lookup 5 subtable" ucircumflex.sc
Position2: "'cpsp' Capital Spacing lookup 0 subtable" dx=5 dy=0 dh=10 dv=0
EndChar

StartChar: Udieresis
Encoding: 220 220 156
Width: 708
GlyphClass: 2
Flags: W
HStem: -10 57<277.93 469.175> 644 20G<96 104 197 205 547 555 615 623> 680 92<252.521 331.479 430.521 509.479>
VStem: 106 89<141.135 657.273> 246 92<686.521 765.479> 424 92<686.521 765.479> 557 55<144.402 657.273>
LayerCount: 2
Fore
SplineSet
246 726 m 0
 246 752 266 772 292 772 c 0
 318 772 338 752 338 726 c 0
 338 700 318 680 292 680 c 0
 266 680 246 700 246 726 c 0
424 726 m 0
 424 752 444 772 470 772 c 0
 496 772 516 752 516 726 c 0
 516 700 496 680 470 680 c 0
 444 680 424 700 424 726 c 0
557 456 m 2
 557 533 555 602 547 660 c 1
 549 664 l 1
 561 662 573 660 585 660 c 0
 597 660 609 662 621 664 c 1
 623 660 l 1
 615 606 612 533 612 456 c 2
 612 302 l 2
 612 120 555 -10 345 -10 c 0
 253 -10 106 33 106 242 c 2
 106 456 l 2
 106 533 104 602 96 660 c 1
 98 664 l 1
 110 662 139 660 151 660 c 0
 163 660 191 662 203 664 c 1
 205 660 l 1
 197 606 195 533 195 456 c 2
 195 275 l 2
 195 220 195 47 367 47 c 0
 540 47 557 169 557 284 c 2
 557 456 l 2
EndSplineSet
Substitution2: "'ss01' Style Set 1 lookup 26 subtable" Udieresis.alt
Substitution2: "'c2sc' Capitals to Small Capitals lookup 15 subtable" udieresis.sc
AlternateSubs2: "'aalt' Access All Alternates lookup 5 subtable" udieresis.sc
Position2: "'cpsp' Capital Spacing lookup 0 subtable" dx=5 dy=0 dh=10 dv=0
EndChar

StartChar: Yacute
Encoding: 221 221 157
Width: 588
GlyphClass: 2
Flags: W
HStem: -3 21G<248.5 252 342 346> 644 20G<24.5 36.5 124.5 160.5 466.5 498 516 571.5> 715 21G<237.5 246.5>
VStem: 253 88<-0.321922 315.148>
LayerCount: 2
Fore
SplineSet
341 292 m 1
 342 191 344 46 348 -3 c 1
 336 -1 309 0 297 0 c 0
 285 0 258 -1 246 -3 c 1
 251 53 253 182 253 282 c 1
 214 349 57 603 16 664 c 1
 33 662 58 660 75 660 c 0
 92 660 116 662 133 664 c 1
 188 556 247 460 312 348 c 1
 371 441 441 556 492 664 c 1
 504 662 522 660 535 660 c 0
 547 660 565 662 578 664 c 1
 454 475 383 374 341 292 c 1
369 840 m 1
 398 826 419 808 432 786 c 1
 285 727 l 2
 263 718 251 715 242 715 c 0
 233 715 226 722 226 730 c 0
 226 737 229 743 242 752 c 2
 369 840 l 1
EndSplineSet
Substitution2: "'c2sc' Capitals to Small Capitals lookup 15 subtable" yacute.sc
AlternateSubs2: "'aalt' Access All Alternates lookup 5 subtable" yacute.sc
Position2: "'cpsp' Capital Spacing lookup 0 subtable" dx=5 dy=0 dh=10 dv=0
EndChar

StartChar: Thorn
Encoding: 222 222 158
Width: 558
GlyphClass: 2
Flags: W
HStem: -3 21G<96 104 197 205> 151 42<195 353.725> 486 51<196 283.089> 497 42<196.891 362.681> 644 20G<96 104 197 205>
VStem: 106 89<2.59126 157 194.061 490.495 537 657.273> 415 100<266.533 439.027>
LayerCount: 2
Fore
SplineSet
106 456 m 2xde
 106 533 104 602 96 660 c 1
 98 664 l 1
 110 662 139 660 151 660 c 0
 163 660 191 662 203 664 c 1
 205 660 l 1
 200 625 197 583 196 537 c 1xee
 232 539 266 539 285 539 c 0
 474 539 515 424 515 351 c 0
 515 274 452 151 270 151 c 0
 236 151 211 152 195 157 c 1
 196 99 199 46 205 0 c 1
 203 -3 l 1
 191 -1 163 0 151 0 c 0
 139 0 110 -1 98 -3 c 1
 96 0 l 1
 104 55 106 128 106 205 c 2
 106 456 l 2xde
195 197 m 1
 206 194 229 193 265 193 c 0
 339 193 415 219 415 351 c 0
 415 474 344 497 284 497 c 0xde
 265 497 218 492 195 486 c 1
 195 476 195 466 195 456 c 2
 195 205 l 1
 195 197 l 1
EndSplineSet
Substitution2: "'c2sc' Capitals to Small Capitals lookup 15 subtable" thorn.sc
AlternateSubs2: "'aalt' Access All Alternates lookup 5 subtable" thorn.sc
Position2: "'cpsp' Capital Spacing lookup 0 subtable" dx=5 dy=0 dh=10 dv=0
EndChar

StartChar: germandbls
Encoding: 223 223 159
Width: 558
GlyphClass: 2
Flags: W
HStem: -10 41<304.818 397.335> 394 45<45.0953 100.163> 674 41<229.131 348.048>
VStem: 101 82<2.72752 394 439.506 600.17> 370 81<504.764 654.1> 421 90<62.2052 249.605>
LayerCount: 2
Fore
SplineSet
353 -10 m 0xf4
 301 -10 255 13 247 18 c 1
 246 22 l 1
 257 41 258 53 265 81 c 1
 276 82 l 1
 287 62 323 31 353 31 c 0
 391 31 421 55 421 150 c 0xf4
 421 239 364 340 278 406 c 1
 278 419 l 1
 347 472 370 513 370 588 c 0
 370 643 344 674 290 674 c 0
 184 674 183 564 183 453 c 2
 183 205 l 2
 183 128 185 58 193 0 c 1
 190 -3 l 1
 178 -1 154 0 142 0 c 0
 130 0 106 -1 94 -3 c 1
 92 0 l 1
 100 56 101 128 101 205 c 2
 101 380 l 2
 101 392 98 394 89 394 c 2
 46 394 l 2
 41 394 37 398 38 402 c 2
 45 429 l 2
 47 436 51 439 69 439 c 0
 101 439 101 449 101 488 c 0
 101 657 218 715 299 715 c 0
 405 715 451 650 451 601 c 0xf8
 451 522 421 475 349 421 c 1
 349 419 l 1
 430 366 511 279 511 167 c 0
 511 114 499 72 477 43 c 0
 449 7 405 -10 353 -10 c 0xf4
EndSplineSet
Substitution2: "'smcp' Lowercase to Small Capitals lookup 8 subtable" germandbls.sc
EndChar

StartChar: agrave
Encoding: 224 224 160
Width: 492
GlyphClass: 2
Flags: W
HStem: -10 52<146.428 263.633 387.144 468.439> 403 47<162.415 288.823>
VStem: 46 83<60.7803 166.164> 318 81<80.5879 230 270.05 371.945>
LayerCount: 2
Fore
SplineSet
201 687 m 2
 272 558 l 2
 277 548 279 541 279 534 c 0
 279 529 271 522 263 522 c 0
 257 522 249 528 233 543 c 2
 117 654 l 1
 119 666 l 1
 127 672 150 689 185 689 c 0
 190 689 197 688 201 687 c 2
317 230 m 1
 230 207 l 2
 150 185 129 150 129 104 c 0
 129 72 159 42 205 42 c 0
 236 42 270 60 299 82 c 0
 307 88 313 96 313 109 c 2
 317 230 l 1
318 49 m 1
 313 49 l 1
 259 3 230 -10 174 -10 c 0
 98 -10 46 24 46 100 c 0
 46 170 112 225 216 249 c 2
 311 270 l 2
 314 271 318 276 318 283 c 0
 318 399 257 403 220 403 c 0
 171 403 137 362 108 316 c 1
 94 317 l 1
 77 386 l 1
 80 390 l 1
 106 412 152 450 230 450 c 0
 308 450 399 422 399 284 c 0
 399 273 396 159 396 129 c 0
 396 83 404 59 414 49 c 0
 420 43 434 41 444 41 c 0
 452 41 460 43 471 47 c 1
 479 22 l 1
 455 -4 423 -10 397 -10 c 0
 360 -10 330 9 318 49 c 1
EndSplineSet
Substitution2: "'smcp' Lowercase to Small Capitals lookup 8 subtable" agrave.sc
AlternateSubs2: "'aalt' Access All Alternates lookup 5 subtable" agrave.sc
EndChar

StartChar: aacute
Encoding: 225 225 161
Width: 492
GlyphClass: 2
Flags: W
HStem: -10 52<146.428 263.633 387.144 468.439> 403 47<162.415 288.823>
VStem: 46 83<60.7803 166.164> 318 81<80.5879 230 270.05 371.945>
LayerCount: 2
Fore
SplineSet
250 687 m 2
 253 688 259 689 264 689 c 0
 271 689 297 689 321 666 c 1
 324 654 l 1
 206 543 l 2
 191 528 182 523 175 523 c 0
 168 523 161 530 161 537 c 0
 161 548 164 552 172 565 c 2
 250 687 l 2
317 230 m 1
 230 207 l 2
 150 185 129 150 129 104 c 0
 129 72 159 42 205 42 c 0
 236 42 270 60 299 82 c 0
 307 88 313 96 313 109 c 2
 317 230 l 1
318 49 m 1
 313 49 l 1
 259 3 230 -10 174 -10 c 0
 98 -10 46 24 46 100 c 0
 46 170 112 225 216 249 c 2
 311 270 l 2
 314 271 318 276 318 283 c 0
 318 399 257 403 220 403 c 0
 171 403 137 362 108 316 c 1
 94 317 l 1
 77 386 l 1
 80 390 l 1
 106 412 152 450 230 450 c 0
 308 450 399 422 399 284 c 0
 399 273 396 159 396 129 c 0
 396 83 404 59 414 49 c 0
 420 43 434 41 444 41 c 0
 452 41 460 43 471 47 c 1
 479 22 l 1
 455 -4 423 -10 397 -10 c 0
 360 -10 330 9 318 49 c 1
EndSplineSet
Substitution2: "'smcp' Lowercase to Small Capitals lookup 8 subtable" aacute.sc
AlternateSubs2: "'aalt' Access All Alternates lookup 5 subtable" aacute.sc
EndChar

StartChar: acircumflex
Encoding: 226 226 162
Width: 492
GlyphClass: 2
Flags: W
HStem: -10 52<146.428 263.633 387.144 468.439> 403 47<162.415 288.823> 642 20G<190 271>
VStem: 46 83<60.7803 166.164> 318 81<80.5879 230 270.05 371.945>
LayerCount: 2
Fore
SplineSet
256 662 m 1
 286 614 322 570 359 529 c 1
 338 515 l 1
 298 545 264 570 229 607 c 1
 191 568 159 543 120 515 c 1
 99 529 l 1
 136 570 175 615 205 662 c 1
 256 662 l 1
317 230 m 1
 230 207 l 2
 150 185 129 150 129 104 c 0
 129 72 159 42 205 42 c 0
 236 42 270 60 299 82 c 0
 307 88 313 96 313 109 c 2
 317 230 l 1
318 49 m 1
 313 49 l 1
 259 3 230 -10 174 -10 c 0
 98 -10 46 24 46 100 c 0
 46 170 112 225 216 249 c 2
 311 270 l 2
 314 271 318 276 318 283 c 0
 318 399 257 403 220 403 c 0
 171 403 137 362 108 316 c 1
 94 317 l 1
 77 386 l 1
 80 390 l 1
 106 412 152 450 230 450 c 0
 308 450 399 422 399 284 c 0
 399 273 396 159 396 129 c 0
 396 83 404 59 414 49 c 0
 420 43 434 41 444 41 c 0
 452 41 460 43 471 47 c 1
 479 22 l 1
 455 -4 423 -10 397 -10 c 0
 360 -10 330 9 318 49 c 1
EndSplineSet
Substitution2: "'smcp' Lowercase to Small Capitals lookup 8 subtable" acircumflex.sc
AlternateSubs2: "'aalt' Access All Alternates lookup 5 subtable" acircumflex.sc
EndChar

StartChar: atilde
Encoding: 227 227 163
Width: 492
GlyphClass: 2
Flags: W
HStem: -10 52<146.428 263.633 387.144 468.439> 403 47<162.415 288.823> 539 45<237.081 327.158> 588 47<116.175 209.933>
VStem: 46 83<60.7803 166.164> 81 24<542.507 565.137> 318 81<80.5879 230 270.05 371.945> 341 25<609.533 632.72>
LayerCount: 2
Fore
SplineSet
290 584 m 0xf5
 313 584 327 594 341 637 c 1
 366 631 l 1
 354 570 323 539 276 539 c 0
 253 539 233 551 211 565 c 0
 193 576 173 588 156 588 c 0
 129 588 115 573 105 539 c 1
 81 544 l 1
 95 604 119 635 163 635 c 0
 194 635 217 620 237 606 c 0
 253 594 271 584 290 584 c 0xf5
317 230 m 1
 230 207 l 2
 150 185 129 150 129 104 c 0xf8
 129 72 159 42 205 42 c 0
 236 42 270 60 299 82 c 0
 307 88 313 96 313 109 c 2
 317 230 l 1
318 49 m 1xfa
 313 49 l 1
 259 3 230 -10 174 -10 c 0
 98 -10 46 24 46 100 c 0
 46 170 112 225 216 249 c 2
 311 270 l 2
 314 271 318 276 318 283 c 0
 318 399 257 403 220 403 c 0
 171 403 137 362 108 316 c 1
 94 317 l 1
 77 386 l 1
 80 390 l 1
 106 412 152 450 230 450 c 0
 308 450 399 422 399 284 c 0
 399 273 396 159 396 129 c 0
 396 83 404 59 414 49 c 0
 420 43 434 41 444 41 c 0
 452 41 460 43 471 47 c 1
 479 22 l 1
 455 -4 423 -10 397 -10 c 0
 360 -10 330 9 318 49 c 1xfa
EndSplineSet
Substitution2: "'smcp' Lowercase to Small Capitals lookup 8 subtable" atilde.sc
AlternateSubs2: "'aalt' Access All Alternates lookup 5 subtable" atilde.sc
EndChar

StartChar: adieresis
Encoding: 228 228 164
Width: 492
GlyphClass: 2
Flags: W
HStem: -10 52<146.428 263.633 387.144 468.439> 403 47<162.415 288.823> 540 97<101.068 180.932 274.068 353.932>
VStem: 46 83<60.7803 166.164> 93 96<547.44 629.265> 266 96<547.44 629.265> 318 81<80.5879 230 270.05 371.945>
LayerCount: 2
Fore
SplineSet
93 588 m 0xe8
 93 615 114 637 141 637 c 0
 168 637 189 615 189 588 c 0
 189 561 168 540 141 540 c 0
 114 540 93 561 93 588 c 0xe8
266 588 m 0xe4
 266 615 287 637 314 637 c 0
 341 637 362 615 362 588 c 0
 362 561 341 540 314 540 c 0
 287 540 266 561 266 588 c 0xe4
317 230 m 1
 230 207 l 2
 150 185 129 150 129 104 c 0xf0
 129 72 159 42 205 42 c 0
 236 42 270 60 299 82 c 0
 307 88 313 96 313 109 c 2
 317 230 l 1
318 49 m 1xf2
 313 49 l 1
 259 3 230 -10 174 -10 c 0
 98 -10 46 24 46 100 c 0
 46 170 112 225 216 249 c 2
 311 270 l 2
 314 271 318 276 318 283 c 0
 318 399 257 403 220 403 c 0
 171 403 137 362 108 316 c 1
 94 317 l 1
 77 386 l 1
 80 390 l 1
 106 412 152 450 230 450 c 0
 308 450 399 422 399 284 c 0
 399 273 396 159 396 129 c 0
 396 83 404 59 414 49 c 0
 420 43 434 41 444 41 c 0
 452 41 460 43 471 47 c 1
 479 22 l 1
 455 -4 423 -10 397 -10 c 0
 360 -10 330 9 318 49 c 1xf2
EndSplineSet
Substitution2: "'smcp' Lowercase to Small Capitals lookup 8 subtable" adieresis.sc
AlternateSubs2: "'aalt' Access All Alternates lookup 5 subtable" adieresis.sc
EndChar

StartChar: aring
Encoding: 229 229 165
Width: 492
GlyphClass: 2
Flags: W
HStem: -10 52<146.428 263.633 387.144 468.439> 403 47<162.415 288.823> 511 28<181.116 248.302> 653 28<181.116 249.131>
VStem: 46 83<60.7803 166.164> 126 38<551.476 640.818> 266 38<551.698 640.774> 318 81<80.5879 230 270.05 371.945>
LayerCount: 2
Fore
SplineSet
215 653 m 0xf7
 183 653 164 627 164 596 c 0
 164 567 183 539 215 539 c 0
 247 539 266 567 266 596 c 0
 266 628 246 653 215 653 c 0xf7
126 596 m 0
 126 643 168 681 215 681 c 0
 262 681 304 644 304 596 c 0
 304 550 264 511 215 511 c 0
 168 511 126 549 126 596 c 0
317 230 m 1
 230 207 l 2
 150 185 129 150 129 104 c 0xfb
 129 72 159 42 205 42 c 0
 236 42 270 60 299 82 c 0
 307 88 313 96 313 109 c 2
 317 230 l 1
318 49 m 1
 313 49 l 1
 259 3 230 -10 174 -10 c 0
 98 -10 46 24 46 100 c 0
 46 170 112 225 216 249 c 2
 311 270 l 2
 314 271 318 276 318 283 c 0
 318 399 257 403 220 403 c 0
 171 403 137 362 108 316 c 1
 94 317 l 1
 77 386 l 1
 80 390 l 1
 106 412 152 450 230 450 c 0
 308 450 399 422 399 284 c 0
 399 273 396 159 396 129 c 0
 396 83 404 59 414 49 c 0
 420 43 434 41 444 41 c 0
 452 41 460 43 471 47 c 1
 479 22 l 1
 455 -4 423 -10 397 -10 c 0
 360 -10 330 9 318 49 c 1
EndSplineSet
Substitution2: "'smcp' Lowercase to Small Capitals lookup 8 subtable" aring.sc
AlternateSubs2: "'aalt' Access All Alternates lookup 5 subtable" aring.sc
EndChar

StartChar: ae
Encoding: 230 230 166
Width: 703
GlyphClass: 2
Flags: W
HStem: -10 51<138.895 262.731 449.342 576.496> 220 41<207.524 303 384 565.266> 403 47<149.938 271.455 437.171 547.216>
VStem: 40 84<55.2749 164.497> 303 80<115.305 220> 575 87<272.93 374.603>
AnchorPoint: "Anchor-5" 347 562 basechar 0
AnchorPoint: "Anchor-4" 340 659 basechar 0
AnchorPoint: "Anchor-3" 335 -112 basechar 0
AnchorPoint: "Anchor-2" 171 -5 basechar 0
AnchorPoint: "Anchor-1" 618 31 basechar 0
LayerCount: 2
Fore
SplineSet
303 220 m 1
 167 208 124 161 124 109 c 0
 124 63 149 41 197 41 c 0
 234 41 278 62 292 102 c 0
 299 120 303 169 303 220 c 1
384 264 m 1
 527 272 575 251 575 313 c 0
 575 346 550 403 501 403 c 0
 436 403 392 351 384 264 c 1
207 403 m 0
 161 403 118 358 91 312 c 1
 78 313 l 1
 61 382 l 1
 65 386 l 1
 90 407 142 450 216 450 c 0
 241 450 318 447 356 378 c 1
 390 424 444 450 502 450 c 0
 619 450 662 351 662 316 c 0
 662 284 655 260 635 243 c 1
 598 223 522 231 383 223 c 1
 383 114 433 45 510 45 c 0
 565 45 605 79 636 115 c 1
 656 86 l 1
 626 31 564 -10 496 -10 c 0
 403 -10 368 34 348 60 c 1
 301 15 251 -10 195 -10 c 0
 87 -10 40 33 40 103 c 0
 40 188 129 249 303 261 c 1
 302 357 282 403 207 403 c 0
EndSplineSet
Substitution2: "'smcp' Lowercase to Small Capitals lookup 8 subtable" ae.sc
EndChar

StartChar: ccedilla
Encoding: 231 231 167
Width: 439
GlyphClass: 2
Flags: W
HStem: -203 30<160.754 262.052> -96 33<237 267.691> 409 41<196.966 310.434>
VStem: 39 90<116.377 323.082> 272 64<-167.228 -97.4355>
LayerCount: 2
Fore
SplineSet
239 -96 m 0
 220 -96 209 -97 193 -102 c 1
 186 -96 l 1
 223 -9 l 1
 111 1 39 89 39 223 c 0
 39 362 151 450 257 450 c 0
 308 450 361 437 393 421 c 1
 395 418 l 1
 372 334 l 1
 358 333 l 1
 331 380 295 409 256 409 c 0
 188 409 129 341 129 228 c 0
 129 108 187 41 262 41 c 0
 300 41 333 49 372 84 c 1
 376 84 l 1
 395 62 l 1
 357 13 313 -7 258 -10 c 1
 237 -67 l 1
 245 -65 254 -63 263 -63 c 0
 304 -63 336 -88 336 -127 c 0
 336 -171 288 -203 226 -203 c 0
 193 -203 177 -196 151 -185 c 1
 151 -173 154 -166 161 -159 c 1
 189 -169 200 -173 220 -173 c 0
 251 -173 272 -159 272 -132 c 0
 272 -110 263 -96 239 -96 c 0
EndSplineSet
Substitution2: "'smcp' Lowercase to Small Capitals lookup 8 subtable" ccedilla.sc
AlternateSubs2: "'aalt' Access All Alternates lookup 5 subtable" ccedilla.sc
EndChar

StartChar: egrave
Encoding: 232 232 168
Width: 463
GlyphClass: 2
Flags: W
HStem: -10 60<185.981 337.984> 239 41<128 330.996> 409 41<187.025 293.145>
VStem: 35 90<114.591 239 280 320.002> 331 91<250.5 359.363>
LayerCount: 2
Fore
SplineSet
215 687 m 2
 287 558 l 2
 292 548 293 541 293 534 c 0
 293 529 286 522 278 522 c 0
 272 522 264 528 248 543 c 2
 131 654 l 1
 133 666 l 1
 141 672 165 689 200 689 c 0
 205 689 211 688 215 687 c 2
128 280 m 1
 316 280 l 2
 326 280 331 285 331 294 c 0
 331 371 285 409 245 409 c 0
 213 409 145 386 128 280 c 1
401 106 m 1
 422 81 l 1
 383 28 318 -10 244 -10 c 0
 175 -10 116 15 81 57 c 0
 47 98 35 156 35 214 c 0
 35 365 140 450 245 450 c 0
 380 450 422 342 422 256 c 0
 422 245 414 239 403 239 c 2
 125 239 l 1
 125 180 132 138 150 109 c 0
 178 64 226 50 261 50 c 0
 317 50 365 67 401 106 c 1
EndSplineSet
Substitution2: "'smcp' Lowercase to Small Capitals lookup 8 subtable" egrave.sc
AlternateSubs2: "'aalt' Access All Alternates lookup 5 subtable" egrave.sc
EndChar

StartChar: eacute
Encoding: 233 233 169
Width: 463
GlyphClass: 2
Flags: W
HStem: -10 60<185.981 337.984> 239 41<128 330.996> 409 41<187.025 293.145>
VStem: 35 90<114.591 239 280 320.002> 331 91<250.5 359.363>
LayerCount: 2
Fore
SplineSet
276 687 m 2
 279 688 286 689 291 689 c 0
 298 689 323 689 347 666 c 1
 350 654 l 1
 232 543 l 2
 217 528 209 523 202 523 c 0
 195 523 187 530 187 537 c 0
 187 548 191 552 199 565 c 2
 276 687 l 2
128 280 m 1
 316 280 l 2
 326 280 331 285 331 294 c 0
 331 371 285 409 245 409 c 0
 213 409 145 386 128 280 c 1
401 106 m 1
 422 81 l 1
 383 28 318 -10 244 -10 c 0
 175 -10 116 15 81 57 c 0
 47 98 35 156 35 214 c 0
 35 365 140 450 245 450 c 0
 380 450 422 342 422 256 c 0
 422 245 414 239 403 239 c 2
 125 239 l 1
 125 180 132 138 150 109 c 0
 178 64 226 50 261 50 c 0
 317 50 365 67 401 106 c 1
EndSplineSet
Substitution2: "'smcp' Lowercase to Small Capitals lookup 8 subtable" eacute.sc
AlternateSubs2: "'aalt' Access All Alternates lookup 5 subtable" eacute.sc
EndChar

StartChar: ecircumflex
Encoding: 234 234 170
Width: 463
GlyphClass: 2
Flags: W
HStem: -10 60<185.981 337.984> 239 41<128 330.996> 409 41<187.025 293.145> 642 20G<198 279>
VStem: 35 90<114.591 239 280 320.002> 331 91<250.5 359.363>
LayerCount: 2
Fore
SplineSet
264 662 m 1
 294 614 331 570 368 529 c 1
 346 515 l 1
 306 545 273 570 238 607 c 1
 200 568 167 543 128 515 c 1
 108 529 l 1
 145 570 183 615 213 662 c 1
 264 662 l 1
128 280 m 1
 316 280 l 2
 326 280 331 285 331 294 c 0
 331 371 285 409 245 409 c 0
 213 409 145 386 128 280 c 1
401 106 m 1
 422 81 l 1
 383 28 318 -10 244 -10 c 0
 175 -10 116 15 81 57 c 0
 47 98 35 156 35 214 c 0
 35 365 140 450 245 450 c 0
 380 450 422 342 422 256 c 0
 422 245 414 239 403 239 c 2
 125 239 l 1
 125 180 132 138 150 109 c 0
 178 64 226 50 261 50 c 0
 317 50 365 67 401 106 c 1
EndSplineSet
Substitution2: "'smcp' Lowercase to Small Capitals lookup 8 subtable" ecircumflex.sc
AlternateSubs2: "'aalt' Access All Alternates lookup 5 subtable" ecircumflex.sc
EndChar

StartChar: edieresis
Encoding: 235 235 171
Width: 463
GlyphClass: 2
Flags: W
HStem: -10 60<185.981 337.984> 239 41<128 330.996> 409 41<187.025 293.145> 540 97<109.385 189.932 282.385 362.932>
VStem: 35 90<114.591 239 280 320.002> 101 97<548.068 628.615> 274 97<548.068 628.615> 331 91<250.5 359.363>
LayerCount: 2
Fore
SplineSet
101 588 m 0xf4
 101 615 123 637 150 637 c 0
 177 637 198 615 198 588 c 0
 198 561 177 540 150 540 c 0
 123 540 101 561 101 588 c 0xf4
274 588 m 0xf2
 274 615 296 637 323 637 c 0
 350 637 371 615 371 588 c 0
 371 561 350 540 323 540 c 0
 296 540 274 561 274 588 c 0xf2
128 280 m 1
 316 280 l 2
 326 280 331 285 331 294 c 0xf1
 331 371 285 409 245 409 c 0
 213 409 145 386 128 280 c 1
401 106 m 1
 422 81 l 1
 383 28 318 -10 244 -10 c 0
 175 -10 116 15 81 57 c 0
 47 98 35 156 35 214 c 0
 35 365 140 450 245 450 c 0
 380 450 422 342 422 256 c 0
 422 245 414 239 403 239 c 2
 125 239 l 1xf9
 125 180 132 138 150 109 c 0
 178 64 226 50 261 50 c 0
 317 50 365 67 401 106 c 1
EndSplineSet
Substitution2: "'smcp' Lowercase to Small Capitals lookup 8 subtable" edieresis.sc
AlternateSubs2: "'aalt' Access All Alternates lookup 5 subtable" edieresis.sc
EndChar

StartChar: igrave
Encoding: 236 236 172
Width: 266
GlyphClass: 2
Flags: W
HStem: -3 21G<83 91 175 183> 423 20G<162.5 178>
VStem: 92 82<2.71158 430.112>
LayerCount: 2
Fore
SplineSet
113 687 m 2
 184 558 l 2
 189 548 190 541 190 534 c 0
 190 529 183 522 175 522 c 0
 169 522 161 528 145 543 c 2
 29 654 l 1
 31 666 l 1
 39 672 62 689 97 689 c 0
 102 689 109 688 113 687 c 2
92 241 m 2
 92 318 89 395 83 439 c 1
 85 442 l 1
 107 440 151 441 174 443 c 0
 182 443 183 442 183 433 c 0
 176 371 174 334 174 257 c 2
 174 184 l 2
 174 106 176 58 183 0 c 1
 181 -3 l 1
 169 -1 145 0 133 0 c 0
 121 0 97 -1 85 -3 c 1
 83 0 l 1
 90 55 92 107 92 184 c 2
 92 241 l 2
EndSplineSet
Substitution2: "'smcp' Lowercase to Small Capitals lookup 8 subtable" igrave.sc
AlternateSubs2: "'aalt' Access All Alternates lookup 5 subtable" igrave.sc
EndChar

StartChar: iacute
Encoding: 237 237 173
Width: 266
GlyphClass: 2
Flags: W
HStem: -3 21G<83 91 175 183> 423 20G<162.5 178>
VStem: 92 82<2.71158 430.112>
LayerCount: 2
Fore
SplineSet
178 687 m 2
 181 688 188 689 193 689 c 0
 200 689 225 689 249 666 c 1
 252 654 l 1
 134 543 l 2
 119 528 110 523 103 523 c 0
 96 523 89 530 89 537 c 0
 89 548 93 552 101 565 c 2
 178 687 l 2
92 241 m 2
 92 318 89 395 83 439 c 1
 85 442 l 1
 107 440 151 441 174 443 c 0
 182 443 183 442 183 433 c 0
 176 371 174 334 174 257 c 2
 174 184 l 2
 174 106 176 58 183 0 c 1
 181 -3 l 1
 169 -1 145 0 133 0 c 0
 121 0 97 -1 85 -3 c 1
 83 0 l 1
 90 55 92 107 92 184 c 2
 92 241 l 2
EndSplineSet
Substitution2: "'smcp' Lowercase to Small Capitals lookup 8 subtable" iacute.sc
AlternateSubs2: "'aalt' Access All Alternates lookup 5 subtable" iacute.sc
EndChar

StartChar: icircumflex
Encoding: 238 238 174
Width: 266
GlyphClass: 2
Flags: W
HStem: -3 21G<83 91 175 183> 423 20G<162.5 178> 642 20G<99 180>
VStem: 92 82<2.71158 430.112>
LayerCount: 2
Fore
SplineSet
165 662 m 1
 195 614 231 570 268 529 c 1
 247 515 l 1
 207 545 173 570 138 607 c 1
 100 568 68 543 29 515 c 1
 8 529 l 1
 45 570 84 615 114 662 c 1
 165 662 l 1
92 241 m 2
 92 318 89 395 83 439 c 1
 85 442 l 1
 107 440 151 441 174 443 c 0
 182 443 183 442 183 433 c 0
 176 371 174 334 174 257 c 2
 174 184 l 2
 174 106 176 58 183 0 c 1
 181 -3 l 1
 169 -1 145 0 133 0 c 0
 121 0 97 -1 85 -3 c 1
 83 0 l 1
 90 55 92 107 92 184 c 2
 92 241 l 2
EndSplineSet
Substitution2: "'smcp' Lowercase to Small Capitals lookup 8 subtable" icircumflex.sc
AlternateSubs2: "'aalt' Access All Alternates lookup 5 subtable" icircumflex.sc
EndChar

StartChar: idieresis
Encoding: 239 239 175
Width: 266
GlyphClass: 2
Flags: W
HStem: -3 21G<83 91 175 183> 423 20G<162.5 178> 540 97<13.0684 92.9316 186.068 265.932>
VStem: 5 96<547.44 629.265> 92 82<2.71158 430.112> 178 96<547.44 629.265>
LayerCount: 2
Fore
SplineSet
5 588 m 0xf4
 5 615 26 637 53 637 c 0
 80 637 101 615 101 588 c 0
 101 561 80 540 53 540 c 0
 26 540 5 561 5 588 c 0xf4
178 588 m 0
 178 615 199 637 226 637 c 0
 253 637 274 615 274 588 c 0
 274 561 253 540 226 540 c 0
 199 540 178 561 178 588 c 0
92 241 m 2xec
 92 318 89 395 83 439 c 1
 85 442 l 1
 107 440 151 441 174 443 c 0
 182 443 183 442 183 433 c 0
 176 371 174 334 174 257 c 2
 174 184 l 2
 174 106 176 58 183 0 c 1
 181 -3 l 1
 169 -1 145 0 133 0 c 0
 121 0 97 -1 85 -3 c 1
 83 0 l 1
 90 55 92 107 92 184 c 2
 92 241 l 2xec
EndSplineSet
Substitution2: "'smcp' Lowercase to Small Capitals lookup 8 subtable" idieresis.sc
AlternateSubs2: "'aalt' Access All Alternates lookup 5 subtable" idieresis.sc
EndChar

StartChar: eth
Encoding: 240 240 176
Width: 506
GlyphClass: 2
Flags: W
HStem: -10 42<199.583 319.499> 408 42<188.492 335.669> 695 20G<131.478 166 336.137 379.333>
VStem: 35 92<117.485 319.752> 377 90<123.551 364.977>
LayerCount: 2
Fore
SplineSet
258 32 m 0
 306 32 377 62 377 228 c 0
 377 275 372 321 360 365 c 1
 336 395 300 408 256 408 c 0
 153 408 127 308 127 230 c 0
 127 113 185 32 258 32 c 0
35 213 m 0
 35 390 174 450 258 450 c 0
 285 450 311 445 337 435 c 1
 314 489 283 539 245 586 c 1
 133 511 l 1
 111 544 l 1
 218 616 l 1
 202 633 l 2
 180 656 154 675 129 692 c 1
 148 715 l 1
 184 696 221 671 257 642 c 1
 366 715 l 1
 388 682 l 1
 289 615 l 1
 307 597 l 2
 399 505 467 393 467 243 c 0
 467 70 356 -10 241 -10 c 0
 114 -10 35 107 35 213 c 0
EndSplineSet
Substitution2: "'smcp' Lowercase to Small Capitals lookup 8 subtable" eth.sc
AlternateSubs2: "'aalt' Access All Alternates lookup 5 subtable" eth.sc
EndChar

StartChar: ntilde
Encoding: 241 241 177
Width: 551
GlyphClass: 2
Flags: W
HStem: -3 21G<76 84 168 176 380 388 472 480> 388 62<258.694 371.498> 539 45<296.754 387.466> 588 47<177.221 269.933>
VStem: 85 82<2.71158 325.885> 141 25<542.566 567.586> 389 82<2.71158 372.543> 401 25<609.533 632.72>
LayerCount: 2
Fore
SplineSet
350 584 m 0xf5
 373 584 387 594 401 637 c 1
 426 631 l 1
 414 570 384 539 337 539 c 0
 314 539 293 551 271 565 c 0
 253 576 233 588 216 588 c 0
 189 588 176 573 166 539 c 1
 141 544 l 1
 155 604 179 635 223 635 c 0
 254 635 277 620 297 606 c 0
 313 594 331 584 350 584 c 0xf5
471 184 m 0xfa
 471 106 472 58 480 0 c 1
 478 -3 l 1
 466 -1 442 0 430 0 c 0
 418 0 394 -1 382 -3 c 1
 380 0 l 1
 387 55 389 107 389 184 c 2
 389 285 l 2
 389 368 367 388 315 388 c 0
 278 388 219 365 167 304 c 1
 167 184 l 2
 167 106 168 58 176 0 c 1
 174 -3 l 1
 162 -1 138 0 126 0 c 0
 114 0 90 -1 78 -3 c 1
 76 0 l 1
 84 55 85 107 85 184 c 2
 85 241 l 2
 85 318 83 395 76 439 c 1
 78 442 l 1
 101 440 138 440 161 445 c 0
 166 445 167 443 167 435 c 2
 167 360 l 1
 169 357 l 1
 235 434 307 450 346 450 c 0
 438 450 473 394 473 288 c 0
 473 255 471 217 471 184 c 0xfa
EndSplineSet
Substitution2: "'smcp' Lowercase to Small Capitals lookup 8 subtable" ntilde.sc
AlternateSubs2: "'aalt' Access All Alternates lookup 5 subtable" ntilde.sc
EndChar

StartChar: ograve
Encoding: 242 242 178
Width: 512
GlyphClass: 2
Flags: W
HStem: -10 41<197.072 321.854> 409 41<188.546 325.544>
VStem: 39 90<109.904 324.22> 383 90<109.714 333.723>
LayerCount: 2
Fore
SplineSet
240 687 m 2
 311 558 l 2
 316 548 317 541 317 534 c 0
 317 529 310 522 302 522 c 0
 296 522 288 528 272 543 c 2
 156 654 l 1
 158 666 l 1
 166 672 189 689 224 689 c 0
 229 689 236 688 240 687 c 2
39 210 m 0
 39 355 126 450 260 450 c 0
 398 450 473 358 473 219 c 0
 473 85 391 -10 256 -10 c 0
 120 -10 39 87 39 210 c 0
253 409 m 0
 157 409 129 316 129 227 c 0
 129 148 156 31 265 31 c 0
 334 31 383 104 383 201 c 0
 383 325 362 409 253 409 c 0
EndSplineSet
Substitution2: "'smcp' Lowercase to Small Capitals lookup 8 subtable" ograve.sc
AlternateSubs2: "'aalt' Access All Alternates lookup 5 subtable" ograve.sc
EndChar

StartChar: oacute
Encoding: 243 243 179
Width: 512
GlyphClass: 2
Flags: W
HStem: -10 41<197.072 321.854> 409 41<188.546 325.544>
VStem: 39 90<109.904 324.22> 383 90<109.714 333.723>
LayerCount: 2
Fore
SplineSet
287 687 m 2
 290 688 296 689 301 689 c 0
 308 689 333 689 357 666 c 1
 360 654 l 1
 243 543 l 2
 228 528 219 523 212 523 c 0
 205 523 198 530 198 537 c 0
 198 548 201 552 209 565 c 2
 287 687 l 2
39 210 m 0
 39 355 126 450 260 450 c 0
 398 450 473 358 473 219 c 0
 473 85 391 -10 256 -10 c 0
 120 -10 39 87 39 210 c 0
253 409 m 0
 157 409 129 316 129 227 c 0
 129 148 156 31 265 31 c 0
 334 31 383 104 383 201 c 0
 383 325 362 409 253 409 c 0
EndSplineSet
Substitution2: "'smcp' Lowercase to Small Capitals lookup 8 subtable" oacute.sc
AlternateSubs2: "'aalt' Access All Alternates lookup 5 subtable" oacute.sc
EndChar

StartChar: ocircumflex
Encoding: 244 244 180
Width: 512
GlyphClass: 2
Flags: W
HStem: -10 41<197.072 321.854> 409 41<188.546 325.544> 642 20G<217 299>
VStem: 39 90<109.904 324.22> 383 90<109.714 333.723>
LayerCount: 2
Fore
SplineSet
284 662 m 1
 314 614 350 570 387 529 c 1
 366 515 l 1
 326 545 292 570 257 607 c 1
 219 568 186 543 147 515 c 1
 127 529 l 1
 164 570 202 615 232 662 c 1
 284 662 l 1
39 210 m 0
 39 355 126 450 260 450 c 0
 398 450 473 358 473 219 c 0
 473 85 391 -10 256 -10 c 0
 120 -10 39 87 39 210 c 0
253 409 m 0
 157 409 129 316 129 227 c 0
 129 148 156 31 265 31 c 0
 334 31 383 104 383 201 c 0
 383 325 362 409 253 409 c 0
EndSplineSet
Substitution2: "'smcp' Lowercase to Small Capitals lookup 8 subtable" ocircumflex.sc
AlternateSubs2: "'aalt' Access All Alternates lookup 5 subtable" ocircumflex.sc
EndChar

StartChar: otilde
Encoding: 245 245 181
Width: 512
GlyphClass: 2
Flags: W
HStem: -10 41<197.072 321.854> 409 41<188.546 325.544> 539 45<268.084 359.721> 588 47<148.049 242.16>
VStem: 39 90<109.904 324.22> 113 24<542.507 567.49> 373 24<609.533 632.792> 383 90<109.714 333.723>
LayerCount: 2
Fore
SplineSet
322 584 m 0xf6
 345 584 359 594 373 637 c 1
 397 631 l 1
 385 570 355 539 308 539 c 0
 285 539 265 551 243 565 c 0
 225 576 204 588 187 588 c 0
 160 588 147 573 137 539 c 1
 113 544 l 1
 127 604 151 635 195 635 c 0
 226 635 248 620 268 606 c 0
 284 594 303 584 322 584 c 0xf6
39 210 m 0xf9
 39 355 126 450 260 450 c 0
 398 450 473 358 473 219 c 0
 473 85 391 -10 256 -10 c 0
 120 -10 39 87 39 210 c 0xf9
253 409 m 0
 157 409 129 316 129 227 c 0
 129 148 156 31 265 31 c 0
 334 31 383 104 383 201 c 0
 383 325 362 409 253 409 c 0
EndSplineSet
Substitution2: "'smcp' Lowercase to Small Capitals lookup 8 subtable" otilde.sc
AlternateSubs2: "'aalt' Access All Alternates lookup 5 subtable" otilde.sc
EndChar

StartChar: odieresis
Encoding: 246 246 182
Width: 512
GlyphClass: 2
Flags: W
HStem: -10 41<197.072 321.854> 409 41<188.546 325.544> 540 97<123.068 202.932 296.068 375.932>
VStem: 39 90<109.904 324.22> 115 96<547.44 629.265> 288 96<547.44 629.265> 383 90<109.714 333.723>
LayerCount: 2
Fore
SplineSet
115 588 m 0xe8
 115 615 136 637 163 637 c 0
 190 637 211 615 211 588 c 0
 211 561 190 540 163 540 c 0
 136 540 115 561 115 588 c 0xe8
288 588 m 0xe4
 288 615 309 637 336 637 c 0
 363 637 384 615 384 588 c 0
 384 561 363 540 336 540 c 0
 309 540 288 561 288 588 c 0xe4
39 210 m 0xf2
 39 355 126 450 260 450 c 0
 398 450 473 358 473 219 c 0
 473 85 391 -10 256 -10 c 0
 120 -10 39 87 39 210 c 0xf2
253 409 m 0
 157 409 129 316 129 227 c 0
 129 148 156 31 265 31 c 0
 334 31 383 104 383 201 c 0
 383 325 362 409 253 409 c 0
EndSplineSet
Substitution2: "'smcp' Lowercase to Small Capitals lookup 8 subtable" odieresis.sc
AlternateSubs2: "'aalt' Access All Alternates lookup 5 subtable" odieresis.sc
EndChar

StartChar: divide
Encoding: 247 247 183
Width: 539
GlyphClass: 2
Flags: W
HStem: 55 96<237.012 307.502> 213 50<68 472> 329 96<237.012 307.502>
VStem: 224 96<66.2395 137.581 340.623 411.581>
LayerCount: 2
Fore
SplineSet
224 376 m 1
 224 379 l 1
 232 402 244 414 270 425 c 1
 273 425 l 1
 298 416 312 403 320 379 c 1
 320 376 l 1
 311 348 297 335 273 329 c 1
 270 329 l 1
 243 335 231 347 224 376 c 1
224 101 m 1
 224 105 l 1
 232 128 244 140 270 151 c 1
 273 151 l 1
 298 142 312 129 320 105 c 1
 320 101 l 1
 311 73 297 61 273 55 c 1
 270 55 l 1
 243 61 231 72 224 101 c 1
472 263 m 1
 472 213 l 1
 68 213 l 1
 68 263 l 1
 472 263 l 1
EndSplineSet
EndChar

StartChar: oslash
Encoding: 248 248 184
Width: 512
GlyphClass: 2
Flags: W
HStem: -10 41<196.729 321.854> 409 41<188.546 326.243>
VStem: 39 90<119.451 324.22> 383 90<109.714 322.802>
LayerCount: 2
Fore
SplineSet
434 465 m 1
 466 441 l 1
 420 385 l 1
 455 345 473 288 473 219 c 0
 473 85 391 -10 256 -10 c 0
 204 -10 160 4 126 28 c 1
 80 -29 l 1
 49 -2 l 1
 96 54 l 1
 59 94 39 149 39 210 c 0
 39 355 126 450 260 450 c 0
 313 450 356 436 390 412 c 1
 434 465 l 1
253 409 m 0
 157 409 129 316 129 227 c 0
 129 194 134 154 148 118 c 1
 351 364 l 1
 331 392 301 409 253 409 c 0
370 324 m 1
 169 79 l 1
 190 50 220 31 265 31 c 0
 334 31 383 104 383 201 c 0
 383 249 380 291 370 324 c 1
EndSplineSet
Substitution2: "'smcp' Lowercase to Small Capitals lookup 8 subtable" oslash.sc
AlternateSubs2: "'aalt' Access All Alternates lookup 5 subtable" oslash.sc
EndChar

StartChar: ugrave
Encoding: 249 249 185
Width: 549
GlyphClass: 2
Flags: W
HStem: -10 57<186.563 291.854> 422 20G<76 84 168 176 367 375 459 467>
VStem: 85 82<64.875 436.288> 376 82<122.933 436.243> 383 92<-2 91>
LayerCount: 2
Fore
SplineSet
233 687 m 2xe0
 305 558 l 2
 310 548 311 541 311 534 c 0
 311 529 304 522 296 522 c 0
 290 522 282 528 266 543 c 2
 150 654 l 1
 152 666 l 1
 160 672 183 689 218 689 c 0
 223 689 229 688 233 687 c 2xe0
374 94 m 1
 340 42 282 -10 219 -10 c 0
 118 -10 85 61 85 132 c 2
 85 255 l 2
 85 333 84 381 76 439 c 1
 78 442 l 1
 90 440 114 439 126 439 c 0
 138 439 162 440 174 442 c 1
 176 439 l 1
 168 385 167 332 167 255 c 2
 167 154 l 2
 167 59 201 47 236 47 c 0
 286 47 345 102 376 155 c 1
 376 255 l 2
 376 333 375 380 367 439 c 1
 369 442 l 1
 381 440 405 439 417 439 c 0
 429 439 453 440 465 442 c 1
 467 439 l 1
 459 385 458 332 458 255 c 2
 458 197 l 2xf0
 458 120 467 44 475 0 c 1
 473 -3 l 1
 460 -1 441 0 428 0 c 0
 413 0 401 -1 387 -3 c 0
 384 -3 383 -2 383 0 c 2xe8
 378 91 l 1
 374 94 l 1
EndSplineSet
Substitution2: "'smcp' Lowercase to Small Capitals lookup 8 subtable" ugrave.sc
AlternateSubs2: "'aalt' Access All Alternates lookup 5 subtable" ugrave.sc
EndChar

StartChar: uacute
Encoding: 250 250 186
Width: 549
GlyphClass: 2
Flags: W
HStem: -10 57<186.563 291.854> 422 20G<76 84 168 176 367 375 459 467>
VStem: 85 82<64.875 436.288> 376 82<122.933 436.243> 383 92<-2 91>
LayerCount: 2
Fore
SplineSet
313 687 m 2xe0
 316 688 323 689 328 689 c 0
 335 689 360 689 384 666 c 1
 387 654 l 1
 269 543 l 2
 254 528 246 523 239 523 c 0
 232 523 224 530 224 537 c 0
 224 548 228 552 236 565 c 2
 313 687 l 2xe0
374 94 m 1
 340 42 282 -10 219 -10 c 0
 118 -10 85 61 85 132 c 2
 85 255 l 2
 85 333 84 381 76 439 c 1
 78 442 l 1
 90 440 114 439 126 439 c 0
 138 439 162 440 174 442 c 1
 176 439 l 1
 168 385 167 332 167 255 c 2
 167 154 l 2
 167 59 201 47 236 47 c 0
 286 47 345 102 376 155 c 1
 376 255 l 2
 376 333 375 380 367 439 c 1
 369 442 l 1
 381 440 405 439 417 439 c 0
 429 439 453 440 465 442 c 1
 467 439 l 1
 459 385 458 332 458 255 c 2
 458 197 l 2xf0
 458 120 467 44 475 0 c 1
 473 -3 l 1
 460 -1 441 0 428 0 c 0
 413 0 401 -1 387 -3 c 0
 384 -3 383 -2 383 0 c 2xe8
 378 91 l 1
 374 94 l 1
EndSplineSet
Substitution2: "'smcp' Lowercase to Small Capitals lookup 8 subtable" uacute.sc
AlternateSubs2: "'aalt' Access All Alternates lookup 5 subtable" uacute.sc
EndChar

StartChar: ucircumflex
Encoding: 251 251 187
Width: 549
GlyphClass: 2
Flags: W
HStem: -10 57<186.563 291.854> 422 20G<76 84 168 176 367 375 459 467> 642 20G<222 303>
VStem: 85 82<64.875 436.288> 376 82<122.933 436.243> 383 92<-2 91>
LayerCount: 2
Fore
SplineSet
288 662 m 1xf0
 318 614 354 570 391 529 c 1
 370 515 l 1
 330 545 296 570 261 607 c 1
 223 568 191 543 152 515 c 1
 131 529 l 1
 168 570 207 615 237 662 c 1
 288 662 l 1xf0
374 94 m 1
 340 42 282 -10 219 -10 c 0
 118 -10 85 61 85 132 c 2
 85 255 l 2
 85 333 84 381 76 439 c 1
 78 442 l 1
 90 440 114 439 126 439 c 0
 138 439 162 440 174 442 c 1
 176 439 l 1
 168 385 167 332 167 255 c 2
 167 154 l 2
 167 59 201 47 236 47 c 0
 286 47 345 102 376 155 c 1
 376 255 l 2
 376 333 375 380 367 439 c 1
 369 442 l 1
 381 440 405 439 417 439 c 0
 429 439 453 440 465 442 c 1
 467 439 l 1
 459 385 458 332 458 255 c 2
 458 197 l 2xf8
 458 120 467 44 475 0 c 1
 473 -3 l 1
 460 -1 441 0 428 0 c 0
 413 0 401 -1 387 -3 c 0
 384 -3 383 -2 383 0 c 2xf4
 378 91 l 1
 374 94 l 1
EndSplineSet
Substitution2: "'smcp' Lowercase to Small Capitals lookup 8 subtable" ucircumflex.sc
AlternateSubs2: "'aalt' Access All Alternates lookup 5 subtable" ucircumflex.sc
EndChar

StartChar: udieresis
Encoding: 252 252 188
Width: 549
GlyphClass: 2
Flags: W
HStem: -10 57<186.563 291.854> 422 20G<76 84 168 176 367 375 459 467> 540 97<143.068 222.932 316.068 395.932>
VStem: 85 82<64.875 436.288> 135 96<547.44 629.265> 308 96<547.44 629.265> 376 82<122.933 436.243> 383 92<-2 91>
LayerCount: 2
Fore
SplineSet
135 588 m 0xe8
 135 615 156 637 183 637 c 0
 210 637 231 615 231 588 c 0
 231 561 210 540 183 540 c 0
 156 540 135 561 135 588 c 0xe8
308 588 m 0xe4
 308 615 329 637 356 637 c 0
 383 637 404 615 404 588 c 0
 404 561 383 540 356 540 c 0
 329 540 308 561 308 588 c 0xe4
374 94 m 1
 340 42 282 -10 219 -10 c 0
 118 -10 85 61 85 132 c 2
 85 255 l 2
 85 333 84 381 76 439 c 1
 78 442 l 1
 90 440 114 439 126 439 c 0
 138 439 162 440 174 442 c 1
 176 439 l 1
 168 385 167 332 167 255 c 2
 167 154 l 2
 167 59 201 47 236 47 c 0
 286 47 345 102 376 155 c 1
 376 255 l 2
 376 333 375 380 367 439 c 1
 369 442 l 1
 381 440 405 439 417 439 c 0
 429 439 453 440 465 442 c 1
 467 439 l 1
 459 385 458 332 458 255 c 2
 458 197 l 2xf2
 458 120 467 44 475 0 c 1
 473 -3 l 1
 460 -1 441 0 428 0 c 0
 413 0 401 -1 387 -3 c 0
 384 -3 383 -2 383 0 c 2xe1
 378 91 l 1
 374 94 l 1
EndSplineSet
Substitution2: "'smcp' Lowercase to Small Capitals lookup 8 subtable" udieresis.sc
AlternateSubs2: "'aalt' Access All Alternates lookup 5 subtable" udieresis.sc
EndChar

StartChar: yacute
Encoding: 253 253 189
Width: 518
GlyphClass: 2
Flags: W
HStem: -243 21G<111 129 188 212.5> 422 20G<36 49.5 125.5 151 387.5 411 472 484>
VStem: 106 87<-243 -206.78>
LayerCount: 2
Fore
SplineSet
314 687 m 2
 317 688 324 689 329 689 c 0
 336 689 361 689 385 666 c 1
 388 654 l 1
 270 543 l 2
 255 528 247 523 240 523 c 0
 233 523 225 530 225 537 c 0
 225 548 229 552 237 565 c 2
 314 687 l 2
29 442 m 1
 43 439 69 439 82 439 c 0
 96 439 119 439 132 442 c 1
 170 325 219 212 269 90 c 1
 271 90 l 1
 321 196 369 326 406 442 c 1
 416 439 435 439 445 439 c 0
 455 439 479 439 489 442 c 1
 455 373 232 -115 193 -243 c 1
 183 -240 152 -238 142 -238 c 0
 132 -238 116 -240 106 -243 c 1
 152 -166 194 -86 227 -10 c 1
 191 87 70 351 29 442 c 1
EndSplineSet
Substitution2: "'smcp' Lowercase to Small Capitals lookup 8 subtable" yacute.sc
AlternateSubs2: "'aalt' Access All Alternates lookup 5 subtable" yacute.sc
EndChar

StartChar: thorn
Encoding: 254 254 190
Width: 527
GlyphClass: 2
Flags: W
HStem: -241 21G<75 76 175 177> -10 40<192.909 324.161> 397 53<225.686 333.364> 695 20G<155 171>
VStem: 85 82<-235.272 12 53.0389 348.906 368 683.919> 388 98<131.322 333.008>
AnchorPoint: "Anchor-5" 286 564 basechar 0
AnchorPoint: "Anchor-4" 285 662 basechar 0
LayerCount: 2
Fore
SplineSet
167 313 m 1
 167 74 l 1
 202 32 237 30 254 30 c 0
 363 30 388 124 388 213 c 0
 388 362 320 397 275 397 c 0
 239 397 190 367 167 313 c 1
167 -33 m 2
 167 -110 168 -180 177 -238 c 1
 175 -241 l 1
 175 -241 161 -238 126 -238 c 0
 90 -238 76 -241 76 -241 c 1
 75 -238 l 1
 84 -183 85 -109 85 -33 c 2
 85 494 l 2
 85 572 83 642 75 686 c 1
 77 689 l 1
 118 692 142 705 168 715 c 0
 174 715 177 712 177 705 c 0
 169 642 167 589 167 512 c 2
 167 401 l 1
 166 368 l 1
 186 400 231 450 302 450 c 0
 401 450 486 349 486 241 c 0
 486 88 378 -10 259 -10 c 0
 222 -10 194 -2 167 12 c 1
 167 -33 l 2
EndSplineSet
Substitution2: "'smcp' Lowercase to Small Capitals lookup 8 subtable" thorn.sc
AlternateSubs2: "'aalt' Access All Alternates lookup 5 subtable" thorn.sc
EndChar

StartChar: ydieresis
Encoding: 255 255 191
Width: 518
GlyphClass: 2
Flags: W
HStem: -243 21G<111 129 188 212.5> 422 20G<36 49.5 125.5 151 387.5 411 472 484> 540 97<143.068 222.932 316.068 395.932>
VStem: 106 87<-243 -206.78> 135 96<547.44 629.265> 308 96<547.44 629.265>
LayerCount: 2
Fore
SplineSet
135 588 m 0xec
 135 615 156 637 183 637 c 0
 210 637 231 615 231 588 c 0
 231 561 210 540 183 540 c 0
 156 540 135 561 135 588 c 0xec
308 588 m 0
 308 615 329 637 356 637 c 0
 383 637 404 615 404 588 c 0
 404 561 383 540 356 540 c 0
 329 540 308 561 308 588 c 0
29 442 m 1
 43 439 69 439 82 439 c 0
 96 439 119 439 132 442 c 1
 170 325 219 212 269 90 c 1
 271 90 l 1
 321 196 369 326 406 442 c 1
 416 439 435 439 445 439 c 0
 455 439 479 439 489 442 c 1
 455 373 232 -115 193 -243 c 1
 183 -240 152 -238 142 -238 c 0
 132 -238 116 -240 106 -243 c 1xf4
 152 -166 194 -86 227 -10 c 1
 191 87 70 351 29 442 c 1
EndSplineSet
Substitution2: "'smcp' Lowercase to Small Capitals lookup 8 subtable" ydieresis.sc
AlternateSubs2: "'aalt' Access All Alternates lookup 5 subtable" ydieresis.sc
EndChar

StartChar: Amacron
Encoding: 256 256 192
Width: 644
GlyphClass: 2
Flags: W
HStem: -3 21G<22 67.5 92 106.5 512 523.5 602.5 619.5> 237 43<203 417> 654 20G<269 394> 743 45<192.04 477.501>
VStem: 16 82<-3 39.3528>
LayerCount: 2
Fore
SplineSet
455 743 m 2
 205 743 l 2
 196 743 191 752 191 759 c 0
 191 771 203 788 214 788 c 2
 465 788 l 2
 475 788 479 780 479 774 c 0
 479 762 468 743 455 743 c 2
417 282 m 1
 389 353 355 437 313 534 c 1
 311 534 l 1
 203 283 l 1
 226 282 280 280 310 280 c 0
 340 280 383 280 417 282 c 1
183 234 m 1
 146 144 115 60 98 -3 c 1
 86 0 63 0 52 0 c 0
 41 0 28 0 16 -3 c 1
 119 223 220 447 318 674 c 1
 347 674 l 1
 441 450 577 100 628 -3 c 1
 611 0 583 0 566 0 c 0
 549 0 532 0 515 -3 c 1
 509 20 486 100 436 234 c 1
 411 236 354 237 315 237 c 0
 280 237 209 236 183 234 c 1
EndSplineSet
Position2: "'cpsp' Capital Spacing lookup 0 subtable" dx=5 dy=0 dh=10 dv=0
EndChar

StartChar: amacron
Encoding: 257 257 193
Width: 492
GlyphClass: 2
Flags: W
HStem: -10 52<146.428 263.633 387.144 468.439> 403 47<162.415 288.823> 551 45<78.2694 363.385>
VStem: 46 83<60.7803 166.164> 318 81<80.5879 230 270.05 371.945>
LayerCount: 2
Fore
SplineSet
340 551 m 2
 90 551 l 2
 81 551 77 559 77 566 c 0
 77 578 88 596 99 596 c 2
 350 596 l 2
 360 596 365 588 365 582 c 0
 365 570 353 551 340 551 c 2
317 230 m 1
 230 207 l 2
 150 185 129 150 129 104 c 0
 129 72 159 42 205 42 c 0
 236 42 270 60 299 82 c 0
 307 88 313 96 313 109 c 2
 317 230 l 1
318 49 m 1
 313 49 l 1
 259 3 230 -10 174 -10 c 0
 98 -10 46 24 46 100 c 0
 46 170 112 225 216 249 c 2
 311 270 l 2
 314 271 318 276 318 283 c 0
 318 399 257 403 220 403 c 0
 171 403 137 362 108 316 c 1
 94 317 l 1
 77 386 l 1
 80 390 l 1
 106 412 152 450 230 450 c 0
 308 450 399 422 399 284 c 0
 399 273 396 159 396 129 c 0
 396 83 404 59 414 49 c 0
 420 43 434 41 444 41 c 0
 452 41 460 43 471 47 c 1
 479 22 l 1
 455 -4 423 -10 397 -10 c 0
 360 -10 330 9 318 49 c 1
EndSplineSet
EndChar

StartChar: Abreve
Encoding: 258 258 194
Width: 644
GlyphClass: 2
Flags: W
HStem: -3 21G<22 67.5 92 106.5 512 523.5 602.5 619.5> 237 43<203 417> 654 20G<269 394> 708 53<245.669 408.257>
VStem: 16 82<-3 39.3528> 188 29<797.387 823> 438 29<797.1 823>
LayerCount: 2
Fore
SplineSet
467 823 m 1
 461 750 396 708 328 708 c 0
 253 708 193 751 188 823 c 1
 217 823 l 1
 225 783 274 761 328 761 c 0
 378 761 431 783 438 823 c 1
 467 823 l 1
417 282 m 1
 389 353 355 437 313 534 c 1
 311 534 l 1
 203 283 l 1
 226 282 280 280 310 280 c 0
 340 280 383 280 417 282 c 1
183 234 m 1
 146 144 115 60 98 -3 c 1
 86 0 63 0 52 0 c 0
 41 0 28 0 16 -3 c 1
 119 223 220 447 318 674 c 1
 347 674 l 1
 441 450 577 100 628 -3 c 1
 611 0 583 0 566 0 c 0
 549 0 532 0 515 -3 c 1
 509 20 486 100 436 234 c 1
 411 236 354 237 315 237 c 0
 280 237 209 236 183 234 c 1
EndSplineSet
Substitution2: "'c2sc' Capitals to Small Capitals lookup 15 subtable" abreve.sc
Position2: "'cpsp' Capital Spacing lookup 0 subtable" dx=5 dy=0 dh=10 dv=0
EndChar

StartChar: abreve
Encoding: 259 259 195
Width: 492
GlyphClass: 2
Flags: W
HStem: -10 52<146.428 263.633 387.144 468.439> 403 47<162.415 288.823> 512 58<144.599 278.352> 643 20G<73 105.5 317 349>
VStem: 46 83<60.7803 166.164> 73 27<630.276 653.451> 318 81<80.5879 230 270.05 371.945> 322 27<626.262 653.451>
LayerCount: 2
Fore
SplineSet
100 663 m 1xf5
 111 609 156 570 211 570 c 0
 264 570 312 604 322 663 c 1
 349 650 l 1
 337 562 271 512 211 512 c 0
 139 512 87 563 73 650 c 1
 100 663 l 1xf5
317 230 m 1
 230 207 l 2
 150 185 129 150 129 104 c 0xf8
 129 72 159 42 205 42 c 0
 236 42 270 60 299 82 c 0
 307 88 313 96 313 109 c 2
 317 230 l 1
318 49 m 1xfa
 313 49 l 1
 259 3 230 -10 174 -10 c 0
 98 -10 46 24 46 100 c 0
 46 170 112 225 216 249 c 2
 311 270 l 2
 314 271 318 276 318 283 c 0
 318 399 257 403 220 403 c 0
 171 403 137 362 108 316 c 1
 94 317 l 1
 77 386 l 1
 80 390 l 1
 106 412 152 450 230 450 c 0
 308 450 399 422 399 284 c 0
 399 273 396 159 396 129 c 0
 396 83 404 59 414 49 c 0
 420 43 434 41 444 41 c 0
 452 41 460 43 471 47 c 1
 479 22 l 1
 455 -4 423 -10 397 -10 c 0
 360 -10 330 9 318 49 c 1xfa
EndSplineSet
Substitution2: "'smcp' Lowercase to Small Capitals lookup 8 subtable" abreve.sc
AlternateSubs2: "'aalt' Access All Alternates lookup 5 subtable" abreve.sc
EndChar

StartChar: Aogonek
Encoding: 260 260 196
Width: 644
GlyphClass: 2
Flags: W
HStem: -224 45<449.282 519.961> -3 21G<22 67.5 92 106.5 602.5 619.5> 237 43<203 417> 654 20G<269 394>
VStem: 16 82<-3 39.3528> 376 67<-173.34 -77.003>
LayerCount: 2
Fore
SplineSet
558 -167 m 1
 530 -201 492 -224 457 -224 c 0
 407 -224 376 -194 376 -146 c 0
 376 -76 444 -17 507 25 c 1
 495 64 473 134 436 234 c 1
 411 236 354 237 315 237 c 0
 280 237 209 236 183 234 c 1
 146 144 115 60 98 -3 c 1
 86 0 63 0 52 0 c 0
 41 0 28 0 16 -3 c 1
 119 223 220 447 318 674 c 1
 347 674 l 1
 441 450 577 100 628 -3 c 1
 611 0 583 0 566 0 c 0
 549 0 534 -3 517 -3 c 1
 469 -51 443 -85 443 -135 c 0
 443 -157 459 -179 486 -179 c 0
 503 -179 527 -163 541 -148 c 1
 544 -150 l 1
 558 -167 l 1
417 282 m 1
 389 353 355 437 313 534 c 1
 311 534 l 1
 203 283 l 1
 226 282 280 280 310 280 c 0
 340 280 383 280 417 282 c 1
EndSplineSet
Substitution2: "'c2sc' Capitals to Small Capitals lookup 15 subtable" aogonek.sc
Position2: "'cpsp' Capital Spacing lookup 0 subtable" dx=5 dy=0 dh=10 dv=0
EndChar

StartChar: aogonek
Encoding: 261 261 197
Width: 492
GlyphClass: 2
Flags: W
HStem: -214 45<346.782 417.901> -10 52<146.428 263.633 414.287 468.493> 403 47<162.415 288.823>
VStem: 46 83<60.7803 166.164> 273 68<-163.34 -66.3429> 318 81<80.5879 230 270.05 371.945>
LayerCount: 2
Fore
SplineSet
456 -157 m 1xf8
 428 -191 389 -214 354 -214 c 0
 304 -214 273 -184 273 -136 c 0xf8
 273 -84 311 -37 356 -0 c 1
 338 10 325 25 318 49 c 1
 313 49 l 1
 259 3 230 -10 174 -10 c 0
 98 -10 46 24 46 100 c 0
 46 170 112 225 216 249 c 2
 311 270 l 2
 314 271 318 276 318 283 c 0
 318 399 257 403 220 403 c 0
 171 403 137 362 108 316 c 1
 94 317 l 1
 77 386 l 1
 80 390 l 1
 106 412 152 450 230 450 c 0
 308 450 399 422 399 284 c 0xf4
 399 273 396 159 396 129 c 0
 396 83 404 59 414 49 c 0
 420 43 434 41 444 41 c 0
 452 41 460 43 471 47 c 1
 479 22 l 1
 455 -3 424 -10 398 -10 c 1
 361 -49 341 -82 341 -125 c 0
 341 -147 357 -169 384 -169 c 0
 401 -169 424 -153 438 -138 c 1
 441 -139 l 1
 456 -157 l 1xf8
317 230 m 1
 230 207 l 2
 150 185 129 150 129 104 c 0
 129 72 159 42 205 42 c 0
 236 42 270 60 299 82 c 0
 307 88 313 96 313 109 c 2
 317 230 l 1
EndSplineSet
Substitution2: "'smcp' Lowercase to Small Capitals lookup 8 subtable" aogonek.sc
AlternateSubs2: "'aalt' Access All Alternates lookup 5 subtable" aogonek.sc
EndChar

StartChar: Cacute
Encoding: 262 262 198
Width: 693
GlyphClass: 2
Flags: W
HStem: -10 52<298.567 503.219> 626 48<292.978 483.106> 715 21G<305.5 314.5>
VStem: 53 106<212.844 446.198>
LayerCount: 2
Fore
SplineSet
437 840 m 1
 466 826 488 808 501 786 c 1
 353 727 l 2
 331 718 319 715 310 715 c 0
 301 715 295 722 295 730 c 0
 295 737 297 743 310 752 c 2
 437 840 l 1
389 674 m 0
 514 674 612 623 612 623 c 1
 614 620 l 1
 603 576 600 558 596 506 c 1
 584 505 l 1
 542 589 467 626 375 626 c 0
 291 626 159 550 159 342 c 0
 159 182 254 42 384 42 c 0
 479 42 540 68 613 148 c 1
 621 145 l 1
 625 136 626 114 627 102 c 1
 559 19 470 -10 375 -10 c 0
 155 -10 53 146 53 323 c 0
 53 525 216 674 389 674 c 0
EndSplineSet
Substitution2: "'c2sc' Capitals to Small Capitals lookup 15 subtable" cacute.sc
Position2: "'cpsp' Capital Spacing lookup 0 subtable" dx=5 dy=0 dh=10 dv=0
EndChar

StartChar: cacute
Encoding: 263 263 199
Width: 439
GlyphClass: 2
Flags: W
HStem: -10 51<195.045 338.743> 409 41<196.966 310.434>
VStem: 39 90<116.139 323.082>
LayerCount: 2
Fore
SplineSet
274 687 m 2
 277 688 284 689 289 689 c 0
 296 689 321 689 345 666 c 1
 348 654 l 1
 230 543 l 2
 215 528 207 523 200 523 c 0
 193 523 185 530 185 537 c 0
 185 548 189 552 197 565 c 2
 274 687 l 2
256 409 m 0
 188 409 129 341 129 228 c 0
 129 108 187 41 262 41 c 0
 300 41 333 49 372 84 c 1
 376 84 l 1
 395 62 l 1
 354 10 306 -10 245 -10 c 0
 120 -10 39 81 39 223 c 0
 39 362 151 450 257 450 c 0
 308 450 361 437 393 421 c 1
 395 418 l 1
 372 334 l 1
 358 333 l 1
 331 380 295 409 256 409 c 0
EndSplineSet
Substitution2: "'smcp' Lowercase to Small Capitals lookup 8 subtable" cacute.sc
AlternateSubs2: "'aalt' Access All Alternates lookup 5 subtable" cacute.sc
EndChar

StartChar: Ccircumflex
Encoding: 264 264 200
Width: 693
GlyphClass: 2
Flags: W
HStem: -10 52<298.567 503.219> 626 48<292.978 483.106> 708 21G<242.667 275.5 454 489.238>
VStem: 53 106<212.844 446.198>
LayerCount: 2
Fore
SplineSet
387 825 m 1
 418 788 453 757 490 729 c 1
 474 708 l 1
 434 726 400 745 366 771 c 1
 328 743 295 725 256 708 c 1
 242 729 l 1
 280 758 311 790 343 825 c 1
 387 825 l 1
389 674 m 0
 514 674 612 623 612 623 c 1
 614 620 l 1
 603 576 600 558 596 506 c 1
 584 505 l 1
 542 589 467 626 375 626 c 0
 291 626 159 550 159 342 c 0
 159 182 254 42 384 42 c 0
 479 42 540 68 613 148 c 1
 621 145 l 1
 625 136 626 114 627 102 c 1
 559 19 470 -10 375 -10 c 0
 155 -10 53 146 53 323 c 0
 53 525 216 674 389 674 c 0
EndSplineSet
Position2: "'cpsp' Capital Spacing lookup 0 subtable" dx=5 dy=0 dh=10 dv=0
EndChar

